<svg width="72px" height="72px"  id="Cuff-02" xmlns="http://www.w3.org/2000/svg" viewBox="0 0 76.818 81.696">
  <defs>
  </defs>
  <path id="Shape" class="cls-1" d="M42.259,10.69l-.121-.061c-.849-.486-8.428-4.677-9.216-6.681A1.584,1.584,0,0,1,33.1,2.49C34.135.972,38.076,0,43.35,0c5.153,0,7.943,1.579,8.731,2.976A1.648,1.648,0,0,1,52.2,4.556c-.91,1.7-8.913,5.649-9.822,6.074ZM43.35.607c-5.7,0-9.034,1.093-9.761,2.187a.875.875,0,0,0-.121.85c.606,1.519,6.427,4.981,8.791,6.317,2.486-1.215,8.731-4.495,9.4-5.77a.937.937,0,0,0-.121-.972C50.808,1.944,47.958.607,43.35.607Z"/>
  <path id="Shape-2" data-name="Shape" class="cls-1" d="M38.015,17.433a.315.315,0,0,1-.243-.122l-6.487-8.2a.366.366,0,0,1-.061-.243L32.8,2.976a.377.377,0,0,1,.364-.243.333.333,0,0,1,.243.364l-1.516,5.71,6.124,7.775,4.062-6.438a.312.312,0,1,1,.546.3l-4.3,6.8c-.121.122-.182.182-.3.182Z"/>
  <path id="Shape-3" data-name="Shape" class="cls-1" d="M42.32,81.7a.287.287,0,0,1-.3-.3V10.326a.31.31,0,0,1,.243-.3c.121-.061.242,0,.364.122l4.062,6.438,6.063-7.775-.97-5.041c-.061-.182.061-.3.243-.364s.3.061.364.243l.97,5.163a.366.366,0,0,1-.061.243l-6.487,8.261a.459.459,0,0,1-.243.122.314.314,0,0,1-.243-.122l-3.759-5.892V81.393A.278.278,0,0,1,42.32,81.7Z"/>
  <path id="Shape-4" data-name="Shape" class="cls-1" d="M42.32,81.7c-16.613,0-23.1-5.77-23.4-6.013a.461.461,0,0,1-.121-.243c0-.122,1.819-15.307,2.425-24.722S18.856,12.087,18.8,11.784a.464.464,0,0,1,.121-.3A54.646,54.646,0,0,1,32.194,5.831a.288.288,0,0,1,.182.547,53.364,53.364,0,0,0-12.914,5.527c.243,2.551,2.971,29.763,2.425,38.813-.546,8.929-2.183,22.96-2.425,24.6.97.79,7.7,5.77,22.857,5.77a44.042,44.042,0,0,0,18.068-3.462,25.277,25.277,0,0,0,5.578-3.341c-.3-2.247-3.032-23.264-3.032-26.908s2-33.043,2.183-35.473A31.942,31.942,0,0,0,52.384,6.013a.31.31,0,0,1,.121-.607,33.036,33.036,0,0,1,13.1,6.135.461.461,0,0,1,.121.243c0,.3-2.183,31.889-2.183,35.594s2.971,26.787,3.032,26.969c0,.121,0,.182-.121.243a20.249,20.249,0,0,1-5.82,3.523A44.005,44.005,0,0,1,42.32,81.7Z"/>
  <g id="Group" transform="translate(0 11.541)">
    <path id="Shape-5" data-name="Shape" class="cls-1" d="M11.58,50.233,21.4,29.277c0-.061.061-.061,0-.121C21.342,27.819,20.129,6.924,19.22.486c-.061-.3-.485-.364-.546-.061L2.728,45.191a.292.292,0,0,0,.121.364l8.306,4.8A.374.374,0,0,0,11.58,50.233Z"/>
    <path id="Shape-6" data-name="Shape" class="cls-1" d="M2.3,46.467,0,52.844,8.185,57.4l2.607-5.527Z"/>
  </g>
  <g id="Group-2" data-name="Group" transform="translate(63.055 11.541)">
    <path id="Shape-7" data-name="Shape" class="cls-1" d="M8.367,21.927c.485,1.336,2.061,5.163,2.728,6.742l1.273-.607a.292.292,0,0,0,.121-.364L9.034,17.979A3.361,3.361,0,0,0,8.367,21.927Z"/>
    <path id="Shape-8" data-name="Shape" class="cls-1" d="M8.609,16.764,2.85.425A.278.278,0,0,0,2.3.486C1.455,6.864.243,27.758.121,29.156v.121L1.88,31.585a.26.26,0,0,0,.424.122l6.851-4.495c-.667-1.64-1.394-3.4-1.94-4.8C6.184,19.559,7.336,17.736,8.609,16.764Z"/>
    <path id="Shape-9" data-name="Shape" class="cls-1" d="M13.763,31.038l-1.7-4.434L10.61,27.637c.728,1.762,1.455,3.341,1.819,4.252Z"/>
    <path id="Shape-10" data-name="Shape" class="cls-1" d="M2.668,33.225l2,3.584,6.73-4.252c-.364-.85-1.031-2.43-1.819-4.191Z"/>
  </g>
  <circle id="Oval" class="cls-1" cx="1" cy="1" r="1" transform="translate(42.775 18.619)"/>
  <circle id="Oval-2" data-name="Oval" class="cls-1" cx="1" cy="1" r="1" transform="translate(42.775 28.581)"/>
  <circle id="Oval-3" data-name="Oval" class="cls-1" cx="1" cy="1" r="1" transform="translate(42.775 38.481)"/>
  <circle id="Oval-4" data-name="Oval" class="cls-1" cx="1" cy="1" r="1" transform="translate(42.775 48.382)"/>
  <circle id="Oval-5" data-name="Oval" class="cls-1" cx="1" cy="1" r="1" transform="translate(42.775 58.283)"/>
  <circle id="Oval-6" data-name="Oval" class="cls-1" cx="1" cy="1" r="1" transform="translate(42.775 68.184)"/>
  <path id="Shape-11" data-name="Shape" class="cls-1" d="M49.292,6.5c-.061,0-.121,0-.121-.061-6.609-3.766-13.7-.364-13.763-.3a.4.4,0,0,1-.424-.121.4.4,0,0,1,.121-.425c.061-.061,7.458-3.584,14.309.364a.349.349,0,0,1,.121.425C49.535,6.439,49.413,6.5,49.292,6.5Z"/>
</svg>
