<svg width="72px" height="55px"  id="Cuff-07" xmlns="http://www.w3.org/2000/svg" viewBox="0 0 75 65">
  <defs>
  </defs>
  <path id="Shape" class="cls-1" d="M35.341,19a.959.959,0,0,1-.418-.146C24.968,11.564.74,1.577.461,1.431A.77.77,0,0,1,.044.483.715.715,0,0,1,.949.046c.975.437,24.645,10.133,34.74,17.569a.672.672,0,0,1,.139,1.021A.447.447,0,0,1,35.341,19Z"/>
  <path id="Shape-2" data-name="Shape" class="cls-1" d="M20.274,40h-.138L1.519,35.42a.694.694,0,0,1-.483-.872.652.652,0,0,1,.827-.509l18.617,4.58A.7.7,0,0,1,20.274,40Z"/>
  <path id="Shape-3" data-name="Shape" class="cls-1" d="M20.283,46h-.071L1.576,42.676a.865.865,0,0,1-.565-.962c.071-.437.424-.787.777-.7l18.637,3.324a.865.865,0,0,1,.565.962A.739.739,0,0,1,20.283,46Z"/>
  <path id="Shape-4" data-name="Shape" class="cls-1" d="M7.558,52c-1.933,0-3.935-.054-5.937-.215A.693.693,0,0,1,1,51.193a.788.788,0,0,1,.759-.484,97.378,97.378,0,0,0,19.4-.7.714.714,0,0,1,.828.43.564.564,0,0,1-.552.645A114.8,114.8,0,0,1,7.558,52Z"/>
  <path id="Shape-5" data-name="Shape" class="cls-1" d="M67.024,24.742a1.963,1.963,0,0,0-.636-.07l-29.91-8.319c-.071,0-.142-.071-.212-.071s-.212-.07-.283-.07L35.2,16v.07c-5.515-.493-11.879,6.416-14.778,16.216-.141.564-.283,1.058-.424,1.622-.071.987.071,2.468,1.131,2.679,1.343.282,26.445,7.121,27.506,7.4h.071c.283.07,3.04.917,4.808-2.961.566-1.269,1.061-2.327,1.414-3.1,2.475-6.627,6.717-11.21,10.606-11.21a4.675,4.675,0,0,1,.99.071c5.02,1.058,7.637,10.153,5.586,19.882a27.309,27.309,0,0,1-5.586,12.338c-2.4,2.891-5.091,4.23-7.424,3.737-4.667-.987-7.212-8.813-6.01-17.7a5.882,5.882,0,0,1-3.535,1.269A3.412,3.412,0,0,1,48,46.035c-8.98-2.4-26.233-7.121-27.294-7.332A3.626,3.626,0,0,1,19.225,38c-.99,8.178,1.344,14.947,6.01,16.286.071,0,.212.07.283.07L58.044,64.647h0c.212.071.424.141.707.212A9.61,9.61,0,0,0,60.165,65c2.758,0,5.586-1.551,8.061-4.583a29.839,29.839,0,0,0,6.01-13.255C76.569,35.882,73.387,26.082,67.024,24.742ZM37.75,36.94a2.046,2.046,0,1,1,1.98-2.115A2.008,2.008,0,0,1,37.75,36.94ZM35.77,49.63a2.046,2.046,0,1,1,1.98-2.115A2.049,2.049,0,0,1,35.77,49.63Z"/>
</svg>
