<svg width="72" height="55" xmlns="http://www.w3.org/2000/svg">
 <!-- Created with Method Draw - http://github.com/duopixel/Method-Draw/ -->

 <g>
  <title>background</title>
  <rect fill="none" id="canvas_background" height="57" width="74" y="-1" x="-1"/>
  <g display="none" overflow="visible" y="0" x="0" height="100%" width="100%" id="canvasGrid">
   <rect fill="url(#gridpattern)" stroke-width="0" y="1" x="1" height="400" width="580"/>
  </g>
 </g>
 <g>
  <title>Layer 1</title>
  <style transform="matrix(3.429355166740052,0,0,3.429355166740052,0,0) " type="text/css">.st0{fill-rule:evenodd;clip-rule:evenodd;}
	.st1{fill-rule:evenodd;clip-rule:evenodd;fill:#FFFFFF;}</style>
  <g stroke="null" id="svg_8">
   <path stroke="null" id="svg_5" d="m61.621859,20.400472c-2.436218,0.100288 -4.978359,1.905481 -7.096809,4.914134c-1.165148,1.604615 -2.118451,3.510096 -2.965831,5.716442l0,0c-22.349654,-12.435768 -17.900908,-17.951633 -17.900908,-17.951633c-5.402049,5.515865 17.265372,19.857113 17.265372,19.857113c-0.741458,1.30375 -1.588838,2.507211 -2.436218,3.710673c-0.42369,0.200577 -0.953303,0.200577 -1.376993,0.100288c-0.105923,0 -0.317768,-0.100288 -0.42369,-0.100288c-0.105923,0 -0.105923,0 -0.211845,-0.100288l0,0l-25.52733,-6.418461c1.69476,-7.020191 5.402049,-14.140671 11.863323,-16.84846c0.635535,-0.300865 1.059225,-0.501442 1.482915,-0.601731c-7.096809,-4.312403 -20.019358,-8.023076 -30.293843,-10.931441l0,-1.30375c24.679949,7.421345 29.870153,10.831153 30.823456,12.034614c0.953303,-0.501442 2.118451,-1.002884 3.177676,-1.30375c1.165148,-0.300865 2.753986,-0.200577 5.190204,0.401154c4.342824,1.103173 16.841682,6.619038 20.337126,8.123364c0.105923,0 0.211845,0.100288 0.211845,0.100288l0.105923,0l0,0l0.105923,0c0.105923,0.100288 0.211845,0.100288 0.317768,0.100288l0,0c1.27107,0.702019 2.436218,1.805192 3.177676,3.409807c1.059225,2.106057 1.69476,5.014422 1.800683,8.223653c0,1.704904 -0.105923,3.610384 -0.42369,5.515865c-0.84738,4.914134 -2.648063,9.326826 -4.872436,12.536056c-2.330296,3.309519 -5.190204,5.315288 -7.94419,5.415576c-0.317768,0 -0.635535,0 -0.953303,-0.100288c-0.42369,-0.100288 -0.84738,-0.200577 -1.27107,-0.300865l-6.884964,-1.905481c-4.660591,-0.601731 -16.100225,-2.005769 -19.913436,-3.108942c-2.224373,-0.702019 -3.601366,-1.604615 -4.448746,-2.507211c-0.635535,-0.702019 -1.27107,-1.704904 -1.69476,-2.507211c-0.105923,-0.100288 -0.105923,-0.300865 -0.211845,-0.501442c-1.376993,0.501442 -5.296126,0.601731 -16.523915,-1.504327l0,-0.702019c7.096809,1.504327 13.875851,2.507211 16.417992,1.504327c-0.105923,-0.200577 -0.105923,-0.401154 -0.105923,-0.702019c-0.211845,-1.704904 -0.317768,-3.710673 -0.211845,-5.917019l-16.206147,-3.309519l0,-0.501442l16.100225,3.309519c0.105923,-1.404038 0.317768,-2.808077 0.529613,-4.212115l-0.211845,-0.100288l-16.417992,-3.510096l0,-0.501442l16.841682,3.510096l0,-0.100288l22.455576,5.716442c1.482915,0.401154 3.283598,1.103173 4.448746,0.902596c1.059225,0 2.012528,-2.005769 2.753986,-4.111826c-0.317768,1.103173 -0.635535,2.306634 -0.741458,3.510096c-0.105923,0.501442 -0.105923,0.902596 -0.211845,1.404038c-3.495443,-0.100288 -30.293843,-1.704904 -29.128696,4.613269c0,0 0.953303,-6.017307 28.916851,-2.808077l0.105923,0.100288c-0.105923,0.702019 -0.105923,1.504327 -0.105923,2.206346c0.105923,3.108942 0.635535,5.81673 1.69476,7.822499c0.953303,1.905481 2.330296,3.108942 4.025056,3.409807c0.211845,0.100288 0.529613,0.100288 0.741458,0.100288c2.436218,0 4.978359,-1.905481 7.096809,-4.914134c2.224373,-3.108942 3.919134,-7.421345 4.766514,-12.134902c0.317768,-1.905481 0.42369,-3.710673 0.42369,-5.415576c-0.105923,-3.108942 -0.635535,-5.81673 -1.69476,-7.822499c-0.953303,-1.905481 -2.330296,-3.108942 -4.025056,-3.409807c-0.211845,-0.100288 -0.42369,-0.100288 -0.741458,-0.100288l0,0l0,0zm-41.097942,23.567786l0,0l0,0l0,0l0,0zm0,-0.100288l0,0l0,0l0,0l0,0l0,0zm21.078583,-15.444421c-1.059225,0 -2.118451,0.902596 -2.224373,2.106057c-0.105923,1.103173 0.635535,2.106057 1.69476,2.106057c1.059225,0 2.118451,-0.902596 2.224373,-2.106057c0.105923,-1.203461 -0.635535,-2.106057 -1.69476,-2.106057l0,0z" class="st0"/>
   <path stroke="null" id="svg_6" d="m61.621859,20.400472c-2.436218,0.100288 -4.978359,1.905481 -7.096809,4.914134c-1.165148,1.604615 -2.118451,3.510096 -2.965831,5.716442l0,0c-22.349654,-12.435768 -17.900908,-17.951633 -17.900908,-17.951633c-5.402049,5.515865 17.265372,19.857113 17.265372,19.857113c-0.741458,1.30375 -1.588838,2.507211 -2.436218,3.710673c-0.42369,0.200577 -0.953303,0.200577 -1.376993,0.100288c-0.105923,0 -0.317768,-0.100288 -0.42369,-0.100288c-0.105923,0 -0.105923,0 -0.211845,-0.100288l0,0l-25.52733,-6.418461c1.69476,-7.020191 5.402049,-14.140671 11.863323,-16.84846c0.635535,-0.300865 1.059225,-0.501442 1.482915,-0.601731c-7.096809,-4.312403 -20.019358,-8.023076 -30.293843,-10.931441l0,-1.30375c24.679949,7.421345 29.870153,10.831153 30.823456,12.034614c0.953303,-0.501442 2.118451,-1.002884 3.177676,-1.30375c1.165148,-0.300865 2.753986,-0.200577 5.190204,0.401154c4.342824,1.103173 16.841682,6.619038 20.337126,8.123364c0.105923,0 0.211845,0.100288 0.211845,0.100288l0.105923,0l0,0l0.105923,0c0.105923,0.100288 0.211845,0.100288 0.317768,0.100288l0,0c1.27107,0.702019 2.436218,1.805192 3.177676,3.409807c1.059225,2.106057 1.69476,5.014422 1.800683,8.223653c0,1.704904 -0.105923,3.610384 -0.42369,5.515865c-0.84738,4.914134 -2.648063,9.326826 -4.872436,12.536056c-2.330296,3.309519 -5.190204,5.315288 -7.94419,5.415576c-0.317768,0 -0.635535,0 -0.953303,-0.100288c-0.42369,-0.100288 -0.84738,-0.200577 -1.27107,-0.300865l-6.884964,-1.905481c-4.660591,-0.601731 -16.100225,-2.005769 -19.913436,-3.108942c-2.224373,-0.702019 -3.601366,-1.604615 -4.448746,-2.507211c-0.635535,-0.702019 -1.27107,-1.704904 -1.69476,-2.507211c-0.105923,-0.100288 -0.105923,-0.300865 -0.211845,-0.501442c-1.376993,0.501442 -5.296126,0.601731 -16.523915,-1.504327l0,-0.702019c7.096809,1.504327 13.875851,2.507211 16.417992,1.504327c-0.105923,-0.200577 -0.105923,-0.401154 -0.105923,-0.702019c-0.211845,-1.704904 -0.317768,-3.710673 -0.211845,-5.917019l-16.206147,-3.309519l0,-0.501442l16.100225,3.309519c0.105923,-1.404038 0.317768,-2.808077 0.529613,-4.212115l-0.211845,-0.100288l-16.417992,-3.510096l0,-0.501442l16.841682,3.510096l0,-0.100288l22.455576,5.716442c1.482915,0.401154 3.283598,1.103173 4.448746,0.902596c1.059225,0 2.012528,-2.005769 2.753986,-4.111826c-0.317768,1.103173 -0.635535,2.306634 -0.741458,3.510096c-0.105923,0.501442 -0.105923,0.902596 -0.211845,1.404038c-3.495443,-0.100288 -30.293843,-1.704904 -29.128696,4.613269c0,0 0.953303,-6.017307 28.916851,-2.808077l0.105923,0.100288c-0.105923,0.702019 -0.105923,1.504327 -0.105923,2.206346c0.105923,3.108942 0.635535,5.81673 1.69476,7.822499c0.953303,1.905481 2.330296,3.108942 4.025056,3.409807c0.211845,0.100288 0.529613,0.100288 0.741458,0.100288c2.436218,0 4.978359,-1.905481 7.096809,-4.914134c2.224373,-3.108942 3.919134,-7.421345 4.766514,-12.134902c0.317768,-1.905481 0.42369,-3.710673 0.42369,-5.415576c-0.105923,-3.108942 -0.635535,-5.81673 -1.69476,-7.822499c-0.953303,-1.905481 -2.330296,-3.108942 -4.025056,-3.409807c-0.211845,-0.100288 -0.42369,-0.100288 -0.741458,-0.100288l0,0l0,0zm-41.097942,23.567786l0,0l0,0l0,0l0,0zm0,-0.100288l0,0l0,0l0,0l0,0l0,0z" class="st0"/>
   <path stroke="null" id="svg_7" d="m38.318903,27.621241c-0.635535,-0.501442 -1.906606,-0.501442 -2.648063,0.501442c-0.635535,0.802308 -0.84738,2.206346 0,3.008653c0.84738,0.802308 2.012528,0.702019 2.859908,-0.300865c0.84738,-1.002884 0.84738,-2.306634 -0.211845,-3.20923z" class="st1"/>
  </g>
 </g>
</svg>