<svg width="764" height="446" viewBox="0 0 764 446" fill="none" xmlns="http://www.w3.org/2000/svg">
<path fill-rule="evenodd" clip-rule="evenodd" d="M732.206 0.109803H445.636C442.214 -3.2792 511.588 72.9068 511.588 72.9068H732.206V0.109803ZM509.19 443.636H434.134C434.134 439.084 431.841 220.76 431.841 220.76H727.548V295.816H509.19V443.636Z" fill="white"/>
<path d="M2.177 0.0334343H71.9505V262.149C71.6586 291.992 82.6335 320.848 102.684 342.954C117.868 359.301 139.431 373.056 169.135 373.056C189.605 373.25 209.832 368.617 228.177 359.533C245.697 350.487 260.363 336.754 270.541 319.866C280.719 302.977 286.009 283.594 285.823 263.877H361.643C361.752 298.505 350.798 332.263 330.378 360.231C300.94 400.101 250.072 447.714 175.116 445.953C142.272 445.447 110.236 435.693 82.6823 417.811C30.9834 384.253 0.748239 325.909 0.44921 264.242C-0.115623 174.002 -0.647166 -2.79073 2.177 0.0334343Z" fill="white"/>
</svg>
