<svg width="25" height="39" viewBox="0 0 25 39" fill="none" xmlns="http://www.w3.org/2000/svg">
<path d="M2.86719 36V27.4688H5.79102C6.75586 27.4688 7.49023 27.6621 7.99414 28.0488C8.49805 28.4355 8.75 29.0117 8.75 29.7773C8.75 30.168 8.64453 30.5195 8.43359 30.832C8.22266 31.1445 7.91406 31.3867 7.50781 31.5586C7.96875 31.6836 8.32422 31.9199 8.57422 32.2676C8.82812 32.6113 8.95508 33.0254 8.95508 33.5098C8.95508 34.3105 8.69727 34.9258 8.18164 35.3555C7.66992 35.7852 6.93555 36 5.97852 36H2.86719ZM4.34961 32.1504V34.8164H5.99609C6.46094 34.8164 6.82422 34.7012 7.08594 34.4707C7.34766 34.2402 7.47852 33.9199 7.47852 33.5098C7.47852 32.623 7.02539 32.1699 6.11914 32.1504H4.34961ZM4.34961 31.0605H5.80273C6.26367 31.0605 6.62305 30.957 6.88086 30.75C7.14258 30.5391 7.27344 30.2422 7.27344 29.8594C7.27344 29.4375 7.15234 29.1328 6.91016 28.9453C6.67188 28.7578 6.29883 28.6641 5.79102 28.6641H4.34961V31.0605ZM14.0879 36C14.0254 35.8789 13.9707 35.6816 13.9238 35.4082C13.4707 35.8809 12.916 36.1172 12.2598 36.1172C11.623 36.1172 11.1035 35.9355 10.7012 35.5723C10.2988 35.209 10.0977 34.7598 10.0977 34.2246C10.0977 33.5488 10.3477 33.0312 10.8477 32.6719C11.3516 32.3086 12.0703 32.127 13.0039 32.127H13.877V31.7109C13.877 31.3828 13.7852 31.1211 13.6016 30.9258C13.418 30.7266 13.1387 30.627 12.7637 30.627C12.4395 30.627 12.1738 30.709 11.9668 30.873C11.7598 31.0332 11.6562 31.2383 11.6562 31.4883H10.2324C10.2324 31.1406 10.3477 30.8164 10.5781 30.5156C10.8086 30.2109 11.1211 29.9727 11.5156 29.8008C11.9141 29.6289 12.3574 29.543 12.8457 29.543C13.5879 29.543 14.1797 29.7305 14.6211 30.1055C15.0625 30.4766 15.2891 31 15.3008 31.6758V34.5352C15.3008 35.1055 15.3809 35.5605 15.541 35.9004V36H14.0879ZM12.5234 34.9746C12.8047 34.9746 13.0684 34.9062 13.3145 34.7695C13.5645 34.6328 13.752 34.4492 13.877 34.2188V33.0234H13.1094C12.582 33.0234 12.1855 33.1152 11.9199 33.2988C11.6543 33.4824 11.5215 33.7422 11.5215 34.0781C11.5215 34.3516 11.6113 34.5703 11.791 34.7344C11.9746 34.8945 12.2188 34.9746 12.5234 34.9746ZM16.543 32.7832C16.543 31.7988 16.7734 31.0137 17.2344 30.4277C17.6992 29.8379 18.3145 29.543 19.0801 29.543C19.8027 29.543 20.3711 29.7949 20.7852 30.2988L20.8496 29.6602H22.1328V35.8066C22.1328 36.6387 21.873 37.2949 21.3535 37.7754C20.8379 38.2559 20.1406 38.4961 19.2617 38.4961C18.7969 38.4961 18.3418 38.3984 17.8965 38.2031C17.4551 38.0117 17.1191 37.7598 16.8887 37.4473L17.5625 36.5918C18 37.1113 18.5391 37.3711 19.1797 37.3711C19.6523 37.3711 20.0254 37.2422 20.2988 36.9844C20.5723 36.7305 20.709 36.3555 20.709 35.8594V35.4316C20.2988 35.8887 19.752 36.1172 19.0684 36.1172C18.3262 36.1172 17.7188 35.8223 17.2461 35.2324C16.7773 34.6426 16.543 33.8262 16.543 32.7832ZM17.9609 32.9062C17.9609 33.543 18.0898 34.0449 18.3477 34.4121C18.6094 34.7754 18.9707 34.957 19.4316 34.957C20.0059 34.957 20.4316 34.7109 20.709 34.2188V31.4297C20.4395 30.9492 20.0176 30.709 19.4434 30.709C18.9746 30.709 18.6094 30.8945 18.3477 31.2656C18.0898 31.6367 17.9609 32.1836 17.9609 32.9062Z" fill="#282C3F"/>
<path d="M4.46826 20.4925C4.60703 20.6519 4.77838 20.7797 4.97074 20.8672C5.16311 20.9548 5.37201 21.0001 5.58336 21H19.5212C19.7326 21.0001 19.9415 20.9548 20.134 20.8672C20.3264 20.7796 20.4978 20.6518 20.6366 20.4924C20.7754 20.3329 20.8785 20.1456 20.9387 19.9429C20.999 19.7403 21.0151 19.5271 20.986 19.3177L19.423 8.04695C19.3727 7.69389 19.197 7.37074 18.928 7.13653C18.6591 6.90232 18.3149 6.77271 17.9582 6.77136H7.14652C6.78983 6.77267 6.44552 6.9023 6.17653 7.13655C5.90753 7.3708 5.73182 7.69403 5.68151 8.04716L4.11854 19.3177C4.08947 19.5271 4.10564 19.7404 4.16597 19.943C4.2263 20.1457 4.32938 20.333 4.46826 20.4925ZM4.94505 19.4326L6.50803 8.16183C6.52992 8.00789 6.60649 7.86698 6.72372 7.76485C6.84096 7.66272 6.99104 7.60619 7.14652 7.6056H17.9582C18.1137 7.60614 18.2638 7.66262 18.3811 7.76471C18.4984 7.8668 18.575 8.00769 18.5969 8.16162L20.1599 19.4326C20.1725 19.5239 20.1654 19.6168 20.1391 19.7051C20.1128 19.7934 20.0678 19.875 20.0073 19.9445C19.9468 20.014 19.8721 20.0697 19.7882 20.1078C19.7044 20.146 19.6133 20.1658 19.5212 20.1658H5.58336C5.49123 20.1658 5.40017 20.146 5.31632 20.1079C5.23248 20.0697 5.15779 20.014 5.0973 19.9445C5.0368 19.875 4.99191 19.7934 4.96565 19.705C4.93939 19.6167 4.93236 19.5238 4.94505 19.4326V19.4326Z" fill="#6B6E7B" stroke="#6B6E7B" stroke-width="0.588873"/>
<path d="M15.4607 5.82706C15.5155 5.82707 15.5698 5.8163 15.6204 5.79534C15.671 5.77438 15.717 5.74366 15.7557 5.70492C15.7944 5.66618 15.8252 5.6202 15.8461 5.56958C15.8671 5.51897 15.8779 5.46472 15.8779 5.40994V5.20748C15.8779 4.32546 15.5275 3.47957 14.9038 2.85589C14.2801 2.23222 13.4342 1.88184 12.5522 1.88184C11.6702 1.88184 10.8243 2.23222 10.2006 2.85589C9.57694 3.47957 9.22656 4.32546 9.22656 5.20748V5.40994C9.22656 5.52057 9.27051 5.62666 9.34873 5.70489C9.42696 5.78311 9.53305 5.82706 9.64368 5.82706C9.75431 5.82706 9.8604 5.78311 9.93863 5.70489C10.0169 5.62666 10.0608 5.52057 10.0608 5.40994V5.20748C10.0608 4.8803 10.1252 4.55633 10.2504 4.25406C10.3757 3.95179 10.5592 3.67714 10.7905 3.44579C11.0219 3.21444 11.2965 3.03093 11.5988 2.90572C11.9011 2.78052 12.225 2.71607 12.5522 2.71607C12.8794 2.71607 13.2034 2.78052 13.5056 2.90572C13.8079 3.03093 14.0825 3.21444 14.3139 3.44579C14.5452 3.67714 14.7288 3.95179 14.854 4.25406C14.9792 4.55633 15.0436 4.8803 15.0436 5.20748V5.40994C15.0436 5.46472 15.0544 5.51897 15.0753 5.56958C15.0963 5.6202 15.127 5.66618 15.1658 5.70492C15.2045 5.74366 15.2505 5.77438 15.3011 5.79534C15.3517 5.8163 15.406 5.82707 15.4607 5.82706Z" fill="#6B6E7B" stroke="#6B6E7B" stroke-width="0.588873"/>
</svg>
