<svg width="36" height="41" viewBox="0 0 36 41" fill="none" xmlns="http://www.w3.org/2000/svg">
<path d="M2.34961 34.8301V38H0.867188V29.4688H4.13086C5.08398 29.4688 5.83984 29.7168 6.39844 30.2129C6.96094 30.709 7.24219 31.3652 7.24219 32.1816C7.24219 33.0176 6.9668 33.668 6.41602 34.1328C5.86914 34.5977 5.10156 34.8301 4.11328 34.8301H2.34961ZM2.34961 33.6406H4.13086C4.6582 33.6406 5.06055 33.5176 5.33789 33.2715C5.61523 33.0215 5.75391 32.6621 5.75391 32.1934C5.75391 31.7324 5.61328 31.3652 5.33203 31.0918C5.05078 30.8145 4.66406 30.6719 4.17188 30.6641H2.34961V33.6406ZM11.7246 32.9609C11.5371 32.9297 11.3438 32.9141 11.1445 32.9141C10.4922 32.9141 10.0527 33.1641 9.82617 33.6641V38H8.40234V31.6602H9.76172L9.79688 32.3691C10.1406 31.8184 10.6172 31.543 11.2266 31.543C11.4297 31.543 11.5977 31.5703 11.7305 31.625L11.7246 32.9609ZM12.1465 34.7715C12.1465 34.1504 12.2695 33.5918 12.5156 33.0957C12.7617 32.5957 13.1074 32.2129 13.5527 31.9473C13.998 31.6777 14.5098 31.543 15.0879 31.543C15.9434 31.543 16.6367 31.8184 17.168 32.3691C17.7031 32.9199 17.9922 33.6504 18.0352 34.5605L18.041 34.8945C18.041 35.5195 17.9199 36.0781 17.6777 36.5703C17.4395 37.0625 17.0957 37.4434 16.6465 37.7129C16.2012 37.9824 15.6855 38.1172 15.0996 38.1172C14.2051 38.1172 13.4883 37.8203 12.9492 37.2266C12.4141 36.6289 12.1465 35.834 12.1465 34.8418V34.7715ZM13.5703 34.8945C13.5703 35.5469 13.7051 36.0586 13.9746 36.4297C14.2441 36.7969 14.6191 36.9805 15.0996 36.9805C15.5801 36.9805 15.9531 36.793 16.2188 36.418C16.4883 36.043 16.623 35.4941 16.623 34.7715C16.623 34.1309 16.4844 33.623 16.207 33.248C15.9336 32.873 15.5605 32.6855 15.0879 32.6855C14.623 32.6855 14.2539 32.8711 13.9805 33.2422C13.707 33.6094 13.5703 34.1602 13.5703 34.8945ZM19.623 38V32.7148H18.6562V31.6602H19.623V31.2266C19.627 30.7305 19.7324 30.3047 19.9395 29.9492C20.1465 29.5938 20.4395 29.3262 20.8184 29.1465C21.1973 28.9668 21.6523 28.877 22.1836 28.877C22.4961 28.877 22.7949 28.9102 23.0801 28.9766C23.3691 29.043 23.668 29.127 23.9766 29.2285L23.7598 30.4062C23.2207 30.2188 22.7285 30.125 22.2832 30.125C21.8496 30.125 21.5352 30.2207 21.3398 30.4121C21.1445 30.5996 21.0469 30.8828 21.0469 31.2617V31.6602H22.2949V32.7148H21.0469V38H19.623ZM24.6504 38H23.2266V31.6602H24.6504V38ZM27.7441 38H26.3203V29H27.7441V38ZM32.0918 38.1172C31.1895 38.1172 30.457 37.834 29.8945 37.2676C29.3359 36.6973 29.0566 35.9395 29.0566 34.9941V34.8184C29.0566 34.1855 29.1777 33.6211 29.4199 33.125C29.666 32.625 30.0098 32.2363 30.4512 31.959C30.8926 31.6816 31.3848 31.543 31.9277 31.543C32.791 31.543 33.457 31.8184 33.9258 32.3691C34.3984 32.9199 34.6348 33.6992 34.6348 34.707V35.2812H30.4922C30.5352 35.8047 30.709 36.2188 31.0137 36.5234C31.3223 36.8281 31.709 36.9805 32.1738 36.9805C32.8262 36.9805 33.3574 36.7168 33.7676 36.1895L34.5352 36.9219C34.2812 37.3008 33.9414 37.5957 33.5156 37.8066C33.0938 38.0137 32.6191 38.1172 32.0918 38.1172ZM31.9219 32.6855C31.5312 32.6855 31.2148 32.8223 30.9727 33.0957C30.7344 33.3691 30.582 33.75 30.5156 34.2383H33.2285V34.1328C33.1973 33.6562 33.0703 33.2969 32.8477 33.0547C32.625 32.8086 32.3164 32.6855 31.9219 32.6855Z" fill="#282C3F"/>
<path d="M17.0745 10.6071C17.9187 10.6085 18.7444 10.3573 19.447 9.88525C20.1496 9.41321 20.6976 8.74157 21.0216 7.95532C21.3456 7.16907 21.4311 6.30355 21.2672 5.46828C21.1034 4.63301 20.6975 3.86553 20.1011 3.26296C19.5046 2.6604 18.7443 2.24983 17.9165 2.08321C17.0886 1.91659 16.2303 2.0014 15.4502 2.32692C14.6701 2.65244 14.0033 3.20403 13.5342 3.9119C13.065 4.61977 12.8146 5.4521 12.8146 6.30356C12.8146 7.44373 13.2632 8.5373 14.0619 9.34417C14.8606 10.151 15.9441 10.6053 17.0745 10.6071ZM17.0745 3.40653C17.6446 3.40514 18.2022 3.57446 18.6768 3.89303C19.1513 4.2116 19.5215 4.66507 19.7403 5.196C19.959 5.72693 20.0166 6.31141 19.9058 6.87539C19.7949 7.43936 19.5205 7.95746 19.1174 8.36401C18.7143 8.77057 18.2007 9.0473 17.6415 9.15912C17.0823 9.27095 16.5028 9.21285 15.9764 8.99219C15.45 8.77152 15.0004 8.39822 14.6846 7.91958C14.3687 7.44095 14.2008 6.87852 14.2022 6.30356C14.204 5.53579 14.5072 4.79999 15.0455 4.25709C15.5838 3.71419 16.3133 3.40838 17.0745 3.40653ZM24.97 20.068C24.1374 22.2303 20.3493 23 17.0745 23C13.7998 23 10.0116 22.2303 9.17908 20.068C8.73504 18.9134 9.13051 17.1989 10.2128 15.5965C10.9657 14.4503 11.9838 13.5061 13.1792 12.8453C14.3747 12.1845 15.7116 11.8271 17.0745 11.8037C18.6832 11.8393 20.2487 12.335 21.5887 13.2332C22.9288 14.1313 23.9884 15.395 24.6439 16.877C24.6907 16.9619 24.7195 17.0557 24.7284 17.1524C24.7373 17.2491 24.7262 17.3467 24.6957 17.4388C24.6652 17.5309 24.616 17.6156 24.5513 17.6875C24.4865 17.7595 24.4077 17.817 24.3197 17.8565C24.2317 17.896 24.1365 17.9166 24.0402 17.9169C23.9439 17.9173 23.8486 17.8975 23.7603 17.8586C23.6721 17.8198 23.5928 17.7629 23.5275 17.6915C23.4622 17.6201 23.4124 17.5357 23.3812 17.4439C22.8254 16.2151 21.9406 15.1672 20.8264 14.418C19.7122 13.6688 18.4129 13.2481 17.0745 13.2033C15.938 13.2265 14.8242 13.5285 13.8293 14.0833C12.8344 14.638 11.9885 15.4288 11.3646 16.3872C10.4349 17.7517 10.2475 18.9903 10.4695 19.5641C10.9275 20.7467 13.7027 21.6005 17.0745 21.6005C20.4464 21.6005 23.2216 20.7467 23.6795 19.5641C23.7547 19.4046 23.8869 19.2797 24.0495 19.2143C24.2122 19.149 24.3934 19.1481 24.5567 19.2119C24.7199 19.2756 24.8533 19.3993 24.93 19.5581C25.0066 19.7169 25.0209 19.899 24.97 20.068Z" fill="#6B6E7B"/>
</svg>
