<svg width="58" height="71" viewBox="0 0 58 71" fill="none" xmlns="http://www.w3.org/2000/svg">
<path d="M7.44336 59.4688L10.2324 66.4297L13.0215 59.4688H14.4805V68H13.3555V64.6777L13.4609 61.0918L10.6602 68H9.79883L7.00391 61.1094L7.11523 64.6777V68H5.99023V59.4688H7.44336ZM18.3711 66.4121L19.8477 61.6602H21.0078L18.459 68.9785C18.0645 70.0332 17.4375 70.5605 16.5781 70.5605L16.373 70.543L15.9688 70.4668V69.5879L16.2617 69.6113C16.6289 69.6113 16.9141 69.5371 17.1172 69.3887C17.3242 69.2402 17.4941 68.9688 17.627 68.5742L17.8672 67.9297L15.6055 61.6602H16.7891L18.3711 66.4121ZM30.3125 64.9004C30.3125 65.8652 30.0918 66.6426 29.6504 67.2324C29.209 67.8223 28.6113 68.1172 27.8574 68.1172C27.0879 68.1172 26.4824 67.873 26.041 67.3848V70.4375H24.957V61.6602H25.9473L26 62.3633C26.4414 61.8164 27.0547 61.543 27.8398 61.543C28.6016 61.543 29.2031 61.8301 29.6445 62.4043C30.0898 62.9785 30.3125 63.7773 30.3125 64.8008V64.9004ZM29.2285 64.7773C29.2285 64.0625 29.0762 63.498 28.7715 63.084C28.4668 62.6699 28.0488 62.4629 27.5176 62.4629C26.8613 62.4629 26.3691 62.7539 26.041 63.3359V66.3652C26.3652 66.9434 26.8613 67.2324 27.5293 67.2324C28.0488 67.2324 28.4609 67.0273 28.7656 66.6172C29.0742 66.2031 29.2285 65.5898 29.2285 64.7773ZM34.7598 62.6328C34.5957 62.6055 34.418 62.5918 34.2266 62.5918C33.5156 62.5918 33.0332 62.8945 32.7793 63.5V68H31.6953V61.6602H32.75L32.7676 62.3926C33.123 61.8262 33.627 61.543 34.2793 61.543C34.4902 61.543 34.6504 61.5703 34.7598 61.625V62.6328ZM35.3574 64.7715C35.3574 64.1504 35.4785 63.5918 35.7207 63.0957C35.9668 62.5996 36.3066 62.2168 36.7402 61.9473C37.1777 61.6777 37.6758 61.543 38.2344 61.543C39.0977 61.543 39.7949 61.8418 40.3262 62.4395C40.8613 63.0371 41.1289 63.832 41.1289 64.8242V64.9004C41.1289 65.5176 41.0098 66.0723 40.7715 66.5645C40.5371 67.0527 40.1992 67.4336 39.7578 67.707C39.3203 67.9805 38.8164 68.1172 38.2461 68.1172C37.3867 68.1172 36.6895 67.8184 36.1543 67.2207C35.623 66.623 35.3574 65.832 35.3574 64.8477V64.7715ZM36.4473 64.9004C36.4473 65.6035 36.6094 66.168 36.9336 66.5938C37.2617 67.0195 37.6992 67.2324 38.2461 67.2324C38.7969 67.2324 39.2344 67.0176 39.5586 66.5879C39.8828 66.1543 40.0449 65.5488 40.0449 64.7715C40.0449 64.0762 39.8789 63.5137 39.5469 63.084C39.2188 62.6504 38.7812 62.4336 38.2344 62.4336C37.6992 62.4336 37.2676 62.6465 36.9395 63.0723C36.6113 63.498 36.4473 64.1074 36.4473 64.9004ZM42.8516 68V62.498H41.8496V61.6602H42.8516V61.1211C42.8516 60.4141 43.0527 59.8633 43.4551 59.4688C43.8613 59.0742 44.4336 58.877 45.1719 58.877C45.6094 58.877 46.1621 58.9961 46.8301 59.2344L46.6484 60.1484C46.1602 59.9531 45.6953 59.8555 45.2539 59.8555C44.7891 59.8555 44.4531 59.9609 44.2461 60.1719C44.043 60.3789 43.9414 60.6914 43.9414 61.1094V61.6602H45.2363V62.498H43.9414V68H42.8516ZM47.3691 68H46.2793V61.6602H47.3691V68ZM50.3105 68H49.2266V59H50.3105V68ZM54.6816 68.1172C53.8223 68.1172 53.123 67.8359 52.584 67.2734C52.0449 66.707 51.7754 65.9512 51.7754 65.0059V64.8066C51.7754 64.1777 51.8945 63.6172 52.1328 63.125C52.375 62.6289 52.7109 62.2422 53.1406 61.9648C53.5742 61.6836 54.043 61.543 54.5469 61.543C55.3711 61.543 56.0117 61.8145 56.4688 62.3574C56.9258 62.9004 57.1543 63.6777 57.1543 64.6895V65.1406H52.8594C52.875 65.7656 53.0566 66.2715 53.4043 66.6582C53.7559 67.041 54.2012 67.2324 54.7402 67.2324C55.123 67.2324 55.4473 67.1543 55.7129 66.998C55.9785 66.8418 56.2109 66.6348 56.4102 66.377L57.0723 66.8926C56.541 67.709 55.7441 68.1172 54.6816 68.1172ZM54.5469 62.4336C54.1094 62.4336 53.7422 62.5938 53.4453 62.9141C53.1484 63.2305 52.9648 63.6758 52.8945 64.25H56.0703V64.168C56.0391 63.6172 55.8906 63.1914 55.625 62.8906C55.3594 62.5859 55 62.4336 54.5469 62.4336Z" fill="white"/>
<g filter="url(#filter0_d)">
<rect x="5" y="5" width="40" height="40" rx="5" fill="white"/>
</g>
<path d="M25.0745 22.6071C25.9187 22.6085 26.7444 22.3573 27.447 21.8853C28.1496 21.4132 28.6976 20.7416 29.0216 19.9553C29.3456 19.1691 29.4311 18.3035 29.2672 17.4683C29.1034 16.633 28.6975 15.8655 28.1011 15.263C27.5046 14.6604 26.7443 14.2498 25.9165 14.0832C25.0886 13.9166 24.2303 14.0014 23.4502 14.3269C22.6701 14.6524 22.0033 15.204 21.5342 15.9119C21.065 16.6198 20.8146 17.4521 20.8146 18.3036C20.8146 19.4437 21.2632 20.5373 22.0619 21.3442C22.8606 22.151 23.9441 22.6053 25.0745 22.6071ZM25.0745 15.4065C25.6446 15.4051 26.2022 15.5745 26.6768 15.893C27.1513 16.2116 27.5215 16.6651 27.7403 17.196C27.959 17.7269 28.0166 18.3114 27.9058 18.8754C27.7949 19.4394 27.5205 19.9575 27.1174 20.364C26.7143 20.7706 26.2007 21.0473 25.6415 21.1591C25.0823 21.271 24.5028 21.2129 23.9764 20.9922C23.45 20.7715 23.0004 20.3982 22.6846 19.9196C22.3687 19.4409 22.2008 18.8785 22.2022 18.3036C22.204 17.5358 22.5072 16.8 23.0455 16.2571C23.5838 15.7142 24.3133 15.4084 25.0745 15.4065ZM32.97 32.068C32.1374 34.2303 28.3493 35 25.0745 35C21.7998 35 18.0116 34.2303 17.1791 32.068C16.735 30.9134 17.1305 29.1989 18.2128 27.5965C18.9657 26.4503 19.9838 25.5061 21.1792 24.8453C22.3747 24.1845 23.7116 23.8271 25.0745 23.8037C26.6832 23.8393 28.2487 24.335 29.5887 25.2332C30.9288 26.1313 31.9884 27.395 32.6439 28.877C32.6907 28.9619 32.7195 29.0557 32.7284 29.1524C32.7373 29.2491 32.7262 29.3467 32.6957 29.4388C32.6652 29.5309 32.616 29.6156 32.5513 29.6875C32.4865 29.7595 32.4077 29.817 32.3197 29.8565C32.2317 29.896 32.1365 29.9166 32.0402 29.9169C31.9439 29.9173 31.8486 29.8975 31.7603 29.8586C31.6721 29.8198 31.5928 29.7629 31.5275 29.6915C31.4622 29.6201 31.4124 29.5357 31.3812 29.4439C30.8254 28.2151 29.9406 27.1672 28.8264 26.418C27.7122 25.6688 26.4129 25.2481 25.0745 25.2033C23.938 25.2265 22.8242 25.5285 21.8293 26.0833C20.8344 26.638 19.9885 27.4288 19.3646 28.3872C18.4349 29.7517 18.2475 30.9903 18.4695 31.5641C18.9275 32.7467 21.7027 33.6005 25.0745 33.6005C28.4464 33.6005 31.2216 32.7467 31.6795 31.5641C31.7547 31.4046 31.8869 31.2797 32.0495 31.2143C32.2122 31.149 32.3934 31.1481 32.5567 31.2119C32.7199 31.2756 32.8533 31.3993 32.93 31.5581C33.0066 31.7169 33.0209 31.899 32.97 32.068Z" fill="#6B6E7B"/>
<defs>
<filter id="filter0_d" x="0" y="0" width="50" height="50" filterUnits="userSpaceOnUse" color-interpolation-filters="sRGB">
<feFlood flood-opacity="0" result="BackgroundImageFix"/>
<feColorMatrix in="SourceAlpha" type="matrix" values="0 0 0 0 0 0 0 0 0 0 0 0 0 0 0 0 0 0 127 0"/>
<feOffset/>
<feGaussianBlur stdDeviation="2.5"/>
<feColorMatrix type="matrix" values="0 0 0 0 0 0 0 0 0 0 0 0 0 0 0 0 0 0 0.1 0"/>
<feBlend mode="normal" in2="BackgroundImageFix" result="effect1_dropShadow"/>
<feBlend mode="normal" in="SourceGraphic" in2="effect1_dropShadow" result="shape"/>
</filter>
</defs>
</svg>
