<?xml version="1.0" encoding="UTF-8"?>
<svg width="66px" height="80px" viewBox="0 0 66 80" version="1.1" xmlns="http://www.w3.org/2000/svg" xmlns:xlink="http://www.w3.org/1999/xlink">
    <!-- Generator: Sketch 52 (66869) - http://www.bohemiancoding.com/sketch -->
    <title>4</title>
    <desc>Created with Sketch.</desc>
    <g id="Page-1" stroke="none" stroke-width="1" fill="none" fill-rule="evenodd">
        <path d="M39.771029,12.4999499 L39.771029,80 L38.1366633,80 L38.1366633,12.4999499 L39.771029,12.4999499 Z M62.4587413,5.039209 C61.1352647,6.8879485 59.7478521,8.76316159 58.2949051,10.664046 C56.841958,12.5653316 55.3758242,14.4144722 53.8973027,16.2110668 C52.4183816,18.0080624 51.0045954,19.6353864 49.6555445,21.0938409 L49.4997003,21.1724594 C47.8913087,21.5888169 46.827972,20.6770823 46.3088911,18.4376567 C46.1010989,17.4481057 45.6475524,16.055033 44.9470529,14.2580373 C44.2465534,12.4610417 43.2475524,10.4947755 41.9504496,8.3596398 C41.172028,7.00547522 40.224975,5.62523816 39.1092907,4.21892862 C37.994006,2.81261908 36.7616384,1.40630954 35.4125874,0 L37.2027972,0 C38.447952,1.25027577 39.5508492,2.5262229 40.5102897,3.82824251 C41.4701299,5.13026213 42.3392607,6.40661038 43.1176823,7.65648503 C44.4667333,9.89591063 45.4917083,11.9403943 46.1922078,13.7891338 C46.8927073,15.6382744 47.3726274,17.0834921 47.631968,18.125188 C47.8393606,19.2186278 48.0467532,19.8311305 48.2545455,19.9610918 C48.4623377,20.0914542 48.6177822,20.1564349 48.7216783,20.1564349 C50.0187812,18.7501253 51.3678322,17.2006177 52.7688312,15.507912 C54.1698302,13.8156074 55.5576424,12.0703556 56.9326673,10.2737611 C58.3076923,8.47676541 59.6307692,6.69300656 60.9018981,4.92208339 C62.1734266,3.15116023 63.3278721,1.51059947 64.3652348,0 L66,0 C64.9622378,1.51059947 63.7814186,3.19006839 62.4587413,5.039209 Z M32.9222777,5.00030084 C33.4929071,5.00030084 33.9856144,5.20847957 34.4007992,5.62523816 C34.815984,6.04199675 35.0237762,6.53657167 35.0237762,7.10976515 C35.0237762,7.73470247 34.815984,8.24211307 34.4007992,8.6332003 C33.9856144,9.02348529 33.4929071,9.21922946 32.9222777,9.21922946 C32.3512488,9.21922946 31.8457542,9.02348529 31.4041958,8.6332003 C30.963037,8.24211307 30.7428571,7.73470247 30.7428571,7.10976515 C30.7428571,6.53657167 30.963037,6.04199675 31.4041958,5.62523816 C31.8457542,5.20847957 32.3512488,5.00030084 32.9222777,5.00030084 Z M34.6341658,57.9687531 C35.1012987,58.4376567 35.3346653,59.0369226 35.3346653,59.7657488 C35.3346653,60.3910872 35.1012987,60.9378071 34.6341658,61.4067107 C34.1674326,61.8752131 33.5964036,62.1098654 32.9222777,62.1098654 C32.2473526,62.1098654 31.6771229,61.8752131 31.20999,61.4067107 C30.7428571,60.9378071 30.5094905,60.3910872 30.5094905,59.7657488 C30.5094905,59.0369226 30.7428571,58.4376567 31.20999,57.9687531 C31.6771229,57.4998496 32.2473526,57.2655984 32.9222777,57.2655984 C33.5964036,57.2655984 34.1674326,57.4998496 34.6341658,57.9687531 Z M34.6341658,27.0315477 C35.1012987,27.5000501 35.3346653,28.0471711 35.3346653,28.6717073 C35.3346653,29.3491908 35.1012987,29.9352199 34.6341658,30.4297948 C34.1674326,30.9247709 33.5964036,31.1718578 32.9222777,31.1718578 C32.2473526,31.1718578 31.6771229,30.9247709 31.20999,30.4297948 C30.7428571,29.9352199 30.5094905,29.3491908 30.5094905,28.6717073 C30.5094905,28.0471711 30.7428571,27.5000501 31.20999,27.0315477 C31.6771229,26.5626442 32.2473526,26.3283929 32.9222777,26.3283929 C33.5964036,26.3283929 34.1674326,26.5626442 34.6341658,27.0315477 Z M28.0967033,12.4999499 L28.0967033,80 L25.6839161,80 L25.6839161,12.4999499 L28.0967033,12.4999499 Z M28.835964,11.6407613 C30.8855145,11.8489401 33.2203796,11.8754136 35.840959,11.7189788 C38.4607393,11.562945 41.1460539,10.9897515 43.8961039,10.0002006 L44.2853147,11.2500752 C41.4837163,12.2917711 38.7072927,12.890636 35.9576424,13.0470709 C33.2075924,13.2031046 30.7688312,13.1641965 28.6413586,12.9299452 C26.5142857,12.695694 24.1534466,12.2139548 21.5588412,11.4843264 L21.9480519,10.2344518 C24.4903097,10.963679 26.7864136,11.4321815 28.835964,11.6407613 Z M26.579021,4.21892862 C25.4633367,5.62523816 24.4903097,6.97940274 23.6603397,8.28142235 C22.4671329,10.2605243 21.5328671,12.0575199 20.8583417,13.6720082 C20.1838162,15.2868976 19.7426573,16.6145886 19.5352647,17.6566856 C19.0165834,19.8439662 17.9264735,20.7292273 16.2661339,20.3128698 L16.1882118,20.2346523 C14.8391608,18.8283428 13.4253746,17.2527627 11.9464535,15.507912 C10.4679321,13.7634624 9.01498501,11.9797036 7.58801199,10.1566354 C6.16143856,8.33356732 4.7992008,6.54940735 3.5020979,4.80495778 C2.2045954,3.0601071 1.03736264,1.4584545 0,0 L1.63436563,0 C2.67172827,1.40630954 3.82657343,2.95581717 5.0977023,4.64852289 C6.36883117,6.34122862 7.67872128,8.04717114 9.02777223,9.76594934 C10.3768232,11.4843264 11.7522478,13.1641965 13.1532468,14.8051583 C14.5542458,16.445318 15.8769231,17.9430818 17.1224775,19.2972463 C17.2263736,19.2972463 17.369031,19.2186278 17.5504496,19.0629951 C17.7322677,18.9065602 17.9528472,18.3333668 18.2121878,17.3442169 C18.4195804,16.302521 18.8739261,14.9222839 19.5744256,13.2031046 C20.2745255,11.4843264 21.2731269,9.60951445 22.5706294,7.57826758 C23.3490509,6.3805379 24.230969,5.14349893 25.2171828,3.86755179 C26.2025974,2.59120355 27.3182817,1.30201961 28.5638362,0 L30.4311688,0 C28.9786214,1.40630954 27.6943057,2.81261908 26.579021,4.21892862 Z" id="4" fill="#231F20"></path>
    </g>
</svg>