<?xml version="1.0" encoding="UTF-8"?>
<svg width="69px" height="84px" viewBox="0 0 69 84" version="1.1" xmlns="http://www.w3.org/2000/svg" xmlns:xlink="http://www.w3.org/1999/xlink">
    <!-- Generator: Sketch 52 (66869) - http://www.bohemiancoding.com/sketch -->
    <title>6</title>
    <desc>Created with Sketch.</desc>
    <g id="Page-1" stroke="none" stroke-width="1" fill="none" fill-rule="evenodd">
        <path d="M39.3821996,13.1249474 L39.3821996,84 L37.6731269,84 L37.6731269,13.1249474 L39.3821996,13.1249474 Z M65.297775,5.29116945 C63.9141404,7.23234592 62.4636636,9.20131967 60.9446735,11.1972484 C59.4256834,13.1935982 57.8929071,15.1351958 56.3471801,17.0216201 C54.8010353,18.9084655 53.3229861,20.6171557 51.9126147,22.1485329 L51.8315684,22.2310824 C50.095341,22.6682578 48.9565162,21.7109364 48.4138407,19.3595395 C48.1966034,18.320511 47.7224412,16.8577846 46.9901008,14.9709392 C46.2577604,13.084515 45.2405049,11.0195142 43.9387522,8.77762179 C43.0706385,7.35574898 42.0667514,5.8930226 40.9279266,4.38860031 C39.788684,2.88502036 38.4869313,1.42187281 37.0222505,0 L38.9752974,0 C40.2227409,1.31278955 41.3619835,2.65253404 42.3926074,4.01965464 C43.4232313,5.38677524 44.3180819,6.7269409 45.077577,8.03930928 C46.4879484,10.3907062 47.5595132,12.537414 48.2918536,14.4785905 C49.024194,16.4201881 49.5259286,17.9376667 49.7970575,19.0314474 C50.0681864,20.1256493 50.3125783,20.7544574 50.5293979,20.9178717 C50.7462174,21.0821283 50.8819907,21.1642566 50.9363001,21.1642566 C52.2923622,19.6876316 53.7027336,18.0606486 55.1674144,16.2833076 C56.6320952,14.5063878 58.0829897,12.6738734 59.5205158,10.7874491 C60.958042,8.90060368 62.3412587,7.02765689 63.6701662,5.16818756 C64.9994914,3.30871824 66.2331487,1.58612944 67.372809,0 L69,0 C67.9150668,1.58612944 66.680574,3.34957181 65.297775,5.29116945 Z M35.9644719,5.90650007 C36.3985287,6.34409659 36.6157661,6.86340025 36.6157661,7.4652534 C36.6157661,8.1214376 36.3985287,8.66811737 35.9644719,9.10529271 C35.530415,9.5433104 35.015312,9.76189808 34.4187449,9.76189808 C33.8217601,9.76189808 33.306657,9.5433104 32.8726001,9.10529271 C32.4385433,8.66811737 32.2217237,8.1214376 32.2217237,7.4652534 C32.2217237,6.86340025 32.4385433,6.34409659 32.8726001,5.90650007 C33.306657,5.46890355 33.8217601,5.25031588 34.4187449,5.25031588 C35.015312,5.25031588 35.530415,5.46890355 35.9644719,5.90650007 Z M34.4187449,60.2110066 C35.1235129,60.2110066 35.7204977,60.4573915 36.2084461,60.9493191 C36.6968123,61.4416678 36.9407865,62.0430998 36.9407865,62.7540362 C36.9407865,63.4106416 36.6968123,63.9846975 36.2084461,64.4770462 C35.7204977,64.9689737 35.1235129,65.2153587 34.4187449,65.2153587 C33.7131414,65.2153587 33.1169921,64.9689737 32.6286259,64.4770462 C32.1402597,63.9846975 31.8962855,63.4106416 31.8962855,62.7540362 C31.8962855,62.0430998 32.1402597,61.4416678 32.6286259,60.9493191 C33.1169921,60.4573915 33.7131414,60.2110066 34.4187449,60.2110066 Z M34.4187449,27.6448126 C35.1235129,27.6448126 35.7204977,27.8907764 36.2084461,28.3831251 C36.6968123,28.8750526 36.9407865,29.4764846 36.9407865,30.1878422 C36.9407865,30.8436052 36.6968123,31.4319809 36.2084461,31.9512846 C35.7204977,32.4710094 35.1235129,32.7308718 34.4187449,32.7308718 C33.7131414,32.7308718 33.1169921,32.4710094 32.6286259,31.9512846 C32.1402597,31.4319809 31.8962855,30.8436052 31.8962855,30.1878422 C31.8962855,29.4764846 32.1402597,28.8750526 32.6286259,28.3831251 C33.1169921,27.8907764 33.7131414,27.6448126 34.4187449,27.6448126 Z M31.5704296,13.1249474 L31.5704296,84 L29.0479702,84 L29.0479702,13.1249474 L31.5704296,13.1249474 Z M30.1466897,12.2227994 C32.2894015,12.4413871 34.7303969,12.4691843 37.4700935,12.3049277 C40.2089547,12.1410922 43.0163291,11.5392391 45.8913813,10.5002106 L46.3797475,11.812579 C43.3960767,12.9063597 40.4805013,13.5351678 37.6326038,13.6994244 C34.7847062,13.8632599 32.2350922,13.8228275 29.9841795,13.5764425 C27.732849,13.3304787 25.9293615,13.0297627 24.5728817,12.6738734 C23.2168195,12.3184052 22.5116338,12.1410922 22.4573245,12.1410922 L22.9456907,10.7461744 C25.6035056,11.511863 28.0039778,12.0042117 30.1466897,12.2227994 Z M27.8682045,4.42987505 C26.702225,5.90650007 25.6578149,7.35574898 24.7358096,8.77762179 C23.4883662,10.8009266 22.5116338,12.6603959 21.8064481,14.3556086 C21.1012624,16.0512425 20.6400509,17.418363 20.4232313,18.4573915 C19.8809736,20.8092096 19.1891563,21.875193 18.3481973,21.6561842 C17.5072382,21.4380177 17.0598129,21.3285133 17.0055036,21.3285133 L16.9240396,21.246385 C15.5136682,19.7697599 14.0494051,18.1154008 12.530415,16.2833076 C11.0114249,14.4516355 9.50622105,12.5786888 8.01438561,10.6644672 C6.52255018,8.75024568 5.08544183,6.87687772 3.70180728,5.04520567 C2.3185905,3.21311245 1.08451548,1.53137723 0,0 L1.70865498,0 C2.79317047,1.53137723 4.00050858,3.17225888 5.32941604,4.92222378 C6.65832349,6.67218868 8.02775406,8.44952969 9.43812551,10.2542468 C10.848497,12.0585427 12.2726546,13.8228275 13.7101807,15.5454163 C15.1472891,17.2675839 16.5442921,18.8402359 17.900772,20.2621087 C17.9550813,20.3168609 18.104223,20.2621087 18.3481973,20.097852 C18.5925892,19.9335954 18.823195,19.2778324 19.0400145,18.1288783 C19.3111434,17.0898498 19.7995096,15.6683981 20.5046953,13.8632599 C21.209881,12.0585427 22.2400872,10.0899902 23.5965671,7.95718096 C24.4103714,6.69956479 25.3323767,5.40067387 26.3634184,4.06092938 C27.3936246,2.72076372 28.5600218,1.3671206 29.8621924,0 L31.8144038,0 C30.3501408,1.47662502 29.034184,2.95325004 27.8682045,4.42987505 Z" id="6" fill="#000000"></path>
    </g>
</svg>