<?xml version="1.0" standalone="no"?>
<!DOCTYPE svg PUBLIC "-//W3C//DTD SVG 20010904//EN"
 "http://www.w3.org/TR/2001/REC-SVG-20010904/DTD/svg10.dtd">
<svg version="1.0" xmlns="http://www.w3.org/2000/svg"
 width="920.000000pt" height="920.000000pt" viewBox="0 0 920.000000 920.000000"
 preserveAspectRatio="xMidYMid meet">
<metadata>
Created by potrace 1.11, written by Peter Selinger 2001-2013
</metadata>
<g transform="translate(0.000000,920.000000) scale(0.100000,-0.100000)"
fill="#000000" stroke="none">
<path d="M26 7275 c-26 -105 -27 -3213 -1 -3400 2 -16 6 -46 9 -65 10 -73 17
-116 23 -140 3 -14 7 -27 8 -30 0 -3 5 -23 10 -45 4 -22 9 -44 11 -50 35 -150
174 -475 245 -577 11 -14 19 -29 19 -32 0 -9 43 -70 53 -74 4 -2 7 -8 7 -13 0
-24 137 -187 265 -314 95 -94 283 -246 343 -276 15 -7 34 -19 42 -25 30 -25
274 -145 325 -160 6 -2 37 -13 70 -25 50 -18 201 -63 228 -68 4 0 8 -1 10 -2
9 -3 38 -8 77 -13 25 -4 52 -9 60 -11 106 -31 581 -24 700 10 8 2 31 7 50 10
99 17 376 116 469 167 20 11 54 30 76 41 22 12 43 27 47 32 4 6 8 7 8 3 0 -7
59 29 87 52 7 5 17 10 23 10 6 0 13 7 16 15 4 8 11 15 18 15 6 0 25 11 41 25
17 13 67 54 112 90 91 72 261 238 338 330 27 33 58 67 67 76 10 9 18 21 18 27
0 6 4 12 8 14 5 1 31 35 60 73 28 39 56 75 62 82 5 7 10 14 10 17 0 3 18 34
40 68 22 35 40 69 40 76 0 6 4 12 8 12 4 0 13 12 19 28 6 15 30 70 53 122 37
84 74 190 96 275 4 17 8 35 10 40 18 63 42 231 49 338 2 37 6 71 9 76 3 4 -1
16 -8 27 -13 17 -37 18 -456 19 -243 0 -444 -4 -447 -9 -3 -4 -7 -34 -9 -65
-5 -91 -12 -144 -29 -218 -3 -13 -7 -33 -10 -44 -15 -69 -87 -248 -117 -292
-11 -15 -16 -27 -11 -27 4 0 3 -4 -3 -8 -5 -4 -21 -25 -34 -47 -29 -48 -26
-43 -94 -125 -85 -104 -280 -270 -315 -270 -6 0 -11 -4 -11 -8 0 -19 -236
-117 -355 -148 -198 -52 -469 -68 -615 -38 -36 8 -74 16 -85 18 -72 14 -329
140 -355 174 -3 4 -24 22 -48 40 -23 18 -66 58 -95 89 -28 31 -60 64 -69 74
-39 42 -134 191 -178 279 -59 120 -109 279 -137 430 -3 19 -7 778 -9 1685 -2
908 -3 1658 -4 1668 0 16 -27 17 -419 17 l-419 0 -6 -25z"/>
<path d="M6092 7270 l-343 -5 45 -50 c24 -28 64 -71 88 -96 24 -26 71 -77 104
-115 34 -38 72 -81 85 -95 13 -14 60 -65 104 -114 44 -48 91 -100 105 -115 14
-15 59 -64 100 -110 41 -46 94 -104 117 -129 l42 -46 1328 0 1328 0 0 437 c0
383 -2 438 -15 439 -91 3 -2832 3 -3088 -1z"/>
<path d="M5579 4575 c-1 -22 -1 -44 0 -48 1 -4 4 -238 6 -520 3 -282 8 -726
11 -987 3 -261 5 -482 4 -490 -1 -44 2 -105 5 -109 3 -2 0 -10 -6 -18 -6 -7
-8 -13 -3 -13 5 0 9 -103 9 -229 l0 -229 453 -1 452 0 0 890 0 889 23 0 c12 1
604 1 1314 1 l1293 1 -1 66 c0 37 0 72 1 77 1 6 2 14 0 20 -2 11 -2 206 1 220
1 6 0 15 -1 20 -3 12 -2 211 1 223 1 4 0 12 -1 17 -7 31 -6 56 1 61 4 2 5 12
2 20 -3 9 -6 53 -7 98 l-1 81 -1777 0 -1778 0 -1 -40z"/>
</g>
</svg>
