<svg width="241" height="90" viewBox="0 0 241 90" fill="none" xmlns="http://www.w3.org/2000/svg">
<path d="M56 73C58.2086 73 80.8683 62.7747 81 27.8742C81.0004 27.7695 80.9758 27.6664 80.9285 27.5738C80.8812 27.4812 80.8126 27.4019 80.7287 27.343C70.3119 20.1299 57.1299 17 56 17C54.8701 17 41.6881 20.1299 31.2713 27.343C31.1874 27.4019 31.1188 27.4812 31.0715 27.5738C31.0242 27.6664 30.9996 27.7695 31 27.8742C31.1318 62.7747 53.7915 73 56 73ZM43.4079 44.54L45.9569 41.9119C46.0716 41.7937 46.2272 41.7272 46.3894 41.7272C46.5517 41.7272 46.7073 41.7937 46.822 41.9119L53.3744 48.668L65.178 36.4982C65.2348 36.4397 65.3022 36.3932 65.3764 36.3615C65.4507 36.3298 65.5302 36.3135 65.6106 36.3135C65.6909 36.3135 65.7704 36.3298 65.8447 36.3615C65.9189 36.3932 65.9863 36.4397 66.0431 36.4983L68.5916 39.1263C68.7063 39.2446 68.7708 39.405 68.7707 39.5723C68.7707 39.7395 68.7063 39.8999 68.5916 40.0182L53.807 55.2615C53.6923 55.3798 53.5367 55.4463 53.3744 55.4463C53.2122 55.4463 53.0566 55.3798 52.9419 55.2615L43.4079 45.432C43.3511 45.3734 43.306 45.3039 43.2753 45.2274C43.2446 45.1508 43.2287 45.0688 43.2287 44.986C43.2287 44.9032 43.2446 44.8212 43.2753 44.7446C43.306 44.6681 43.3511 44.5986 43.4079 44.54Z" fill="#03A685"/>
<path d="M103.988 53H101.152V39.3008L96.9688 40.7305V38.3281L103.625 35.8789H103.988V53ZM121.039 45.8164C121.039 48.2695 120.578 50.1211 119.656 51.3711C118.742 52.6133 117.348 53.2344 115.473 53.2344C113.629 53.2344 112.238 52.6289 111.301 51.418C110.371 50.1992 109.895 48.3984 109.871 46.0156V43.0625C109.871 40.6094 110.328 38.7695 111.242 37.543C112.164 36.3164 113.566 35.7031 115.449 35.7031C117.316 35.7031 118.707 36.3008 119.621 37.4961C120.543 38.6914 121.016 40.4805 121.039 42.8633V45.8164ZM118.191 42.6289C118.191 41.0273 117.973 39.8555 117.535 39.1133C117.098 38.3633 116.402 37.9883 115.449 37.9883C114.52 37.9883 113.836 38.3438 113.398 39.0547C112.961 39.7578 112.73 40.8594 112.707 42.3594V46.2266C112.707 47.8203 112.93 49.0078 113.375 49.7891C113.82 50.5703 114.52 50.9609 115.473 50.9609C116.387 50.9609 117.062 50.6016 117.5 49.8828C117.938 49.1562 118.168 48.0234 118.191 46.4844V42.6289ZM134.68 45.8164C134.68 48.2695 134.219 50.1211 133.297 51.3711C132.383 52.6133 130.988 53.2344 129.113 53.2344C127.27 53.2344 125.879 52.6289 124.941 51.418C124.012 50.1992 123.535 48.3984 123.512 46.0156V43.0625C123.512 40.6094 123.969 38.7695 124.883 37.543C125.805 36.3164 127.207 35.7031 129.09 35.7031C130.957 35.7031 132.348 36.3008 133.262 37.4961C134.184 38.6914 134.656 40.4805 134.68 42.8633V45.8164ZM131.832 42.6289C131.832 41.0273 131.613 39.8555 131.176 39.1133C130.738 38.3633 130.043 37.9883 129.09 37.9883C128.16 37.9883 127.477 38.3438 127.039 39.0547C126.602 39.7578 126.371 40.8594 126.348 42.3594V46.2266C126.348 47.8203 126.57 49.0078 127.016 49.7891C127.461 50.5703 128.16 50.9609 129.113 50.9609C130.027 50.9609 130.703 50.6016 131.141 49.8828C131.578 49.1562 131.809 48.0234 131.832 46.4844V42.6289ZM137.082 39.2188C137.082 38.1875 137.414 37.3438 138.078 36.6875C138.742 36.0234 139.613 35.6914 140.691 35.6914C141.785 35.6914 142.66 36.0234 143.316 36.6875C143.98 37.3438 144.312 38.207 144.312 39.2773V40.1211C144.312 41.1445 143.98 41.9844 143.316 42.6406C142.66 43.2969 141.793 43.625 140.715 43.625C139.66 43.625 138.789 43.3047 138.102 42.6641C137.422 42.0156 137.082 41.1445 137.082 40.0508V39.2188ZM139.074 40.1211C139.074 40.6602 139.223 41.0977 139.52 41.4336C139.824 41.7617 140.223 41.9258 140.715 41.9258C141.199 41.9258 141.59 41.7617 141.887 41.4336C142.184 41.0977 142.332 40.6445 142.332 40.0742V39.2188C142.332 38.6797 142.18 38.2422 141.875 37.9062C141.578 37.5703 141.184 37.4023 140.691 37.4023C140.199 37.4023 139.805 37.5742 139.508 37.918C139.219 38.2539 139.074 38.6992 139.074 39.2539V40.1211ZM145.285 48.8164C145.285 47.7695 145.625 46.9219 146.305 46.2734C146.984 45.625 147.852 45.3008 148.906 45.3008C149.969 45.3008 150.836 45.625 151.508 46.2734C152.188 46.9219 152.527 47.7969 152.527 48.8984V49.7305C152.527 50.7461 152.199 51.5859 151.543 52.25C150.895 52.9062 150.023 53.2344 148.93 53.2344C147.836 53.2344 146.953 52.9102 146.281 52.2617C145.617 51.6055 145.285 50.7422 145.285 49.6719V48.8164ZM147.277 49.7305C147.277 50.2617 147.43 50.6992 147.734 51.043C148.047 51.3789 148.445 51.5469 148.93 51.5469C149.43 51.5469 149.82 51.3867 150.102 51.0664C150.391 50.7383 150.535 50.2812 150.535 49.6953V48.8164C150.535 48.2695 150.383 47.832 150.078 47.5039C149.773 47.1758 149.383 47.0117 148.906 47.0117C148.422 47.0117 148.027 47.1758 147.723 47.5039C147.426 47.832 147.277 48.2852 147.277 48.8633V49.7305ZM141.301 51.7227L139.836 50.8789L148.168 37.543L149.633 38.3867L141.301 51.7227ZM170.176 48.6055C170.176 47.8555 169.91 47.2773 169.379 46.8711C168.855 46.4648 167.906 46.0547 166.531 45.6406C165.156 45.2266 164.062 44.7656 163.25 44.2578C161.695 43.2812 160.918 42.0078 160.918 40.4375C160.918 39.0625 161.477 37.9297 162.594 37.0391C163.719 36.1484 165.176 35.7031 166.965 35.7031C168.152 35.7031 169.211 35.9219 170.141 36.3594C171.07 36.7969 171.801 37.4219 172.332 38.2344C172.863 39.0391 173.129 39.9336 173.129 40.918H170.176C170.176 40.0273 169.895 39.332 169.332 38.832C168.777 38.3242 167.98 38.0703 166.941 38.0703C165.973 38.0703 165.219 38.2773 164.68 38.6914C164.148 39.1055 163.883 39.6836 163.883 40.4258C163.883 41.0508 164.172 41.5742 164.75 41.9961C165.328 42.4102 166.281 42.8164 167.609 43.2148C168.938 43.6055 170.004 44.0547 170.809 44.5625C171.613 45.0625 172.203 45.6406 172.578 46.2969C172.953 46.9453 173.141 47.707 173.141 48.582C173.141 50.0039 172.594 51.1367 171.5 51.9805C170.414 52.8164 168.938 53.2344 167.07 53.2344C165.836 53.2344 164.699 53.0078 163.66 52.5547C162.629 52.0938 161.824 51.4609 161.246 50.6562C160.676 49.8516 160.391 48.9141 160.391 47.8438H163.355C163.355 48.8125 163.676 49.5625 164.316 50.0938C164.957 50.625 165.875 50.8906 167.07 50.8906C168.102 50.8906 168.875 50.6836 169.391 50.2695C169.914 49.8477 170.176 49.293 170.176 48.6055ZM181.051 53.2344C179.246 53.2344 177.781 52.668 176.656 51.5352C175.539 50.3945 174.98 48.8789 174.98 46.9883V46.6367C174.98 45.3711 175.223 44.2422 175.707 43.25C176.199 42.25 176.887 41.4727 177.77 40.918C178.652 40.3633 179.637 40.0859 180.723 40.0859C182.449 40.0859 183.781 40.6367 184.719 41.7383C185.664 42.8398 186.137 44.3984 186.137 46.4141V47.5625H177.852C177.938 48.6094 178.285 49.4375 178.895 50.0469C179.512 50.6562 180.285 50.9609 181.215 50.9609C182.52 50.9609 183.582 50.4336 184.402 49.3789L185.938 50.8438C185.43 51.6016 184.75 52.1914 183.898 52.6133C183.055 53.0273 182.105 53.2344 181.051 53.2344ZM180.711 42.3711C179.93 42.3711 179.297 42.6445 178.812 43.1914C178.336 43.7383 178.031 44.5 177.898 45.4766H183.324V45.2656C183.262 44.3125 183.008 43.5938 182.562 43.1094C182.117 42.6172 181.5 42.3711 180.711 42.3711ZM193.566 50.9609C194.277 50.9609 194.867 50.7539 195.336 50.3398C195.805 49.9258 196.055 49.4141 196.086 48.8047H198.77C198.738 49.5938 198.492 50.332 198.031 51.0195C197.57 51.6992 196.945 52.2383 196.156 52.6367C195.367 53.0352 194.516 53.2344 193.602 53.2344C191.828 53.2344 190.422 52.6602 189.383 51.5117C188.344 50.3633 187.824 48.7773 187.824 46.7539V46.4609C187.824 44.5312 188.34 42.9883 189.371 41.832C190.402 40.668 191.809 40.0859 193.59 40.0859C195.098 40.0859 196.324 40.5273 197.27 41.4102C198.223 42.2852 198.723 43.4375 198.77 44.8672H196.086C196.055 44.1406 195.805 43.543 195.336 43.0742C194.875 42.6055 194.285 42.3711 193.566 42.3711C192.645 42.3711 191.934 42.707 191.434 43.3789C190.934 44.043 190.68 45.0547 190.672 46.4141V46.8711C190.672 48.2461 190.918 49.2734 191.41 49.9531C191.91 50.625 192.629 50.9609 193.566 50.9609ZM208.602 51.7578C207.766 52.7422 206.578 53.2344 205.039 53.2344C203.664 53.2344 202.621 52.832 201.91 52.0273C201.207 51.2227 200.855 50.0586 200.855 48.5352V40.3203H203.703V48.5C203.703 50.1094 204.371 50.9141 205.707 50.9141C207.09 50.9141 208.023 50.418 208.508 49.4258V40.3203H211.355V53H208.672L208.602 51.7578ZM220.895 42.9219C220.52 42.8594 220.133 42.8281 219.734 42.8281C218.43 42.8281 217.551 43.3281 217.098 44.3281V53H214.25V40.3203H216.969L217.039 41.7383C217.727 40.6367 218.68 40.0859 219.898 40.0859C220.305 40.0859 220.641 40.1406 220.906 40.25L220.895 42.9219ZM228.043 53.2344C226.238 53.2344 224.773 52.668 223.648 51.5352C222.531 50.3945 221.973 48.8789 221.973 46.9883V46.6367C221.973 45.3711 222.215 44.2422 222.699 43.25C223.191 42.25 223.879 41.4727 224.762 40.918C225.645 40.3633 226.629 40.0859 227.715 40.0859C229.441 40.0859 230.773 40.6367 231.711 41.7383C232.656 42.8398 233.129 44.3984 233.129 46.4141V47.5625H224.844C224.93 48.6094 225.277 49.4375 225.887 50.0469C226.504 50.6562 227.277 50.9609 228.207 50.9609C229.512 50.9609 230.574 50.4336 231.395 49.3789L232.93 50.8438C232.422 51.6016 231.742 52.1914 230.891 52.6133C230.047 53.0273 229.098 53.2344 228.043 53.2344ZM227.703 42.3711C226.922 42.3711 226.289 42.6445 225.805 43.1914C225.328 43.7383 225.023 44.5 224.891 45.4766H230.316V45.2656C230.254 44.3125 230 43.5938 229.555 43.1094C229.109 42.6172 228.492 42.3711 227.703 42.3711Z" fill="black"/>
</svg>
