<!-- Generated by IcoMoon.io -->
<svg version="1.1" xmlns="http://www.w3.org/2000/svg" width="96" height="96" viewBox="0 0 96 96">
<title>collars-double-collar</title>
<path d="M65.4 67.248c-11.325-29.419-7.288-17.739-0.569 0.51-0.182 0.355-1.604 2.635-2.619 3.741-0.324 0.352-0.636 0.683-0.94 0.999 0 0-0.758 0.881-1.386-1.892-0.786-2.334-1.695-5.72-3.547-10.013l-0.079 0.020c-5.423 1.311-11.123 1.347-16.562 0.111l-0.087-0.020c-1.821 4.242-2.722 7.588-3.5 9.903-0.628 2.773-1.386 1.892-1.386 1.892-0.419-0.435-0.853-0.904-1.307-1.402 0.067 0.071 0.111 0.122 0.138 0.15-0.984-1.098-2.295-3.231-2.465-3.575 7.082-17.581 11.862-30.067-0.648-0.348-1.173 2.793-0.577 3.192-2.485 0.64-0.336-0.45-0.672-0.916-1.003-1.386 0.288 0.253 0.668 0.407 1.082 0.407 0.454 0 0.865-0.182 1.161-0.482h0.004c0.296-0.296 0.482-0.707 0.482-1.161s-0.186-0.865-0.482-1.161v0c-0.3-0.3-0.711-0.482-1.165-0.482s-0.865 0.182-1.161 0.482v0c-0.3 0.296-0.482 0.707-0.482 1.161 0 0.205 0.036 0.403 0.107 0.585-5.408-7.868-10.021-17.945-10.542-18.64-0.754-1.007-0.506-1.888-0.506-1.888l3.101-14.56c-0.111-0.45-0.166-0.893-0.166-1.327v0c-0.249-11.55 58.894-11.7 59.171-0.012l0.004 0.012c0 0.367-0.055 0.75-0.158 1.146l3.136 14.741c0 0 0.253 0.881-0.502 1.888-0.521 0.691-5.135 10.74-10.531 18.612 0.059-0.174 0.095-0.363 0.095-0.557 0-0.454-0.186-0.865-0.482-1.161v0c-0.296-0.3-0.707-0.482-1.161-0.482s-0.865 0.182-1.165 0.482v0c-0.296 0.296-0.482 0.707-0.482 1.161s0.186 0.865 0.482 1.161h0.004c0.296 0.3 0.707 0.482 1.161 0.482 0.403 0 0.774-0.146 1.063-0.391-0.198 0.28-0.395 0.557-0.593 0.829-2.275 3.124-1.774 3.085-3.030-0.174zM47.976 53.775c0.565 0 1.078 0.229 1.45 0.6v0.004c0.375 0.371 0.604 0.885 0.604 1.45s-0.229 1.078-0.604 1.454v0c-0.371 0.371-0.885 0.6-1.45 0.6-0.569 0-1.082-0.229-1.454-0.6v0c-0.371-0.375-0.604-0.889-0.604-1.454s0.233-1.078 0.604-1.45v-0.004c0.371-0.371 0.885-0.6 1.454-0.6zM48.75 55.055v0c-0.198-0.198-0.474-0.324-0.774-0.324-0.304 0-0.581 0.126-0.778 0.324v0c-0.198 0.198-0.32 0.47-0.32 0.774s0.122 0.577 0.32 0.774v0.004c0.198 0.198 0.474 0.32 0.778 0.32 0.3 0 0.577-0.122 0.774-0.32v-0.004c0.198-0.198 0.32-0.47 0.32-0.774s-0.122-0.577-0.32-0.774zM40.479 59.913c4.937 1.039 10.068 1.007 14.99-0.095-0.77-1.687-1.604-3.231-2.496-4.732-0.94-1.572-1.959-3.124-3.049-4.76-1.276 0.229-2.567 0.198-3.843-0.008-1.082 1.635-2.101 3.184-3.041 4.756-0.92 1.537-1.774 3.109-2.56 4.839zM70.649 38.244c-17.246-2.911-28.436-2.789-45.709 0.201 16.353 13.726 28.851 13.655 45.709-0.201zM76.602 29.51v0c-0.288-10.436-57.511-10.175-57.259-0.012v0.012c0 2.99 3.263 6.261 5.265 8.018 17.498-3.049 28.914-3.168 46.384-0.198 1.916-1.635 5.609-5.099 5.609-7.821z"></path>
</svg>
