<!-- Generated by IcoMoon.io -->
<svg version="1.1" xmlns="http://www.w3.org/2000/svg" width="96" height="96" viewBox="0 0 96 96">
<title>collars-club</title>
<path d="M17.264 41.328c0.36-1.835 1.621-12.851 2.465-14.151 5.408-8.324 52.784-8.371 57.030 0.321 0.602 1.233 1.531 11.669 1.973 13.83 1.058 5.186-4.114 24.017-10.316 24.478-2.502 0.186-5.408-2.549-8.509-6.146-0.045 0.037-0.099 0.067-0.158 0.090-7.578 2.569-15.904 2.552-23.474-0.053v0c-0.053-0.020-0.107-0.048-0.152-0.087l-0.003-0.003c-3.118 3.627-6.042 6.388-8.551 6.199-6.202-0.473-11.334-19.261-10.305-24.478zM37.254 59.014c6.967 2.243 14.537 2.262 21.513 0.051-1.204-1.413-2.395-2.775-3.608-4.134-1.303-1.46-2.611-2.896-3.973-4.362-2.437 0.715-4.080 0.681-6.509-0.034-2.628 2.836-4.93 5.541-7.423 8.478zM43.624 49.182c3.188 1.12 5.49 1.207 8.689 0.045 6.061-2.203 12.989-6.79 17.843-11.118-16.782-2.735-27.506-2.6-44.325 0.245 5.138 4.651 12.466 8.96 17.792 10.828zM20.187 28.784c0 1.221 0.498 2.566 1.368 3.968 0.948 1.528 2.33 3.115 3.985 4.68 17.027-2.896 27.931-3.031 44.922-0.242 1.736-1.604 3.197-3.211 4.201-4.711 0.912-1.362 1.441-2.625 1.441-3.695 0-9.165-55.916-8.954-55.916 0zM48 53.808c0.568 0 1.083 0.231 1.455 0.602v0.003c0.374 0.371 0.605 0.886 0.605 1.455 0 0.566-0.231 1.081-0.605 1.452v0.003c-0.374 0.371-0.886 0.602-1.455 0.602-0.566 0-1.081-0.231-1.452-0.602l-0.003-0.003c-0.371-0.371-0.602-0.886-0.602-1.452 0-0.568 0.231-1.083 0.602-1.455v-0.003c0.371-0.371 0.886-0.602 1.455-0.602zM48.779 55.088l-0.003 0.003c-0.197-0.2-0.473-0.324-0.777-0.324s-0.577 0.124-0.777 0.324v-0.003c-0.197 0.2-0.321 0.476-0.321 0.779 0 0.301 0.121 0.577 0.321 0.777v0c0.2 0.197 0.473 0.321 0.777 0.321s0.58-0.124 0.777-0.321h0.003c0.197-0.2 0.318-0.476 0.318-0.777 0-0.304-0.121-0.58-0.318-0.779z"></path>
</svg>
