<!-- Generated by IcoMoon.io -->
<svg version="1.1" xmlns="http://www.w3.org/2000/svg" width="96" height="96" viewBox="0 0 96 96">
<title>collars-the-polo</title>
<path d="M77.259 29.144l3.978 16.523c0 0 0.23 0.841-0.535 1.836-0.765 1.071-12.621 17.594-19.429 24.631 0 0-0.765 0.918-1.377-1.912-0.765-2.218-1.606-5.508-3.366-9.562 0 0-0.077 0-0.077 0-2.754 0.688-5.661 0.994-8.491 0.994s-5.661-0.306-8.414-0.994c0 0-0.077 0-0.077 0-1.759 4.131-2.601 7.343-3.366 9.562-0.688 2.83-1.453 1.912-1.453 1.912-6.808-7.037-18.664-23.56-19.429-24.631-0.765-0.994-0.459-1.836-0.459-1.836l3.978-16.523c0-0.459 0.076-0.918 0.383-1.377 0.918-2.142 4.59-3.595 9.103-4.666 7.573-1.759 17.67-2.295 19.965-2.295 2.524 0 12.316 0.535 19.735 2.295 4.437 1.071 8.032 2.601 8.95 4.666v0c0.153 0.382 0.23 0.535 0.306 0.841 0.076 0.153 0.076 0.306 0.076 0.535zM47.962 53.775c0.612 0 1.071 0.23 1.453 0.612v0c0.383 0.383 0.612 0.918 0.612 1.453 0 0.612-0.229 1.071-0.612 1.453v0c-0.383 0.383-0.841 0.612-1.453 0.612-0.535 0-1.071-0.23-1.453-0.612v0c-0.383-0.383-0.612-0.841-0.612-1.453 0-0.535 0.23-1.071 0.612-1.453v0c0.382-0.383 0.918-0.612 1.453-0.612zM48.727 55.076v0c-0.153-0.229-0.459-0.306-0.765-0.306s-0.535 0.077-0.765 0.306v0c-0.153 0.23-0.306 0.459-0.306 0.765s0.153 0.612 0.306 0.765v0c0.23 0.229 0.459 0.306 0.765 0.306s0.612-0.077 0.765-0.306v0c0.229-0.153 0.383-0.459 0.383-0.765s-0.153-0.535-0.383-0.765zM33.734 66.703c0.918 0 1.606-0.688 1.606-1.606 0-0.841-0.688-1.53-1.606-1.53-0.841 0-1.606 0.688-1.606 1.53 0 0.918 0.765 1.606 1.606 1.606zM62.266 66.703c0.841 0 1.53-0.688 1.53-1.606 0-0.841-0.688-1.53-1.53-1.53-0.918 0-1.606 0.688-1.606 1.53 0 0.918 0.688 1.606 1.606 1.606zM40.312 59.895c2.524 0.535 5.125 0.841 7.649 0.841 2.601 0 5.202-0.306 7.726-0.918-0.688-1.453-1.453-2.907-2.295-4.437-0.994-1.683-2.142-3.442-3.519-5.508-0.306 0.076-0.535 0.153-0.841 0.153-0.383 0.077-0.765 0.077-1.071 0.077s-0.688 0-1.071-0.077c-0.229 0-0.535-0.077-0.841-0.077l-0.306 0.535c-1.3 1.989-2.371 3.672-3.366 5.278-0.765 1.453-1.453 2.754-2.065 4.131zM67.697 24.019c-7.343-1.683-17.058-2.295-19.506-2.295-2.295 0-12.239 0.612-19.812 2.371-4.207 0.918-7.649 2.295-8.414 4.054v0c-0.23 0.382-0.306 0.688-0.306 0.994 0 0.382 0.077 0.765 0.23 1.147v0 0 0c0.23 1.147 0.918 2.295 1.759 3.442 0.918 1.224 2.142 2.524 3.595 3.748 4.131-0.765 8.338-1.3 12.010-1.683 5.355-0.535 9.638-0.765 11.321-0.765 1.759 0 5.508 0.153 10.327 0.688 3.366 0.306 7.267 0.765 11.168 1.453 1.53-1.224 2.83-2.524 3.901-3.672 0.994-1.147 1.683-2.218 2.142-3.213v-0.153l0.077-0.076c0-0.076 0-0.076 0-0.076v-0.153l0.077-0.076c0-0.076 0-0.076 0-0.153v0-0.076c0-0.076 0-0.076 0-0.153v0c0-0.229 0-0.459 0-0.612-0.077-0.153-0.153-0.306-0.23-0.612v0c-0.765-1.759-4.131-3.136-8.338-4.131zM50.18 48.88c5.049-1.224 13.463-5.89 19.582-10.786-3.901-0.612-7.649-1.147-10.939-1.453-4.743-0.459-8.567-0.688-10.25-0.688s-5.89 0.229-11.245 0.841c-3.595 0.383-7.649 0.841-11.78 1.606 6.043 5.049 14.916 9.485 20.271 10.48 0 0 0.077 0 0.077 0.077 0.382 0.077 0.765 0.077 1.147 0.153 0.306 0 0.612 0.077 0.918 0.077s0.612-0.077 0.918-0.077c0.383-0.076 0.765-0.153 1.147-0.229v0 0 0c0.077 0 0.077 0 0.153 0z"></path>
</svg>
