<!-- Generated by IcoMoon.io -->
<svg version="1.1" xmlns="http://www.w3.org/2000/svg" width="96" height="96" viewBox="0 0 96 96">
<title>collars-ozwald-boateng</title>
<path d="M37.825 59.169c3.348 0.994 6.749 1.517 10.202 1.517 3.401 0 6.853-0.471 10.149-1.465-2.668-3.505-5.807-7.586-6.906-8.894-1.256 0.366-2.25 0.575-3.296 0.523-0.994 0-1.988-0.209-3.191-0.523-1.465 1.517-3.034 3.662-4.499 5.546-0.418 0.628-0.889 1.256-1.203 1.674h-0.052c-0.209 0.366-0.523 0.732-0.785 1.099l-0.419 0.523zM48.392 20.769c2.459 0 12.399 0.523 19.828 2.302 4.395 1.046 7.952 2.564 8.684 4.761v0c0.157 0.471 0.209 0.942 0.105 1.465 1.151 3.034 1.569 7.743 2.354 11.876 0.314 1.622 0.418 1.465 0 2.982-1.308 4.499-2.354 12.19-3.976 13.968l-13.55 4.813c-0.68-0.68-1.569-1.779-2.564-3.087-0.052 0.052-0.105 0.052-0.157 0.105-3.61 1.151-7.377 1.726-11.091 1.726-3.767-0.052-7.481-0.628-11.091-1.779-0.052 0-0.157-0.052-0.157-0.105h-0.052c-0.994 1.308-1.883 2.459-2.564 3.139l-13.602-4.813c-1.569-1.779-2.616-9.469-3.924-13.968-0.419-1.517-0.314-1.36 0-2.982 0.837-4.133 1.413-8.684 2.563-11.771-0.052-0.575 0-1.151 0.209-1.674v0c0.837-2.145 4.499-3.662 8.998-4.708 7.272-1.674 16.898-2.25 19.985-2.25zM51.427 49.334c2.511-0.837 5.598-2.302 8.737-4.185 2.407-1.36 4.761-2.93 6.853-4.604 1.046-0.837 2.093-1.622 3.034-2.459-3.871-0.628-7.691-1.099-11.039-1.465-4.761-0.471-8.528-0.68-10.202-0.68s-5.859 0.262-11.143 0.785c-3.558 0.366-7.638 0.889-11.719 1.622 5.441 4.813 13.288 9.312 18.625 10.934 0.052 0 0.105 0 0.157 0 1.308 0.419 2.302 0.628 3.296 0.628 0.942 0 1.936-0.157 3.244-0.575v0c0.052 0 0.105 0 0.157 0zM47.712 53.781c0.575 0 1.099 0.262 1.465 0.628v0c0.366 0.366 0.628 0.889 0.628 1.465 0 0.523-0.262 1.046-0.628 1.413v0c-0.366 0.419-0.889 0.628-1.465 0.628-0.523 0-1.046-0.209-1.413-0.628v0c-0.366-0.366-0.628-0.889-0.628-1.413 0-0.575 0.262-1.099 0.628-1.465v0c0.366-0.366 0.889-0.628 1.413-0.628zM48.497 55.089v0c-0.157-0.209-0.471-0.314-0.785-0.314-0.262 0-0.575 0.105-0.732 0.314v0c-0.209 0.209-0.366 0.471-0.366 0.785 0 0.262 0.157 0.575 0.366 0.732v0c0.157 0.209 0.471 0.366 0.732 0.366 0.314 0 0.628-0.157 0.785-0.366v0c0.209-0.157 0.314-0.471 0.314-0.732 0-0.314-0.105-0.575-0.314-0.785zM68.011 24.013c-7.324-1.779-17.212-2.25-19.619-2.25-3.034 0-12.556 0.523-19.775 2.197-4.238 0.994-7.638 2.354-8.318 4.133v0c-0.419 1.046 0.052 2.407 0.837 3.819 1.256 2.197 3.348 4.395 4.499 5.493 4.185-0.732 8.318-1.256 11.928-1.622 5.336-0.575 9.574-0.785 11.248-0.785s5.493 0.209 10.306 0.68c3.401 0.366 7.272 0.837 11.196 1.465 1.256-1.151 3.401-3.244 4.708-5.336 0.837-1.36 1.308-2.668 0.994-3.662v0 0c-0.628-1.831-3.924-3.191-8.004-4.133z"></path>
</svg>
