<!-- Generated by IcoMoon.io -->
<svg version="1.1" xmlns="http://www.w3.org/2000/svg" width="72" height="72" viewBox="0 0 72 72">
<title>collars-collar-contrast-piping-contrast-twill_tape</title>
<path d="M29.136 47.066c4.482 0.945 9.14 0.945 13.588 0-1.331-3.082-2.942-6.058-5.113-9.35-1.191 0.21-2.101 0.21-3.292 0-2.031 3.047-3.677 5.988-5.183 9.35zM54.105 28.541c-2.907-0.49-5.813-0.875-8.72-1.156-3.117-0.28-6.304-0.42-9.455-0.42-3.222 0-6.444 0.14-9.63 0.455-2.872 0.245-5.708 0.63-8.545 1.121 2.136 1.576 4.482 3.047 6.829 4.272 9.735 5.113 13.167 5.008 22.658 0 2.346-1.226 4.728-2.696 6.864-4.272zM63.805 20.066l3.047 12.607c0.315 1.331 0.7 2.206-0.28 3.467-0.070 0.14-0.245 0.35-0.49 0.7-2.381 3.257-11.802 16.179-17.44 22.062v0c-0.035 0-1.296 1.436-2.136-1.296-1.086-3.467-2.101-6.514-3.292-9.42-4.798 1.051-9.805 1.051-14.568 0-1.226 2.907-2.241 5.953-3.327 9.42-0.84 2.731-2.101 1.296-2.101 1.296v0c-5.673-5.883-15.093-18.805-17.44-22.062-0.28-0.35-0.42-0.56-0.525-0.7-1.016-1.331-0.525-2.346-0.21-3.712l2.837-11.767c0.49-1.926 0.35-2.767 1.646-4.027 1.471-1.436 4.412-2.521 7.879-3.362 7.179-1.716 16.669-2.311 18.805-2.311 2.276 0 11.486 0.595 18.525 2.311 3.432 0.805 6.339 1.926 7.774 3.397 1.121 1.156 0.945 1.891 1.296 3.397zM60.514 16.599c-1.436-0.84-3.607-1.576-6.058-2.171-6.899-1.681-16.004-2.276-18.245-2.276-2.101 0-11.451 0.595-18.525 2.311-3.292 0.77-6.058 1.751-7.284 2.977l-0.175 0.665-0.035 0.105v0.035c0 0.035 0 0-0.035 0.035v0 0.070l-0.035 0.035v0.070c0 0.035-0.035 0.035-0.035 0.070v0.105c0 0 0 0.035 0 0.070v0c0 0 0 0.035 0 0.070 0 0.070 0 0.14 0 0.14 0 0.035 0 0.070 0 0.14s0 0.070 0 0.070v0.035l0.035 0.105c0 0.035 0 0.070 0 0.105v0 0.070l0.035 0.070v0.035c0 0 0 0.035 0 0.105v0l0.035 0.105c0 0.035 0.035 0.070 0.035 0.105v0 0 0.035c0.28 0.981 0.84 1.996 1.646 3.082 0.42 0.56 0.91 1.121 1.436 1.681l0.21-0.035c3.712-0.77 7.424-1.366 11.171-1.751s7.494-0.595 11.241-0.595c3.747 0 7.494 0.21 11.241 0.595 3.642 0.385 7.284 0.945 10.891 1.681 1.086-1.051 2.206-2.206 3.047-3.502 1.016-1.506 1.121-3.432-0.595-4.447zM65.977 34.179l-3.257-13.518c0 0.070-0.035 0.105-0.070 0.14l-0.035 0.070c-0.035 0.105-0.070 0.28-0.14 0.35-2.276 5.218-10.051 10.191-14.673 12.642-3.152 1.681-6.304 2.977-8.825 3.572 4.027 6.163 6.514 12.817 8.685 19.821 0.21 0.665 0.070 0.84 0.070 0.84l0.035-0.035c5.603-5.813 14.988-18.7 17.335-21.922 0.28-0.385 0.455-0.63 0.525-0.7 0.525-0.7 0.35-1.226 0.35-1.226v-0.035zM9.14 20.626l-3.292 13.553v0.035c0 0-0.14 0.525 0.35 1.226 0.070 0.070 0.245 0.315 0.525 0.7 2.381 3.222 11.732 16.109 17.37 21.922v0.035c0 0-0.105-0.175 0.105-0.84 1.191-3.922 2.346-7.284 3.782-10.576 1.296-3.047 2.872-5.988 4.973-9.21-2.521-0.63-5.708-1.891-8.93-3.607-3.397-1.786-6.864-4.062-9.63-6.444v0 0l-0.35-0.35-0.21-0.14-0.070-0.105-0.105-0.070-0.28-0.28-0.105-0.070-0.070-0.105-0.105-0.070-0.070-0.105-0.105-0.070-0.315-0.315v-0.035l-0.105-0.070v-0.035l-0.245-0.245c-0.070-0.070-0.14-0.14-0.21-0.175v-0.035l-0.21-0.21-0.105-0.14-0.105-0.105-0.21-0.245-0.070-0.105-0.105-0.105c-0.035-0.035-0.035-0.035-0.105-0.14v0l-0.070-0.105-0.105-0.105c-0.070-0.105 0.035 0-0.105-0.14v0l-0.035-0.070-0.14-0.14-0.070-0.175h-0.035l-0.035-0.035c-0.035-0.035-0.070-0.105-0.105-0.175-0.035-0.035-0.070-0.070-0.105-0.14v-0.035c-0.035-0.035-0.070-0.105-0.105-0.14-0.035-0.070-0.070-0.105-0.105-0.175v0l-0.035-0.035c-0.035-0.070-0.070-0.105-0.105-0.14 0-0.035-0.035-0.105-0.070-0.175l-0.035-0.035c0-0.035-0.035-0.070-0.070-0.14-0.070-0.105-0.070-0.14-0.105-0.175v0-0.035l-0.105-0.14c-0.035-0.070-0.035-0.14-0.070-0.175v-0.035c-0.035-0.070-0.070-0.105-0.105-0.14 0-0.070-0.035-0.14-0.070-0.175v0-0.035c0 0-0.035-0.070-0.070-0.14v0c0-0.035-0.035-0.105-0.070-0.175v-0.035c0-0.035-0.035-0.105-0.070-0.175v-0.070z"></path>
</svg>
