<?xml version="1.0" encoding="utf-8"?>
<!-- Generator: Adobe Illustrator 16.0.0, SVG Export Plug-In . SVG Version: 6.00 Build 0)  -->
<!DOCTYPE svg PUBLIC "-//W3C//DTD SVG 1.1//EN" "http://www.w3.org/Graphics/SVG/1.1/DTD/svg11.dtd">
<svg version="1.1" id="Layer_1" xmlns="http://www.w3.org/2000/svg" xmlns:xlink="http://www.w3.org/1999/xlink" x="0px" y="0px"
	 width="96px" height="96px" viewBox="0 0 96 96" enable-background="new 0 0 96 96" xml:space="preserve">
<g>
	<rect x="29.006" y="38.55" transform="matrix(-0.5549 0.8319 -0.8319 -0.5549 80.8814 34.9138)" width="4.19" height="1.088"/>
	<rect x="31.17" y="38.125" transform="matrix(-0.5547 0.832 -0.832 -0.5547 83.8901 32.442)" width="4.189" height="1.088"/>
	<rect x="33.245" y="37.755" transform="matrix(-0.5548 0.832 -0.832 -0.5548 86.8092 30.1478)" width="4.188" height="1.088"/>
	<rect x="35.195" y="37.476" transform="matrix(-0.5547 0.832 -0.832 -0.5547 89.6095 28.0829)" width="4.191" height="1.087"/>
	<rect x="37.206" y="37.395" transform="matrix(-0.555 0.8319 -0.8319 -0.555 92.6717 26.3023)" width="4.188" height="1.089"/>
	<rect x="39.502" y="37.267" transform="matrix(-0.5546 0.8321 -0.8321 -0.5546 96.1307 24.17)" width="4.19" height="1.088"/>
	<rect x="41.595" y="37.242" transform="matrix(-0.5546 0.8321 -0.8321 -0.5546 99.3618 22.3903)" width="4.189" height="1.087"/>
	<rect x="43.676" y="37.217" transform="matrix(-0.5547 0.8321 -0.8321 -0.5547 102.579 20.6229)" width="4.19" height="1.088"/>
	<rect x="45.869" y="37.19" transform="matrix(-0.555 0.8319 -0.8319 -0.555 105.9736 18.7764)" width="4.19" height="1.089"/>
	<rect x="47.965" y="37.266" transform="matrix(-0.5545 0.8322 -0.8322 -0.5545 109.2806 17.1167)" width="4.188" height="1.087"/>
	<rect x="50.199" y="37.234" transform="matrix(-0.5545 0.8322 -0.8322 -0.5545 112.7271 15.2072)" width="4.188" height="1.087"/>
	<rect x="52.462" y="37.32" transform="matrix(-0.5545 0.8322 -0.8322 -0.5545 116.3168 13.4593)" width="4.188" height="1.089"/>
	<rect x="54.524" y="37.551" transform="matrix(-0.5546 0.8321 -0.8321 -0.5546 119.7161 12.1094)" width="4.187" height="1.087"/>
	<rect x="56.768" y="37.702" transform="matrix(-0.5546 0.8321 -0.8321 -0.5546 123.3358 10.4802)" width="4.19" height="1.089"/>
	<rect x="58.972" y="37.9" transform="matrix(-0.5545 0.8322 -0.8322 -0.5545 126.9195 8.9413)" width="4.188" height="1.087"/>
	<rect x="60.756" y="38.344" transform="matrix(-0.5546 0.8321 -0.8321 -0.5546 130.0666 8.16)" width="4.187" height="1.087"/>
	<rect x="62.729" y="38.721" transform="matrix(-0.5549 0.8319 -0.8319 -0.5549 133.4573 7.1223)" width="4.189" height="1.087"/>
	<path d="M50.625,56.852c0-1.303-0.965-2.363-2.149-2.363c-1.185,0-2.149,1.061-2.149,2.363c0,1.301,0.964,2.359,2.149,2.359
		C49.66,59.211,50.625,58.152,50.625,56.852z M48.476,58.018c-0.528,0-0.957-0.523-0.957-1.166c0-0.644,0.429-1.168,0.957-1.168
		c0.526,0,0.956,0.524,0.956,1.168C49.432,57.494,49.002,58.018,48.476,58.018z"/>
	<path d="M79.336,48.831l-3.572-17.508l-0.037,0.007l-0.193-0.674c-0.012-0.054-0.029-0.106-0.045-0.159l-0.293-1.02l-0.064,0.15
		c-1.152-2.09-3.969-3.272-6.133-4.18l-0.346-0.145c-3.529-1.487-7.078-2.342-11.506-2.772c-6.924-0.671-13.61-0.62-19.702,0.15
		c-4.754,0.599-10.736,1.734-14.832,5.227c-1.222,1.042-1.98,2.276-2.083,3.314l-0.07-0.033v0.342
		c-0.045,0.099-0.083,0.202-0.123,0.305l-0.031-0.006l-0.037,0.179l-0.051,0.132l0.019,0.023l-3.574,17.321l1.159,1.477
		l-0.023,0.023l0.134,0.172c0.216,0.278,0.444,0.546,0.678,0.809l0.42,0.535l0.042-0.032c0.075,0.081,0.147,0.162,0.224,0.243
		l0.043,0.041c0.802,1.108,1.689,2.12,2.516,3.033l1.178,1.52c1.089,1.404,2.21,2.76,3.25,4.005
		c0.605,0.813,1.313,1.754,2.056,2.654c1.025,1.246,2.145,2.55,3.321,3.865l4.97,6.106l0.203-1.27
		c0.014-0.087,0.031-0.174,0.055-0.297l0.034-0.188c0.755-2.76,1.676-5.495,2.738-8.132c0.283-0.703,0.577-1.401,0.882-2.098
		c0.031-0.07,0.072-0.146,0.11-0.218c0.022-0.041,0.039-0.076,0.059-0.114c1.334,0.31,4.479,0.937,8.071,0.937
		c2.602,0,4.947-0.348,7-1.012c0.666,1.466,1.148,2.625,1.549,3.727c0.496,1.367,0.951,3.209,1.33,4.831
		c0.195,0.832,0.352,1.656,0.523,2.569l0.232,1.249l0.785-1c0.965-1.231,2.168-2.765,3.271-4.095
		c0.545-0.658,1.066-1.397,1.582-2.128c0.516-0.732,1.049-1.49,1.598-2.14c1.029-1.221,2.078-2.518,3.119-3.854l0.531-0.684
		c0.797-1.029,1.623-2.095,2.465-3.109c0.693-0.835,1.428-1.663,2.137-2.463c0.383-0.432,0.764-0.862,1.143-1.298
		c0.621-0.713,1.256-1.472,1.795-2.28l0.012,0.009L79.336,48.831z M74.195,53.894L74.195,53.894L74.195,53.894L74.195,53.894z
		 M23.319,28.737c3.875-3.306,9.658-4.396,14.262-4.977c6.022-0.759,12.632-0.81,19.46-0.146c4.314,0.418,7.766,1.249,11.189,2.691
		l0.348,0.146c2.314,0.97,5.439,2.285,5.918,4.609c-0.289,0.643-0.621,1.254-1.021,1.859c-0.719,1.082-1.527,2.131-2.225,3.015
		c-0.961,1.218-1.789,2.175-2.607,3.012c-0.52,0.531-1.1,1.074-1.738,1.636l1.576-2.19l-0.883-0.635l-2.473,3.436l0.576,0.414
		c-1.09,0.896-2.117,1.678-3.143,2.388c-1.072,0.746-2.229,1.47-3.529,2.212c-1.041,0.593-2.08,1.147-3.088,1.647
		c-0.678,0.336-1.367,0.652-2.057,0.966c-0.752,0.344-1.502,0.689-2.248,1.044c-0.275,0.132-0.498,0.262-0.732,0.401
		c-0.092,0.055-0.197,0.112-0.297,0.168l-4.262-0.009l-0.034-0.013c-2.549-0.982-5.556-2.185-8.525-3.652
		c-1.911-0.943-3.533-1.844-4.961-2.753c-0.283-0.181-0.563-0.366-0.884-0.597c-1.301-0.958-2.327-1.808-3.229-2.674
		c-0.007-0.007-0.013-0.014-0.021-0.021l1.714-2.57l-0.905-0.604l-1.585,2.377c-0.005-0.006-0.011-0.011-0.016-0.017
		c-0.114-0.125-0.221-0.203-0.307-0.266c-0.027-0.02-0.042-0.036-0.062-0.052l0.584-0.875l-0.905-0.604l-0.46,0.69
		c-0.003-0.004-0.007-0.007-0.011-0.011l-0.073-0.075c-0.14-0.136-0.271-0.281-0.398-0.428c-0.77-0.887-1.372-1.621-1.895-2.31
		c-0.672-0.885-1.44-1.92-2.045-3.011c-0.122-0.221-0.235-0.398-0.355-0.585l-0.217-0.345c-0.062-0.1-0.101-0.167-0.129-0.219
		C21.41,30.874,22.305,29.601,23.319,28.737z M44.516,54.43c0.205-0.31,0.424-0.613,0.643-0.918c0.338-0.47,0.687-0.955,0.993-1.473
		c0.013-0.022,0.076-0.134,0.165-0.293h3.914c0.17,0.283,0.338,0.565,0.498,0.847c0.273,0.482,0.557,0.982,0.891,1.482
		c1.082,1.628,1.902,2.992,2.582,4.293c0.244,0.474,0.484,0.953,0.715,1.436l0.311,0.649c-1.867,0.575-4.027,0.879-6.457,0.879
		c-3.254,0-6.11-0.514-7.56-0.829C42.356,58.045,43.41,56.106,44.516,54.43z M77.334,49.551l-0.014-0.009l-0.09,0.151l-0.348,0.482
		l0.029,0.021c-0.496,0.752-1.1,1.472-1.73,2.199c-0.369,0.423-0.742,0.844-1.113,1.264l-0.061,0.067
		c-0.703,0.795-1.432,1.616-2.123,2.448c-0.869,1.048-1.711,2.136-2.525,3.188l-0.494,0.636c-1.012,1.301-2.053,2.586-3.09,3.818
		c-0.586,0.695-1.156,1.505-1.67,2.235c-0.49,0.695-0.998,1.415-1.516,2.038c-0.811,0.977-1.678,2.066-2.512,3.127
		c-0.092-0.461-0.189-0.92-0.297-1.377c-0.389-1.658-0.855-3.544-1.367-4.96c-0.43-1.186-0.949-2.428-1.682-4.028l-0.088-0.189
		l-0.074-0.109c-0.008-0.016-0.014-0.031-0.021-0.046c-0.041-0.084-0.084-0.166-0.137-0.26c-0.035-0.062-0.07-0.123-0.102-0.191
		l-0.357-0.751c-0.238-0.492-0.48-0.982-0.732-1.468c-0.699-1.339-1.539-2.737-2.645-4.4c-0.307-0.46-0.564-0.914-0.85-1.414
		c-0.127-0.225-0.254-0.451-0.387-0.677c0.037-0.022,0.074-0.045,0.111-0.066l0.066-0.039c0.191-0.113,0.379-0.226,0.613-0.336
		c0.74-0.353,1.486-0.696,2.23-1.036l0.072-0.032c0.676-0.31,1.354-0.619,2.02-0.951c1.025-0.508,2.084-1.072,3.146-1.678
		c1.326-0.756,2.51-1.498,3.615-2.267c1.063-0.738,2.121-1.543,3.238-2.461c1.176-0.967,2.162-1.859,3.012-2.729
		c0.844-0.863,1.697-1.849,2.688-3.104c0.709-0.898,1.533-1.968,2.279-3.091c0.152-0.229,0.289-0.456,0.424-0.684l3.199,15.683
		L77.334,49.551z M21.22,33.346c0.034,0.057,0.067,0.108,0.103,0.172c0.642,1.16,1.438,2.234,2.135,3.151
		c0.539,0.709,1.156,1.461,1.942,2.367c0.148,0.17,0.3,0.337,0.501,0.537c0.053,0.057,0.124,0.133,0.215,0.199l0.049,0.075
		c0.134,0.183,0.263,0.292,0.37,0.381c0.025,0.021,0.05,0.041,0.07,0.063c0.119,0.135,0.232,0.217,0.316,0.279
		c0.057,0.042,0.091,0.066,0.127,0.106c0.265,0.292,0.557,0.592,0.868,0.89c0.938,0.9,2.019,1.795,3.405,2.816
		c0.289,0.208,0.586,0.404,0.886,0.595c1.462,0.931,3.121,1.852,5.07,2.815c2.847,1.406,5.743,2.577,8.001,3.455l-0.116,0.207
		c-0.276,0.467-0.608,0.929-0.937,1.385c-0.228,0.316-0.455,0.633-0.668,0.957c-1.161,1.758-2.261,3.782-3.463,6.371
		c-0.065,0.142-0.126,0.286-0.197,0.456c-0.058,0.142-0.117,0.281-0.18,0.417c-0.021,0.044-0.048,0.095-0.079,0.152
		c-0.052,0.098-0.107,0.202-0.149,0.298c-0.309,0.706-0.608,1.416-0.896,2.13c-1.003,2.492-1.884,5.074-2.621,7.685l-3.438-4.223
		c-1.178-1.318-2.292-2.613-3.309-3.85c-0.722-0.875-1.4-1.776-2.041-2.635c-1.056-1.266-2.18-2.627-3.244-3.998l-1.205-1.553
		c-0.827-0.915-1.698-1.907-2.482-2.989l-0.122-0.136c-0.068-0.072-0.143-0.157-0.213-0.233l-1.968-2.507L21.22,33.346z"/>
</g>
</svg>
