<!-- Generated by IcoMoon.io -->
<svg version="1.1" xmlns="http://www.w3.org/2000/svg" width="72" height="72" viewBox="0 0 72 72">
<title>placket-contrast-piping-button-placket</title>
<path d="M61.39 11.857l-0 0c0.028 0.113 0.201 0.942-0.46 1.825-0.094 0.126-0.332 0.566-0.681 1.211-1.352 2.503-4.325 8.006-8.402 12.239l0 0c-0.003 0.004-1.177 1.351-1.859-1.61-0.21-0.626-0.401-1.314-0.612-2.078-0.217-0.784-0.457-1.649-0.762-2.603-2.218 0.617-4.467 1.19-6.73 1.586v49.572h-0.72v-49.452c-0.543 0.085-1.087 0.16-1.631 0.222v0c-0.88 3.368-1.737 6.676-2.561 10.032v-9.843l0.080-0.003c-0.314 0.011-0.628 0.016-0.942 0.016-0.193 0-0.386-0.002-0.578-0.006v15.919c-0.713 3.143-1.395 6.379-2.040 9.79v-25.823c-0.48-0.043-0.96-0.096-1.44-0.159v34.34c-0.714 4.58-1.364 9.519-1.938 14.968v-49.611c-2.189-0.394-4.364-0.95-6.51-1.548-0.289 0.943-0.517 1.805-0.741 2.61-0.211 0.76-0.401 1.446-0.611 2.071-0.681 2.961-1.855 1.614-1.858 1.61l0-0c-4.163-4.32-7.334-9.505-8.698-11.736-0.317-0.518-0.534-0.873-0.625-0.994-0.711-0.949-0.458-1.835-0.457-1.838l0.001 0 3.479-12.564h0.865c-0.55 2.94 1.828 5.214 5.017 6.936 2.455 1.338 5.227 2.542 8.232 3.104l0.161 0.030 0.069 0.008c0.022 0.002 8.595 1.12 8.971 5.128l0.002 0.013 0.73 6.734c0.194-0.011 0.387-0.024 0.581-0.038 0.979-5.576 1.933-10.24 2.524-10.835 0.651-0.657 1.288-1.054 1.826-1.295l-0.002-0.003 0.022-0.005c0.84-0.372 1.43-0.361 1.44-0.362l0.032-0.003c2.575-0.674 5.083-1.571 7.216-2.818 3.425-2.001 5.345-3.698 5.179-6.593h0.968l3.464 11.857zM48.387 20.149c-0.867-2.559-2.226-5.713-4.79-9.58-0.411 0.155-0.85 0.408-1.369 0.866-0.65 0.573-1.567 5.017-2.489 10.392 2.912-0.29 5.808-0.899 8.648-1.677zM23.823 20.147c4.022 1.103 8.153 1.866 12.287 1.866 0.316 0 0.632-0.005 0.948-0.013l-0.602-6.72c-0.266-2.664-5.742-4.026-8.204-4.1-2.439 3.713-3.651 6.592-4.428 8.969zM14.277 1.992l-2.737 10.816-0.004 0.019c-0 0.001-0.125 0.436 0.3 1.002 0.127 0.169 0.351 0.535 0.677 1.069 1.349 2.206 4.486 7.335 8.581 11.582l0.011 0.011c-0.002-0.003-0.039-0.072 0.218-1.204l0.013-0.047c0.203-0.605 0.393-1.287 0.603-2.044 0.825-2.973 1.7-6.69 5.386-12.352-2.855-0.571-5.441-1.779-7.808-3.069-2.511-1.368-4.401-3.057-5.242-5.784zM60.46 12.093l-2.765-10.289c-1.123 2.477-3.003 4.198-5.431 5.617-2.083 1.217-4.501 2.11-6.993 2.79h-0c-0.216 0.059-0.433 0.116-0.65 0.172 3.703 5.678 4.851 9.82 5.678 12.805 0.211 0.761 0.401 1.445 0.604 2.051l0.013 0.047c0.257 1.132 0.221 1.201 0.218 1.204l0.011-0.011c3.991-4.139 6.925-9.571 8.259-12.041 0.366-0.677 0.615-1.139 0.76-1.331 0.424-0.566 0.3-1 0.3-1.002l-0.004-0.013zM33.497 15.578c0.426 0 0.812 0.173 1.091 0.452v0.001c0.279 0.279 0.452 0.665 0.452 1.090s-0.173 0.811-0.452 1.090l-0.001 0.002c-0.279 0.279-0.665 0.452-1.090 0.452s-0.811-0.173-1.090-0.452l-0.002-0.002c-0.279-0.279-0.452-0.665-0.452-1.090s0.173-0.811 0.452-1.090v-0.001c0.279-0.279 0.665-0.452 1.092-0.452zM34.080 16.539l-0.001 0.001c-0.149-0.149-0.355-0.241-0.582-0.241s-0.433 0.092-0.582 0.241l-0.001-0.001c-0.149 0.149-0.241 0.355-0.241 0.583s0.092 0.433 0.24 0.582l0.002 0.002c0.149 0.148 0.355 0.24 0.582 0.24s0.433-0.092 0.582-0.24l0.001-0.002c0.148-0.149 0.24-0.355 0.24-0.582s-0.092-0.435-0.24-0.583zM36.359 41.111c0.327 0 0.623 0.173 0.837 0.452v0.001c0.214 0.279 0.347 0.665 0.347 1.090s-0.132 0.811-0.347 1.090l-0.001 0.001c-0.214 0.279-0.51 0.452-0.836 0.452s-0.622-0.173-0.836-0.452l-0.001-0.001c-0.214-0.279-0.347-0.665-0.347-1.090s0.132-0.811 0.347-1.090v-0.001c0.214-0.279 0.51-0.452 0.837-0.452zM36.806 42.071l-0.001 0.001c-0.114-0.149-0.272-0.241-0.447-0.241s-0.332 0.092-0.447 0.241l-0.001-0.001c-0.114 0.149-0.184 0.355-0.184 0.583s0.070 0.433 0.184 0.582l0.001 0.002c0.114 0.148 0.272 0.24 0.447 0.24s0.333-0.092 0.447-0.24l0.001-0.002c0.113-0.149 0.184-0.355 0.184-0.582s-0.070-0.435-0.184-0.583zM36.359 65.711c0.426 0 0.812 0.173 1.091 0.452v0.002c0.279 0.279 0.452 0.665 0.452 1.090s-0.173 0.811-0.452 1.090l-0.001 0.002c-0.279 0.279-0.665 0.452-1.090 0.452s-0.811-0.173-1.090-0.452l-0.001-0.002c-0.279-0.279-0.452-0.665-0.452-1.090s0.173-0.811 0.452-1.090v-0.002c0.279-0.279 0.665-0.452 1.091-0.452zM36.942 66.671l-0.001 0.001c-0.149-0.149-0.355-0.241-0.582-0.241s-0.433 0.092-0.582 0.241l-0.001-0.001c-0.148 0.149-0.241 0.355-0.241 0.583s0.092 0.433 0.24 0.582l0.002 0.001c0.149 0.148 0.355 0.24 0.582 0.24s0.434-0.092 0.582-0.24l0.002-0.001c0.148-0.149 0.24-0.355 0.24-0.582s-0.092-0.435-0.241-0.583z"></path>
</svg>
