<?xml version="1.0" encoding="UTF-8"?>
<svg width="101px" height="77px" viewBox="0 0 101 77" version="1.1" xmlns="http://www.w3.org/2000/svg" xmlns:xlink="http://www.w3.org/1999/xlink">
    <!-- Generator: Sketch 52 (66869) - http://www.bohemiancoding.com/sketch -->
    <title>3</title>
    <desc>Created with Sketch.</desc>
    <g id="Page-1" stroke="none" stroke-width="1" fill="none" fill-rule="evenodd">
        <path d="M87.4980425,54.0797032 L89.9428988,62.0012859 L99.6176074,59.1497593 L97.3852438,50.9106648 L87.4980425,54.0797032 Z M1.38205265,59.1497593 L11.3756703,62.0012859 L13.8208665,54.2908148 L3.61475617,51.0163895 L1.38205265,59.1497593 Z M3.82758888,50.2769922 L14.0336992,53.5514175 L25.834695,17.0054665 L26.3660968,17.2169159 L26.8978385,17.2169159 L25.0904605,64.3252024 C28.7759342,67.4233073 32.5858437,69.7823528 36.5195089,71.402001 C40.4531742,73.0219869 44.4755764,73.9019001 48.5860356,74.0427537 L48.5860356,14.0482152 L49.3306101,14.0482152 L49.3306101,74.0427537 C53.7249595,74.1130117 58.1900266,73.3560499 62.7261512,71.7715307 C67.2622758,70.1870115 71.8337592,67.7401436 76.4409413,64.4309271 L74.6335632,17.2169159 L75.164965,17.2169159 L75.6970468,17.0054665 L87.2852098,53.4456928 L97.1727511,50.1716053 L83.77653,0.211116602 L84.0957791,5.00303783e-06 L100.893584,59.4662579 L101,59.9945435 L89.1990043,63.3746935 L88.9865116,62.8464079 L86.3278026,54.5019264 L86.1153099,53.7625291 L75.9095395,21.3357876 L77.6105013,64.6420387 C77.6105013,65.2757113 77.5928219,65.6631433 77.5571231,65.8039969 C77.5217643,65.9448506 77.2915922,66.1910912 76.8662668,66.5430564 C76.7952092,66.6136521 76.742171,66.6666834 76.7064722,66.7014746 C76.6714534,66.7369413 76.6184153,66.7545058 76.5473577,66.7545058 C72.8618839,69.5709034 69.3178453,71.7364017 65.9155819,73.250663 C62.5136584,74.7642487 59.2531701,75.8029178 56.134797,76.3659947 C52.8743087,77.0000388 49.6671985,77.1584231 46.5131266,76.8415869 C43.3590546,76.5247506 40.1873033,75.6971931 36.9978725,74.3592522 C33.7377242,73.0919071 31.0439965,71.665806 28.9177094,70.0816246 C26.7914222,68.4974432 25.3740108,67.3530494 24.665475,66.6487811 C24.5236999,66.5785232 24.4169435,66.490363 24.346226,66.3849761 C24.2751684,66.2792514 24.169092,66.1910912 24.0273169,66.1204954 L24.0273169,66.0151085 C23.9565993,65.8742549 23.9209005,65.7158367 23.9209005,65.5398541 C23.9209005,65.3635337 23.9209005,65.0642619 23.9209005,64.6420387 L25.6218623,21.3357876 L12.2263212,62.8464079 L12.1199048,63.3746935 L11.588503,63.2689689 L0,59.9945435 L0.106076366,59.4662579 L17.22313,5.00303783e-06 L17.6484554,0.211116602 L3.82758888,50.2769922 Z" id="3" fill="#231F20"></path>
    </g>
</svg>