<?xml version="1.0" encoding="UTF-8"?>
<svg width="95px" height="70px" viewBox="0 0 95 70" version="1.1" xmlns="http://www.w3.org/2000/svg" xmlns:xlink="http://www.w3.org/1999/xlink">
    <!-- Generator: Sketch 52 (66869) - http://www.bohemiancoding.com/sketch -->
    <title>1</title>
    <desc>Created with Sketch.</desc>
    <g id="Page-1" stroke="none" stroke-width="1" fill="none" fill-rule="evenodd">
        <path d="M82.300139,51.2731265 L84.5997563,58.7836033 L93.6997297,56.1803001 L91.5999818,48.2688718 L82.300139,51.2731265 Z M1.29995052,56.0800622 L10.6998879,58.7836033 L12.999825,51.4732821 L3.40001818,48.3691097 L1.29995052,56.0800622 Z M46.4000788,67.8969256 L71.8998953,67.8969256 L70.1998862,16.3230854 L70.6997196,16.3230854 L71.2001925,16.1229298 L82.0999498,50.6723396 L91.4001124,47.567847 L78.7997065,0.200475798 L79.0999902,0 L94.8999054,56.3804557 L95,56.8813249 L94.4998468,56.9812426 L83.9000535,60.0857352 L83.7001841,59.584866 L81.3001525,51.6737579 L81.1994183,51.6737579 L80.9995489,50.9727331 L71.4000619,20.2288407 L72.9999764,68.1973191 C73.0668128,69.1987373 72.6667542,69.7495654 71.8001205,69.849483 C70.9334868,69.9500412 69.8001474,70 68.4001023,70 L24.9996634,70 C23.8001272,70 23.0831558,69.8997621 22.8500281,69.6992863 C22.6165807,69.4991308 22.4998569,68.6978681 22.4998569,67.296459 L24.0997714,20.1286028 L11.3999105,60.0857352 L0,56.8813249 L0.0997747998,56.3804557 L16.1999737,0 L16.6000323,0.200475798 L3.60020736,47.6677647 L13.2000141,50.7725775 L24.2999606,16.1229298 L24.799794,16.3230854 L25.2999472,16.3230854 L23.5999381,67.8969256 L45.6997364,67.8969256 L45.6997364,13.3191509 L46.4000788,13.3191509 L46.4000788,67.8969256 Z" id="1" fill="#231F20"></path>
    </g>
</svg>