<?xml version="1.0" encoding="UTF-8"?>
<svg width="101px" height="79px" viewBox="0 0 101 79" version="1.1" xmlns="http://www.w3.org/2000/svg" xmlns:xlink="http://www.w3.org/1999/xlink">
    <!-- Generator: Sketch 52 (66869) - http://www.bohemiancoding.com/sketch -->
    <title>2</title>
    <desc>Created with Sketch.</desc>
    <g id="Page-1" stroke="none" stroke-width="1" fill="none" fill-rule="evenodd">
        <path d="M87.4980425,54.1260678 L89.9428988,62.0548376 L99.6176074,59.3063237 L97.3852438,50.9546275 L87.4980425,54.1260678 Z M1.38205265,59.2001695 L11.3756703,62.0548376 L13.8208665,54.3377 L3.61475617,51.0601055 L1.38205265,59.2001695 Z M36.0411453,69.0319387 C40.0812269,70.3710364 44.2273849,71.1110729 48.4799592,71.2520483 L48.3735428,14.1658185 L49.1177774,14.1658185 L49.2241937,71.2520483 C54.1145862,71.3227051 58.9342611,70.6354076 63.6832184,69.1904938 C68.4321757,67.7459181 72.68441,65.6137069 76.4409413,62.7945361 L74.6335632,17.2314427 L75.164965,17.2314427 L75.6970468,17.0198105 L87.2852098,53.4918474 L97.1727511,50.214591 L83.77653,0.211278311 L84.0957791,-1.58142666e-05 L100.893584,59.5176178 L101,60.0460221 L100.468258,60.1518382 L89.1990043,63.4290946 L86.3278026,54.5489942 L86.1153099,53.8089576 L75.9095395,21.4600298 L77.5040849,61.8435435 C77.5751425,63.0416657 77.6105013,63.6931278 77.6105013,63.7989439 C77.6105013,63.90476 77.2205346,64.4510821 76.4409413,65.4379101 C73.180453,69.2432328 69.619075,72.2736977 65.7561274,74.5296428 C61.8935197,76.7845737 57.9064763,78.1939901 53.7960171,78.7578918 L53.2642753,78.7578918 C53.1932177,78.7578918 53.1225002,78.7754715 53.0514426,78.8106308 C52.980725,78.8461283 52.9096675,78.8637079 52.8389499,78.8637079 C47.8064423,79.3569529 42.8630116,78.5114384 38.0079779,76.3264881 C33.1529443,74.1415378 28.7759342,70.441355 24.8779677,65.2262779 C24.3108672,64.5214007 24.0096375,64.1336338 23.9739387,64.0633151 C23.9385799,63.9926583 23.9209005,63.4994133 23.9209005,62.583242 L25.6218623,21.3542137 L12.1199048,63.4290946 L11.588503,63.3232785 L0,60.0460221 L0.106076366,59.5176178 L17.22313,-1.58142666e-05 L17.6484554,0.211278311 L3.82758888,50.3204071 L14.0336992,53.5973254 L25.834695,17.0198105 L26.3660968,17.2314427 L26.8978385,17.2314427 L25.0904605,62.9006903 C28.3506088,65.6492043 32.0010637,67.6931791 36.0411453,69.0319387 Z" id="2" fill="#231F20"></path>
    </g>
</svg>