<svg width="72px" height="55px" xmlns="http://www.w3.org/2000/svg" viewBox="0 0 67.344 50.963">
  <defs>
  </defs>
  <path id="Fill-1" class="cls-1" d="M34.135,10.15a.828.828,0,0,1-.034.241,2.47,2.47,0,0,1-.1.236.58.58,0,0,1-.03.171.421.421,0,0,1-.1.171v.1c0,.026-.021.057-.063.105H34.4a.265.265,0,0,0,.194-.07c.089-.044.156-.079.2-.1a.357.357,0,0,0,.131-.171.924.924,0,0,0,.131-.171.332.332,0,0,0,.068-.171.235.235,0,0,0,.063-.171V9.913a.235.235,0,0,0-.063-.171l-.1-.1c-.025-.026-.08-.035-.165-.035a.061.061,0,0,0-.068-.07h-.461ZM29.76,9.265a5.127,5.127,0,0,1,.1-.547.584.584,0,0,1,.034-.166.636.636,0,0,0,.034-.171l-.068.066a.632.632,0,0,0-.1.136.28.28,0,0,0-.034.136l-.79,1.16h.79A4.518,4.518,0,0,1,29.76,9.265Zm20.487,9.366c-2.02-.245-3.969-.464-5.854-.644s-3.74-.307-5.558-.377-3.626-.1-5.427-.1V11.581h.266a.581.581,0,0,1,.165.035.528.528,0,0,0,.161.035h.2a1.076,1.076,0,0,0,.262-.035.975.975,0,0,1,.2-.035.407.407,0,0,0,.2-.035.616.616,0,0,0,.131-.1h2.367a.28.28,0,0,0,.068.206l.131.136c.042.044.085.092.131.136a.769.769,0,0,0,.194.136.536.536,0,0,0,.33.136.494.494,0,0,0,.232.07h.393a.213.213,0,0,0,.165-.07.407.407,0,0,0,.2-.035c.042-.022.106-.057.194-.1a.284.284,0,0,0,.165-.07.78.78,0,0,0,.165-.136c.042-.044.089-.088.131-.136s.089-.092.131-.136a1.68,1.68,0,0,0,.2-.237.375.375,0,0,0,.068-.171c0-.048-.013-.07-.034-.07s-.034-.022-.034-.066v-.07h-.262c-.047,0-.068.013-.068.035s-.021.035-.063.035a.848.848,0,0,1-.2.337,1.05,1.05,0,0,1-.262.206,1.389,1.389,0,0,1-.262.1.928.928,0,0,1-.266.035h-.165a.216.216,0,0,1-.161-.066.2.2,0,0,1-.135-.07.759.759,0,0,1-.131-.206.966.966,0,0,1-.131-.171.428.428,0,0,1-.063-.236.586.586,0,0,1-.068-.271V9.979a1.164,1.164,0,0,1,.068-.372.887.887,0,0,1,.063-.307c.042-.114.089-.241.131-.377.042-.092.1-.193.165-.307a3.4,3.4,0,0,0,.165-.306L38.7,8.14q.1-.1.228-.236A.538.538,0,0,1,39.1,7.8a1.354,1.354,0,0,0,.232-.1.222.222,0,0,1,.165-.07h.427c.042.048.076.083.1.105a.132.132,0,0,0,.1.035c.046.044.068.079.068.1s.021.057.068.1v.955h.393V8.788a1,1,0,0,1,.034-.271,1.542,1.542,0,0,0,.034-.342,1.752,1.752,0,0,0,.1-.271,1.233,1.233,0,0,0,.034-.276l.063-.136h-.131a2.1,2.1,0,0,0-.228-.1,1.82,1.82,0,0,1-.232-.1.477.477,0,0,1-.2-.07h-.262a.057.057,0,0,0-.063-.066h-.131a1.106,1.106,0,0,0-.266.031c-.089.026-.194.057-.325.105-.089.044-.19.092-.3.136a.856.856,0,0,0-.3.2,1.213,1.213,0,0,0-.266.206c-.089.092-.173.184-.262.271-.089.14-.178.263-.262.377a1.626,1.626,0,0,0-.2.307,1.8,1.8,0,0,0-.2.407c-.042.14-.085.276-.131.412a2.2,2.2,0,0,1-.034.407,2.643,2.643,0,0,0-.03.407V10.7a.278.278,0,0,0,.063.2,1.234,1.234,0,0,0,.034.276.419.419,0,0,0,.1.2v.07H35.052l.068-.07a2.1,2.1,0,0,1,.228-.1.291.291,0,0,0,.165-.171c.046-.044.089-.092.131-.136s.089-.092.135-.136a1.758,1.758,0,0,1,.131-.241.331.331,0,0,0,.063-.171.581.581,0,0,1,.034-.166.825.825,0,0,0,.034-.241V9.808a.183.183,0,0,1-.068-.136.21.21,0,0,0-.063-.136c-.047-.088-.089-.136-.131-.136a.113.113,0,0,0-.068-.1.114.114,0,0,1-.068-.105.131.131,0,0,1-.1-.031.117.117,0,0,0-.1-.035l.063-.07a.644.644,0,0,0,.2-.136l.131-.136a.59.59,0,0,0,.165-.307,2.038,2.038,0,0,0,.034-.377V7.934a.236.236,0,0,0-.068-.166.758.758,0,0,0-.131-.206l-.131-.136a.729.729,0,0,0-.2-.136.535.535,0,0,0-.262-.07.32.32,0,0,0-.228-.066h-.3a2.4,2.4,0,0,0-.4.031A1.678,1.678,0,0,1,34,7.22c-.131.048-.249.092-.359.136s-.233.092-.364.136a2.023,2.023,0,0,0-.524.412c-.089.092-.165.171-.232.236a2.529,2.529,0,0,0-.228.307c-.047.092-.089.184-.131.271s-.089.184-.131.276a.664.664,0,0,0-.068.306v.543a.222.222,0,0,0,.068.171.511.511,0,0,0,.03.206c.025.044.055.114.1.2.042.048.11.114.194.206a.452.452,0,0,0,.135.1.237.237,0,0,0,.131.035.2.2,0,0,0,.131-.066.186.186,0,0,0,.131-.07.546.546,0,0,0,.063-.206v-.066l-.063-.07V10.22l-.068-.07a.189.189,0,0,1-.131-.066c-.042-.048-.076-.07-.1-.07s-.034-.022-.034-.066h-.063v-.14c-.047,0-.068-.022-.068-.066V9.3a.539.539,0,0,1,.068-.241.532.532,0,0,1,.063-.2.762.762,0,0,1,.131-.206.959.959,0,0,1,.165-.241c.068-.066.122-.123.165-.166a1.445,1.445,0,0,1,.232-.206,1.813,1.813,0,0,1,.228-.136,2.447,2.447,0,0,1,.558-.206,2.62,2.62,0,0,1,.558-.07h.33a.534.534,0,0,0,.165.07c.021,0,.055.022.1.07a1.114,1.114,0,0,1,.135.166.454.454,0,0,1,.063.241.505.505,0,0,1-.034.171.582.582,0,0,0-.029.171.471.471,0,0,0-.1.136.543.543,0,0,1-.1.136.938.938,0,0,1-.165.136.3.3,0,0,1-.165.07.5.5,0,0,1-.2.066H34.4l.194-.613V8.311a.208.208,0,0,1,.068-.136.27.27,0,0,1,.034-.136.321.321,0,0,0,.034-.136L34.79,7.7h-.2a.466.466,0,0,1-.228.07.226.226,0,0,0-.165.066h-.461l-.063.136V8.1l-.068.206.2-.066h.063v.2l-.524,1.975v.07a.375.375,0,0,0-.1.171.679.679,0,0,0-.034.236c-.047.048-.068.083-.068.105a.188.188,0,0,1-.063.1l-.135.07a.3.3,0,0,0-.131.031.246.246,0,0,1-.131.035h-.131v.07l-.063.136H30.977V11.31l.063-.136h-.194c0,.044-.013.066-.034.066h-.427a.2.2,0,0,0-.135-.066l.135-1.3.326-2.045V7.492a.222.222,0,0,0,.068-.171.538.538,0,0,1,.068-.236l.063-.342-.262.271a.2.2,0,0,0-.131.07.173.173,0,0,0-.131.07h-.2a1.085,1.085,0,0,1-.262.066h-.4a.524.524,0,0,1-.262.07.475.475,0,0,0-.2.031.851.851,0,0,0-.131.105.431.431,0,0,0-.194.035.459.459,0,0,0-.131.1.2.2,0,0,0-.135.066.211.211,0,0,0-.063.14.1.1,0,0,0-.1.066.6.6,0,0,1-.1.136.259.259,0,0,1-.034.136.335.335,0,0,0-.03.14.183.183,0,0,0-.068.136v.337a.2.2,0,0,0,.068.14.459.459,0,0,0,.131.1.431.431,0,0,0,.194.035h.068a.179.179,0,0,1,.131-.07c0-.044.008-.066.034-.066s.034-.026.034-.07V8.582a.218.218,0,0,0-.068-.136V8.175a.126.126,0,0,1,.034-.1.132.132,0,0,1,.1-.035.164.164,0,0,1,.034-.105.131.131,0,0,1,.1-.031c.047-.044.076-.079.1-.105a.125.125,0,0,1,.1-.031.294.294,0,0,0,.131-.035.452.452,0,0,1,.2-.035h.228a.207.207,0,0,0,.165-.07c-.089.14-.173.263-.262.377a4.4,4.4,0,0,0-.262.377c-.131.18-.275.385-.427.613a6.2,6.2,0,0,0-.431.749c-.173.228-.317.433-.427.613a2.753,2.753,0,0,1-.359.477,2.62,2.62,0,0,1-.266.442.76.76,0,0,1-.262.236.458.458,0,0,1-.131.105.108.108,0,0,0-.063.1h-.528q0-.066-.063-.066a.2.2,0,0,0-.135.066.179.179,0,0,1-.131.07v.066a.21.21,0,0,0-.063.136v.105a.188.188,0,0,0,.063.1l.068.07c.042.044.076.066.1.066s.055.022.1.07h.194a.578.578,0,0,0,.165-.035.747.747,0,0,1,.233-.035,1.9,1.9,0,0,0,.228-.136.541.541,0,0,0,.165-.206.955.955,0,0,0,.262-.2,1.59,1.59,0,0,0,.262-.412,3.315,3.315,0,0,0,.364-.442c.11-.158.228-.35.363-.578h1.048a.315.315,0,0,1-.03.136.27.27,0,0,0-.034.136v.206c0,.044-.021.066-.068.066v.14a.21.21,0,0,1-.063.136.321.321,0,0,1-.034.136.322.322,0,0,0-.034.136l-.063.206h.194a.528.528,0,0,0,.2-.07h.461a.179.179,0,0,1,.131.07h.659v-.206h1.513v.206h.131a.308.308,0,0,0,.131-.035.281.281,0,0,1,.131-.035h.524V17.51q-2.631.066-5.258.2t-5.393.412q-2.764.269-5.723.679t-6.116.955q-2.9-1.977-7.891-8.924,1.446,3.816,6.9,9.059l.266.136a55.184,55.184,0,0,0,4.768,3.512q2.53,1.668,5.1,3.1,8.546,4.63,13.546,4.668T47.09,26.64q2.631-1.432,5.161-3.1a55.823,55.823,0,0,0,4.768-3.512l.2-.136q5.459-5.241,6.906-9.059-4.736,6.68-7.562,8.722Q53.271,19.01,50.247,18.631ZM15.225,47.386Q12.562,44.9,9.666,41.8T4.142,35.292A44.635,44.635,0,0,1,0,29.022V26.092a42.353,42.353,0,0,0,5.064,7.974q3.221,4.085,6.348,7.426t7.726,7.628L29.464,32.362a79.478,79.478,0,0,1-7.43-3.341,84.978,84.978,0,0,1-10.985-6.437,40.751,40.751,0,0,1-8.715-7.833q-3.322-4.125-.689-7.6Q4.408,3.608,13.547,1.8A101.46,101.46,0,0,1,33.213,0,110.8,110.8,0,0,1,53.074,1.7q9.339,1.7,12.363,5.11,2.961,3.271-.427,7.492a41.4,41.4,0,0,1-8.91,8.039,94.224,94.224,0,0,1-11.15,6.647,75.309,75.309,0,0,1-7.266,3.372L48.011,48.848q4.8-4.361,8.022-7.833t6.446-7.667a36.493,36.493,0,0,0,4.865-8.14V28.82a43.583,43.583,0,0,1-3.88,5.618Q61.1,37.407,58.4,40.332t-5.524,5.692q-2.828,2.759-5.262,4.939Q46.891,50,45.247,47.28t-3.483-5.754q-1.845-3.034-3.555-5.587A16.233,16.233,0,0,0,35.644,32.7a3.587,3.587,0,0,0-4.011,0,16.666,16.666,0,0,0-2.6,3.236q-1.743,2.555-3.652,5.587T21.767,47.28q-1.712,2.726-2.43,3.682Q17.885,49.873,15.225,47.386Z" transform="translate(0)"/>
</svg>
