<svg width="72px" height="55px" id="Fill-2" xmlns="http://www.w3.org/2000/svg" viewBox="0 0 69 69">
  <defs>
<!--    <style>
      .cls-1 {
        fill: #d8d8d8;
        fill-rule: evenodd;
      }
    </style>-->
  </defs>
  <path id="Path_73" data-name="Path 73" class="cls-1" d="M40.942,36.7l.069-.144a1.007,1.007,0,0,0,.253-.181.823.823,0,0,1,.249-.181,1.615,1.615,0,0,0,.286-.181,2.5,2.5,0,0,1,.29-.181l.069-.069-.069-.074a1.229,1.229,0,0,1-.111-.287.48.48,0,0,0-.106-.218.218.218,0,0,1-.074-.144.065.065,0,0,0-.069-.074.149.149,0,0,0-.037-.107.149.149,0,0,1-.037-.107.111.111,0,0,1-.106-.074.114.114,0,0,0-.106-.069.471.471,0,0,0-.216-.218c-.1-.046-.194-.1-.286-.144s-.207-.1-.323-.144-.254-.1-.4-.144h-.788a2.665,2.665,0,0,0-.428.032,2.828,2.828,0,0,0-.433.111,4.85,4.85,0,0,0-.825.361,3.06,3.06,0,0,0-.682.5,1,1,0,0,1-.175.255c-.074.069-.134.134-.18.181a1.76,1.76,0,0,0-.111.25,2.033,2.033,0,0,1-.106.255,1.022,1.022,0,0,1-.037.213,1.11,1.11,0,0,0-.037.218v.505a.445.445,0,0,1,.111.181,2,2,0,0,0,.106.25.32.32,0,0,0,.074.181.487.487,0,0,0,.212.181.476.476,0,0,0,.143.107.771.771,0,0,1,.148.111.445.445,0,0,0,.175.106.513.513,0,0,0,.18.037,2.014,2.014,0,0,0,.253.106.476.476,0,0,0,.18.037h.429a.273.273,0,0,0,.143-.037.329.329,0,0,1,.143-.037A.583.583,0,0,0,38.933,38l.074-.074v-.213c-.051,0-.074-.023-.074-.074H38.79c0-.046-.014-.069-.037-.069s-.037.023-.037.069h-.788c-.1-.046-.189-.093-.286-.144a.8.8,0,0,1-.217-.144l-.143-.144a.3.3,0,0,1-.069-.218.659.659,0,0,0-.037-.181.156.156,0,0,1,.037-.181.825.825,0,0,1,.032-.25,1.59,1.59,0,0,1,.111-.255.957.957,0,0,1,.18-.25c.069-.074.152-.158.249-.255a.642.642,0,0,1,.249-.25,1.983,1.983,0,0,0,.327-.25c.092-.051.2-.111.318-.181a3.511,3.511,0,0,1,.327-.181c.143-.046.272-.083.392-.111a1.692,1.692,0,0,1,.322-.032.739.739,0,0,1,.645,0,1.009,1.009,0,0,1,.217.032.774.774,0,0,0,.212.037.923.923,0,0,1,.217.144c.046.051.1.1.143.144a.125.125,0,0,1,.111.074.325.325,0,0,1,.032.144c.051,0,.074.023.074.074V35.4a.148.148,0,0,1-.037.107.157.157,0,0,0-.037.107.5.5,0,0,0-.106.181.312.312,0,0,1-.18.181c-.046.051-.1.1-.143.144s-.1.1-.143.148l-.143.069.143.074.143.144ZM35.274,8.109a20.655,20.655,0,0,0,2.511,4.9,46.625,46.625,0,0,0,4.05,5.157A61.923,61.923,0,0,0,46.675,23a73.227,73.227,0,0,0,6.382,5.116,33.6,33.6,0,0,0,5.88,3.424,10.811,10.811,0,0,0,4.769,1.084,3.471,3.471,0,0,0,3.046-2.057c.046-.093.111-.2.18-.324s.157-.25.253-.394q1.431-3.246-.862-7.97a37.4,37.4,0,0,0-6.451-9.156,50.159,50.159,0,0,0-9.253-7.748,21.6,21.6,0,0,0-9.248-3.753,9.149,9.149,0,0,0-3.442.473,4.9,4.9,0,0,0-2.364,1.691,1.746,1.746,0,0,0-.253.324,2.418,2.418,0,0,0-.18.4A5.827,5.827,0,0,0,35.274,8.109ZM35.708,32.3c.046.046.092.1.143.144a.841.841,0,0,1,.143.213.208.208,0,0,0,.074.148v.213a.207.207,0,0,0-.074.144.153.153,0,0,1-.037.111.147.147,0,0,1-.106.037c-.051.046-.1.093-.143.144a.88.88,0,0,1-.216.144.511.511,0,0,0-.18.037.814.814,0,0,1-.249.032h-.18a.6.6,0,0,1-.253-.069.293.293,0,0,1-.175-.107.9.9,0,0,0-.254-.181.161.161,0,0,0-.037-.111l-.106-.107-.074-.074a.158.158,0,0,0,.111-.032.13.13,0,0,1,.106-.037.65.65,0,0,0,.18-.037.465.465,0,0,0,.18-.107.841.841,0,0,1,.212-.148.7.7,0,0,0,.217-.144l.576-.357C35.611,32.2,35.657,32.255,35.708,32.3Zm.286-1.589.143.148h.074v.07h-.074L36.067,31l-1.94,1.154a.448.448,0,0,1-.175.107.433.433,0,0,0-.18.106h-.5a.119.119,0,0,0-.074-.106.574.574,0,0,1-.143-.107h-.069l-.433.213.143.074a.572.572,0,0,0,.143.106.738.738,0,0,1,.147.107c.046.051.083.088.106.111l.106.107c.046.051.083.083.106.111s.06.06.111.107l.143.144.143.144a.228.228,0,0,1,.074.144c.046.051.092.1.143.144a1.552,1.552,0,0,0,.249.218,1.022,1.022,0,0,1,.18.144,2.115,2.115,0,0,0,.253.111,2.3,2.3,0,0,1,.249.107.837.837,0,0,1,.254.037.79.79,0,0,0,.249.033h.429a2.024,2.024,0,0,1,.253-.107.589.589,0,0,1,.18-.037,1.3,1.3,0,0,1,.18-.144,1.526,1.526,0,0,0,.18-.144.768.768,0,0,1,.143-.218.551.551,0,0,0,.069-.213c.046-.051.074-.083.074-.111V33.02a.272.272,0,0,1-.074-.213h.074a.813.813,0,0,1,.249.032.157.157,0,0,0,.18-.032.521.521,0,0,0,.217-.037.313.313,0,0,1,.143-.037c.1-.046.166-.083.217-.107A.573.573,0,0,0,38,32.514a.437.437,0,0,0,.106-.181.45.45,0,0,1,.106-.176v-.435a.822.822,0,0,0-.032-.25c-.028-.074-.064-.158-.111-.255a.886.886,0,0,0-.18-.25c-.069-.074-.152-.158-.249-.255s-.193-.176-.286-.25a2.867,2.867,0,0,1-.29-.255,2.009,2.009,0,0,1-.392-.176.626.626,0,0,0-.323-.111,3.4,3.4,0,0,0-.4-.106,2.044,2.044,0,0,0-.392-.037.506.506,0,0,0-.323-.037,1.773,1.773,0,0,1-.4.037,3.072,3.072,0,0,1-.322.144c-.12.051-.226.1-.323.144a2.793,2.793,0,0,0-.249.144,1.838,1.838,0,0,0-.254.218,1.551,1.551,0,0,0-.143.181,1.02,1.02,0,0,1-.143.181.659.659,0,0,1-.037.181.469.469,0,0,1-.106.181v.362a.288.288,0,0,0,.032.176c.028.028.06.065.111.111l.069.069h.29l.069-.069.074-.074a.061.061,0,0,1,.069-.07v-.144c-.046-.051-.069-.083-.069-.111V31c0-.051.023-.074.069-.074v-.07l.074-.074a.065.065,0,0,1,.069-.074c.051-.046.1-.093.147-.144a.88.88,0,0,1,.212-.144,2,2,0,0,1,.253-.107.781.781,0,0,1,.249-.037.672.672,0,0,1,.286-.074h.29a1.238,1.238,0,0,1,.286.037c.1.028.217.06.359.111a.662.662,0,0,1,.286.069c.1.051.189.1.286.144a1.423,1.423,0,0,0,.217.181.753.753,0,0,1,.217.255.387.387,0,0,1,.175.144.5.5,0,0,0,.111.144.279.279,0,0,0,.037.144.324.324,0,0,1,.032.144V31.8a.061.061,0,0,0-.069.069.066.066,0,0,1-.074.074l-.143.144a.2.2,0,0,1-.143.074.583.583,0,0,1-.216.069h-.392a.242.242,0,0,1-.18-.069.51.51,0,0,0-.18-.111.434.434,0,0,1-.18-.107l.576-.361a.286.286,0,0,0,.143-.037.67.67,0,0,0,.143-.107A.205.205,0,0,0,37,31.361a.208.208,0,0,1,.143-.069l.217-.144-.217-.074a1.276,1.276,0,0,0-.18-.144,1.234,1.234,0,0,1-.18-.144.433.433,0,0,0-.18-.107.513.513,0,0,1-.18-.111l-.069-.069h-.074l-.143.144Zm-4.23-1.872-.074-.074c-.1-.093-.166-.167-.212-.213l-.143-.144-.143-.148,1.433-.287h.359l.069-.07a.568.568,0,0,1-.143.107.5.5,0,0,0-.143.107c-.143.1-.3.2-.465.324a3.524,3.524,0,0,0-.465.4Zm.074,2.02-.147-.074c-.046,0-.069-.009-.069-.037s-.028-.037-.074-.037c0-.046-.009-.069-.032-.069s-.037-.023-.037-.074a.151.151,0,0,1-.111-.032.16.16,0,0,1-.032-.111.2.2,0,0,1-.074-.144l1.078-.867,1.719-1.3a.573.573,0,0,1,.143-.107.569.569,0,0,0,.143-.107.475.475,0,0,1,.18-.111.465.465,0,0,0,.18-.107l.359-.218h-.433c-.1,0-.143-.023-.143-.069h-.143c-.046-.051-.083-.074-.106-.074s-.037-.023-.037-.069a.215.215,0,0,1-.143-.074c-.051-.046-.1-.1-.143-.144a1.545,1.545,0,0,0-.18-.144,1.018,1.018,0,0,1-.18-.144c-.046-.051-.083-.083-.106-.111a.167.167,0,0,0-.111-.037.434.434,0,0,0-.18-.107.446.446,0,0,1-.175-.107.347.347,0,0,1-.147-.037.327.327,0,0,0-.143-.037.513.513,0,0,1-.18-.037.564.564,0,0,0-.175-.032.34.34,0,0,0-.147.032.274.274,0,0,1-.143.037.328.328,0,0,0-.143.037.573.573,0,0,0-.143.107.147.147,0,0,0-.106.037c-.028.023-.065.06-.111.107s-.1.1-.143.148a.149.149,0,0,1-.037.107.147.147,0,0,0-.032.107.2.2,0,0,0,.069.144v.074l.074.074.069.069h.29l.069-.069a.068.068,0,0,0,.074-.074l.069-.074v-.07l.074-.074v-.069c.046,0,.069-.014.069-.037s.023-.037.074-.037a.13.13,0,0,0,.106-.037.151.151,0,0,1,.111-.033.293.293,0,0,1,.212.07.306.306,0,0,1,.217.074.208.208,0,0,1,.143.069c.046.051.1.1.143.144a.386.386,0,0,1,.18.074,1.027,1.027,0,0,1,.18.144,2.407,2.407,0,0,1-.428.107,2.712,2.712,0,0,1-.5.037c-.24.051-.5.1-.788.144a8.84,8.84,0,0,0-.935.218c-.24.046-.479.1-.714.144a3.447,3.447,0,0,1-.719.074c-.194.046-.359.083-.5.107a.566.566,0,0,1-.359-.037h-.286a.32.32,0,0,1-.143-.032.126.126,0,0,1-.074-.111l-.069-.07a.208.208,0,0,1-.074-.148l-.069-.069v-.074a.2.2,0,0,1-.143-.07h-.29c0,.046-.009.07-.032.07s-.037.028-.037.074c-.051,0-.074.014-.074.037v.106c-.046,0-.069.014-.069.037v.107a.2.2,0,0,0,.069.144c.046.051.083.083.111.111a.147.147,0,0,1,.032.107,1.545,1.545,0,0,0,.18.144.43.43,0,0,0,.253.074.435.435,0,0,0,.212.107,1.245,1.245,0,0,0,.29.037h.355a1.933,1.933,0,0,0,.5-.074,2.927,2.927,0,0,0,.613-.069c.212-.051.465-.1.751-.144q.145.139.249.25c.074.074.157.158.253.25.046.051.1.1.143.148s.1.093.143.144a.574.574,0,0,1-.143.107.569.569,0,0,0-.143.106.328.328,0,0,0-.143.037.112.112,0,0,0-.074.107.327.327,0,0,0-.143.037.6.6,0,0,0-.143.111.32.32,0,0,0-.143.032.629.629,0,0,0-.143.111l-.217.069.217.144a.147.147,0,0,1,.106.037c.023.028.06.06.106.106,0,.051.014.074.037.074s.06.023.111.074l.069.069c.046.051.083.083.106.111s.06.06.111.107a.21.21,0,0,0,.069.144c.051.046.1.1.147.144l.069.074.074.069.069.074.143-.074L31.689,31ZM12.368,28.154c.023-.31.037-.565.037-.755a44.786,44.786,0,0,0-6.023,4.073Q3.223,33.96,0,36.842V35.471a75.644,75.644,0,0,1,8.889-6.955,14.585,14.585,0,0,1,3.585-1.766,3.222,3.222,0,0,1,.5-1.084,13.379,13.379,0,0,1,1.29-1.441q4.88-5.115,8.5-9.012t6.166-6.631q2.544-2.745,4.161-4.434a33.368,33.368,0,0,1,2.475-2.419l.069-.07.074-.074a1.286,1.286,0,0,1,.18-.144.34.34,0,0,1,.18-.069A6.638,6.638,0,0,1,38.431.324,12.6,12.6,0,0,1,41.371,0q4.873.146,10.792,3.823a43.876,43.876,0,0,1,10.29,8.795,29.55,29.55,0,0,1,6.023,10.6q1.645,5.484-1.866,9.156L41.873,57.749A6.467,6.467,0,0,1,40.3,58.977a3.268,3.268,0,0,1-1.866.218,9.683,9.683,0,0,1-1.29,3.169A72.657,72.657,0,0,1,32.768,69h-.862a61.639,61.639,0,0,0,4.014-5.806,9.871,9.871,0,0,0,1.65-4.217,15.652,15.652,0,0,1-2.115-.792c-.742-.338-1.47-.672-2.184-1.01a63.722,63.722,0,0,1-7.566-5.19c-2.272-1.83-3.474-2.789-3.622-2.887a43.329,43.329,0,0,1-3.94-4.217,30,30,0,0,1-3.23-4.8,23.651,23.651,0,0,1-2.078-5.264,17.011,17.011,0,0,1-.5-5.621C12.331,28.817,12.345,28.469,12.368,28.154Z"/>
</svg>
