<!-- Generated by IcoMoon.io -->
<svg version="1.1" xmlns="http://www.w3.org/2000/svg" width="72" height="72" viewBox="0 0 72 72">
<title>monogram-yes-body</title>
<path d="M46.204 0h-12.782c-1.661 2.97-4.179 7.266-6.090 9.266l-0.043 0.039c0 0-0.916 0.713-1.309-1.030-0.171-0.763-0.913-3.598-2.118-6.215-0.332-0.72-0.699-1.426-1.098-2.061h-2.31v72h28.591c-3.205-18.811-1.79-30.36-1.309-33.337-1.469-15.353 3.904-32.096 4.767-35.044-1.547-1.398-3.811-2.581-6.3-3.619zM53.485 52.437l-0.642-1.768-2.934 4.075 4.838 1.341-0.617-1.883 5.911-2.15-0.649-1.765-5.908 2.15zM0 72h19.927v-72h-1.137c-0.403 0.628-0.77 1.316-1.105 2.018-1.194 2.521-1.925 5.206-2.096 5.961-0.392 1.747-1.309 1.034-1.312 1.030l-0.043-0.036c-1.886-1.979-4.375-6.093-6.036-8.974h-8.151l-0.046 0.018v71.982zM37.637 57.296l-0.011 0.068-0.004 0.025-0.029 0.004h-0.039c-0.014 0.004-0.025 0.004-0.036 0.004-0.014 0-0.032 0-0.054-0.004-0.018 0-0.036-0.004-0.061-0.004v0l-0.089-0.007c-0.021-0.004-0.036-0.004-0.046-0.004-0.014 0-0.036 0-0.057 0.004s-0.054 0.007-0.086 0.011l-0.061 0.007 0.025-0.054c0.011-0.029 0.021-0.061 0.032-0.089 0.007-0.032 0.018-0.064 0.025-0.096v0c0.007-0.021 0.011-0.054 0.018-0.093 0.004-0.032 0.011-0.068 0.014-0.107-0.039 0-0.082 0-0.135 0v0c-0.064 0-0.139 0.004-0.221 0.004-0.096 0.143-0.182 0.26-0.25 0.353-0.075 0.096-0.135 0.164-0.185 0.207-0.046 0.039-0.096 0.071-0.143 0.089-0.046 0.021-0.093 0.032-0.139 0.032-0.025 0-0.046 0-0.068-0.007v0c-0.021-0.004-0.039-0.014-0.054-0.025v0c-0.014-0.011-0.025-0.025-0.032-0.039-0.007-0.018-0.011-0.036-0.011-0.054 0-0.014 0-0.025 0.004-0.039h0.004c0.004-0.014 0.011-0.025 0.018-0.036v0c0.011-0.007 0.021-0.018 0.032-0.021 0.014-0.007 0.029-0.007 0.039-0.007 0.007 0 0.018 0 0.025 0 0.011 0.004 0.018 0.004 0.029 0.007v0c0.021 0.004 0.043 0.007 0.057 0.011 0.011 0.004 0.021 0.004 0.029 0.004 0.043 0 0.093-0.025 0.146-0.078v0c0.050-0.046 0.111-0.118 0.185-0.217s0.16-0.225 0.26-0.378c0.111-0.175 0.214-0.324 0.307-0.449 0.068-0.096 0.128-0.178 0.185-0.246-0.054 0.004-0.103 0.011-0.143 0.014-0.057 0.011-0.096 0.018-0.118 0.025v0c-0.029 0.007-0.057 0.021-0.078 0.036-0.018 0.011-0.036 0.029-0.050 0.043-0.014 0.018-0.025 0.036-0.032 0.054s-0.011 0.036-0.011 0.054c0 0.004 0.004 0.007 0.004 0.014v0c0.004 0.011 0.007 0.018 0.011 0.032v0c0.007 0.014 0.011 0.029 0.014 0.039 0.004 0.014 0.004 0.025 0.004 0.036s-0.004 0.025-0.007 0.036v0c-0.007 0.014-0.014 0.025-0.021 0.032-0.011 0.011-0.021 0.018-0.032 0.021v0c-0.014 0.007-0.029 0.011-0.039 0.011-0.039 0-0.068-0.014-0.093-0.043-0.011-0.014-0.018-0.032-0.025-0.050v0c-0.004-0.018-0.007-0.039-0.007-0.061 0-0.032 0.007-0.061 0.014-0.093 0.007-0.029 0.018-0.057 0.036-0.086v0c0.014-0.029 0.036-0.057 0.057-0.078 0.025-0.025 0.050-0.046 0.078-0.064 0.029-0.021 0.061-0.036 0.096-0.050s0.075-0.029 0.118-0.036v0c0.021-0.007 0.054-0.011 0.089-0.014 0.039-0.007 0.086-0.011 0.135-0.014 0.046-0.004 0.086-0.007 0.111-0.011v0c0.029-0.004 0.046-0.007 0.057-0.011v0c0.014-0.004 0.032-0.011 0.046-0.018 0.014-0.011 0.032-0.021 0.046-0.032l0.082-0.071-0.025 0.103c-0.011 0.046-0.021 0.089-0.032 0.132v0c-0.007 0.043-0.014 0.078-0.018 0.114l-0.093 0.674-0.050 0.446c0.018 0.004 0.032 0.007 0.050 0.007 0.021 0.004 0.046 0.007 0.068 0.007 0.014 0 0.029-0.004 0.043-0.004s0.032-0.004 0.050-0.007l0.050-0.011-0.011 0.050zM37.198 56.804l-0.018 0.004c-0.014 0-0.029 0-0.043 0-0.064 0-0.114 0-0.157 0l-0.050-0.004 0.26-0.385c0.011-0.018 0.032-0.050 0.064-0.093l0.018-0.025c-0.007 0.039-0.014 0.078-0.021 0.125-0.018 0.107-0.036 0.235-0.054 0.378zM38.56 56.223l0.014-0.054 0.007-0.025h0.025c0.043-0.004 0.089-0.011 0.135-0.018s0.093-0.018 0.143-0.029l0.061-0.014-0.018 0.057c-0.014 0.039-0.025 0.075-0.036 0.107v0c-0.011 0.032-0.018 0.061-0.025 0.086v0l-0.050 0.214c0.046-0.004 0.089-0.011 0.125-0.021 0.046-0.018 0.082-0.039 0.114-0.071v0c0.032-0.029 0.054-0.064 0.071-0.1 0.014-0.036 0.021-0.075 0.021-0.118 0-0.057-0.018-0.1-0.061-0.135-0.021-0.014-0.050-0.029-0.082-0.036v0c-0.032-0.011-0.075-0.014-0.118-0.014-0.068 0-0.135 0.007-0.2 0.021-0.064 0.018-0.125 0.043-0.185 0.071-0.061 0.032-0.114 0.071-0.164 0.114-0.046 0.039-0.086 0.086-0.121 0.135v0c-0.032 0.054-0.057 0.103-0.075 0.153-0.014 0.050-0.025 0.1-0.025 0.153 0 0.011 0 0.025 0.004 0.036s0.004 0.025 0.007 0.032v0.004c0.004 0.011 0.007 0.018 0.014 0.029 0.004 0.011 0.011 0.021 0.018 0.029 0 0.004 0.007 0.011 0.014 0.014v0.004c0.011 0.007 0.021 0.014 0.039 0.025v0c0.018 0.014 0.032 0.025 0.043 0.036 0.014 0.011 0.025 0.021 0.029 0.029h0.004c0.004 0.011 0.011 0.018 0.014 0.029v0c0 0.011 0.004 0.021 0.004 0.032 0 0.014-0.004 0.025-0.007 0.039-0.004 0.011-0.011 0.021-0.021 0.029v0c-0.011 0.011-0.021 0.018-0.032 0.021v0c-0.011 0.004-0.021 0.007-0.036 0.007-0.029 0-0.061-0.011-0.086-0.032-0.029-0.018-0.054-0.043-0.078-0.078s-0.043-0.075-0.054-0.118c-0.014-0.043-0.018-0.089-0.018-0.139 0-0.139 0.039-0.271 0.121-0.399 0.039-0.061 0.089-0.121 0.146-0.171s0.121-0.096 0.196-0.132c0.075-0.039 0.15-0.068 0.232-0.086 0.082-0.021 0.168-0.029 0.253-0.029 0.071 0 0.135 0.007 0.193 0.021s0.107 0.036 0.146 0.068v0c0.039 0.029 0.071 0.064 0.093 0.103 0.018 0.036 0.029 0.078 0.029 0.125 0 0.043-0.007 0.082-0.018 0.118-0.014 0.039-0.036 0.075-0.061 0.107v0c-0.029 0.036-0.061 0.064-0.1 0.093v0c-0.014 0.007-0.025 0.014-0.039 0.021 0.025 0.011 0.050 0.021 0.071 0.036v0c0.021 0.014 0.043 0.029 0.057 0.046 0.018 0.021 0.032 0.039 0.046 0.064v0c0.011 0.021 0.021 0.046 0.025 0.071 0.007 0.025 0.011 0.050 0.011 0.078 0 0.046-0.007 0.089-0.021 0.132v0c-0.014 0.043-0.032 0.086-0.061 0.125-0.025 0.039-0.057 0.078-0.096 0.111s-0.082 0.061-0.132 0.086v0c-0.050 0.029-0.103 0.046-0.153 0.061-0.054 0.011-0.107 0.018-0.16 0.018-0.018 0-0.039 0-0.075-0.004-0.032 0-0.075-0.004-0.121-0.007-0.025 0-0.050-0.004-0.071-0.004-0.025 0-0.050 0-0.075 0-0.039 0-0.078 0-0.111 0.004s-0.064 0.007-0.093 0.014l-0.057 0.011 0.014-0.054 0.018-0.064 0.007-0.025h0.025c0.039-0.004 0.071-0.007 0.096-0.018 0.021-0.007 0.043-0.018 0.054-0.029 0.014-0.014 0.029-0.039 0.043-0.071 0.018-0.039 0.032-0.086 0.046-0.139v0l0.171-0.677c0.004-0.011 0.007-0.025 0.007-0.036 0.004-0.007 0.004-0.014 0.004-0.021v0 0l-0.004-0.004c0-0.004-0.004-0.004-0.004-0.004v0 0c-0.004 0-0.007 0-0.011 0h-0.018l-0.050 0.007 0.011-0.050zM38.781 56.687c0.046 0 0.086 0.004 0.118 0.007 0.039 0.004 0.068 0.007 0.086 0.014s0.032 0.014 0.046 0.025v0c0.014 0.011 0.029 0.025 0.039 0.039v0c0.021 0.032 0.032 0.068 0.032 0.111 0 0.050-0.007 0.093-0.025 0.135-0.014 0.043-0.039 0.086-0.071 0.125-0.032 0.036-0.071 0.064-0.114 0.082v0c-0.046 0.021-0.103 0.029-0.168 0.029-0.021 0-0.050 0-0.078-0.004v0c-0.011-0.004-0.025-0.007-0.039-0.007l0.004-0.007c0.011-0.018 0.021-0.036 0.029-0.057 0.014-0.036 0.029-0.075 0.046-0.121 0.014-0.046 0.029-0.103 0.043-0.164l0.054-0.207zM40.938 56.494h-0.1l0.004-0.039c0.004-0.029 0.004-0.057 0.004-0.078 0.004-0.025 0.004-0.046 0.004-0.064 0-0.050-0.007-0.093-0.018-0.128-0.007-0.032-0.021-0.057-0.039-0.075h-0.004c-0.018-0.018-0.039-0.032-0.064-0.039v0c-0.025-0.011-0.050-0.014-0.082-0.014-0.043 0-0.086 0.007-0.128 0.025v0c-0.046 0.018-0.093 0.043-0.139 0.078s-0.089 0.082-0.132 0.139c-0.039 0.054-0.078 0.121-0.114 0.2-0.036 0.075-0.061 0.153-0.078 0.232v0c-0.018 0.078-0.025 0.16-0.025 0.242 0 0.075 0.007 0.146 0.025 0.203 0.014 0.057 0.036 0.107 0.068 0.146v0c0.029 0.039 0.064 0.068 0.1 0.089 0.036 0.018 0.078 0.029 0.121 0.029 0.061 0 0.121-0.021 0.178-0.057 0.057-0.039 0.114-0.096 0.168-0.175v0c0.011-0.011 0.018-0.018 0.029-0.025v0c0.011-0.007 0.025-0.014 0.036-0.014s0.018 0.004 0.029 0.007v0c0.007 0.004 0.014 0.007 0.021 0.014v0c0.007 0.007 0.011 0.014 0.014 0.021v0c0.007 0.007 0.007 0.018 0.007 0.025 0 0.029-0.029 0.078-0.086 0.146-0.029 0.032-0.057 0.061-0.093 0.089-0.032 0.025-0.071 0.050-0.114 0.071v0c-0.039 0.021-0.082 0.036-0.121 0.046-0.043 0.011-0.082 0.018-0.125 0.018-0.096 0-0.185-0.025-0.271-0.075-0.043-0.029-0.078-0.057-0.111-0.096-0.036-0.036-0.061-0.075-0.086-0.121v0c-0.021-0.050-0.039-0.1-0.050-0.153-0.014-0.057-0.018-0.114-0.018-0.178 0-0.086 0.011-0.175 0.036-0.26 0.021-0.089 0.057-0.175 0.1-0.26 0.093-0.175 0.207-0.307 0.346-0.403 0.068-0.046 0.135-0.082 0.203-0.107 0.071-0.021 0.139-0.036 0.203-0.036 0.025 0 0.050 0.004 0.075 0.004 0.021 0.004 0.046 0.007 0.071 0.014v0c0.011 0.004 0.036 0.011 0.078 0.025v0c0.043 0.014 0.096 0.032 0.164 0.054l0.032 0.014-0.011 0.032c-0.021 0.064-0.039 0.128-0.050 0.196-0.014 0.068-0.021 0.135-0.021 0.203l-0.004 0.036h-0.032zM52.886 4.147c1.23 1.187 1.908 3.434 2.243 5.045l11.541 27.318-13.042 7.459-5.191-6.022-0.089-0.178c-0.068-1.276-0.688-15.142 4.539-33.622zM8.992 0h8.985c-0.332 0.549-0.635 1.13-0.916 1.722-1.219 2.574-1.972 5.33-2.146 6.108-0.125 0.553-0.193 0.624-0.214 0.631-1.761-1.865-4.075-5.651-5.708-8.461zM23.571 0h9.060c-1.633 2.902-3.983 6.867-5.762 8.753-0.021-0.007-0.089-0.078-0.214-0.631-0.175-0.781-0.934-3.68-2.164-6.35-0.282-0.61-0.588-1.209-0.92-1.772zM28.737 19.3v11.944l2.617 2.617h8.603l2.617-2.617v-11.944h-13.837zM28.17 18.701h14.971v12.928l-2.831 2.831h-9.309l-2.831-2.831v-12.928z"></path>
</svg>
