<?xml version="1.0" encoding="UTF-8"?>
<svg width="84px" height="78px" viewBox="0 0 84 78" version="1.1" xmlns="http://www.w3.org/2000/svg" xmlns:xlink="http://www.w3.org/1999/xlink">
    <!-- Generator: Sketch 52 (66869) - http://www.bohemiancoding.com/sketch -->
    <title>6</title>
    <desc>Created with Sketch.</desc>
    <g id="Page-1" stroke="none" stroke-width="1" fill="none" fill-rule="evenodd">
        <path d="M62.598035,18.0724336 C62.8697481,16.9027927 63.1683635,15.719687 63.494479,14.5228172 C63.0054552,14.0335967 62.4076266,13.6254642 61.7012921,13.2993172 L61.6196885,13.2993172 L49.3937947,8.73026699 L49.3121911,8.48550714 L49.2305875,8.32213442 C47.491803,7.88707227 45.7258173,7.57439006 43.9326304,7.38378855 C42.1394435,7.19348627 40.4278602,7.09833512 38.7975816,7.09833512 L38.7975816,18.9287939 C42.3842543,18.8743364 46.1466886,19.0377091 50.0863791,19.4186129 C54.0260696,19.7992174 57.95201,20.5065674 61.8642004,21.5400644 C62.0815111,20.3973531 62.326023,19.2417754 62.598035,18.0724336 Z M35.618927,6.36405555 C39.8572328,5.87453583 44.3400506,6.22821083 49.0676792,7.42478134 L48.0893327,3.26386374 L48.0893327,3.10049102 C48.0893327,2.23006752 46.5950601,1.63163265 43.6065149,1.30548565 C40.6179697,0.979039435 38.8247828,0.815965935 38.2269542,0.815965935 C37.7382294,0.815965935 36.7192305,0.883888292 35.1705555,1.02003222 C33.6218805,1.15587694 32.1954615,1.4144008 30.8912984,1.79500537 C30.1849639,1.95807887 29.6008854,2.14868037 29.1390628,2.36621145 C28.6772402,2.58374252 28.4464783,2.82820316 28.4464783,3.10049102 L28.4464783,3.18187816 C28.4464783,3.39970845 28.3783259,3.76684824 28.2426188,4.28359675 C28.1066128,4.80004603 27.9571556,5.33055854 27.7942473,5.87453583 C27.7398449,6.20098205 27.6719914,6.50019948 27.5903878,6.77188891 C27.5090831,7.04387755 27.4140283,7.31616541 27.3049246,7.58785484 C28.6093866,7.26170784 31.3806211,6.85357526 35.618927,6.36405555 Z M37.9827413,7.09833512 C35.102702,7.1527927 32.6438329,7.37032377 30.6061341,7.75122756 C28.5684354,8.13183213 27.3596259,8.37659199 26.979108,8.48550714 L26.979108,8.56689428 L26.8975044,8.64858064 L26.8161997,8.73026699 L15.0787319,13.2993172 C14.3723974,13.6254642 13.7748677,14.0335967 13.285545,14.5228172 C13.6116605,15.719687 13.9105748,16.9162575 14.1822879,18.112828 C14.454001,19.3096977 14.6985129,20.4521099 14.9161225,21.5400644 C16.3831939,21.2136182 19.1950807,20.7237993 23.351783,20.0712061 C27.5090831,19.4186129 32.385571,19.0377091 37.9827413,18.9287939 L37.9827413,7.09833512 Z M12.1445891,15.950982 C11.9816808,16.1954427 11.8456748,16.4542658 11.7371689,16.7259552 C11.5195593,17.1065598 11.1121391,18.1672856 10.5146094,19.9081326 C9.91678084,21.6486804 9.18324514,23.7970615 8.31400236,26.3535753 C7.28155236,29.3451511 6.14029756,32.7445604 4.89023796,36.5521022 C3.64077618,40.3599432 2.36351537,44.1944146 1.0596512,48.056414 L11.3294498,51.8911846 L16.2199867,41.9371183 C16.2199867,40.0876554 16.1383831,38.0206613 15.9754748,35.7361363 C15.8125665,33.4519104 15.5677557,31.1263925 15.2419391,28.7604803 C14.9161225,26.3942688 14.5218545,24.0415222 14.060032,21.7028387 C13.5982094,19.3641553 13.1226367,17.2154749 12.6336129,15.257396 C12.4707046,15.4749271 12.3077963,15.7062222 12.1445891,15.950982 Z M59.9487575,36.0625825 C60.0844646,32.4184134 60.6688421,27.8493632 61.7012921,22.3557312 C58.4407349,21.4853077 55.1670255,20.8599432 51.879566,20.4793387 C48.5921065,20.0984349 45.3727995,19.853675 42.2210471,19.7450591 L42.2210471,45.6088154 L39.8572328,45.6088154 L39.8572328,19.7450591 C39.368209,19.7450591 38.8791852,19.7450591 38.3901614,19.7450591 C37.9008387,19.7450591 37.4393151,19.7719886 37.0043948,19.8264462 L37.0043948,45.6088154 L34.4776722,45.6088154 L34.4776722,19.9081326 C29.7503425,20.1256636 25.6477437,20.519733 22.1698758,21.0912383 C18.6923069,21.6618459 16.3284926,22.0837425 15.0787319,22.3557312 C16.1114808,27.9038208 16.6955593,32.4863357 16.8312664,36.1035753 C16.9672724,39.7208148 17.0348271,41.6923584 17.0348271,42.0188047 C17.0895284,42.2363357 17.2252355,43.1884456 17.4428451,44.8745358 C17.6598569,46.5606261 17.7552105,48.9265383 17.7280093,51.9725717 C17.7008081,55.0189044 17.4562962,58.7175311 16.9944736,63.0690502 C16.532651,67.4205693 15.6496582,72.3974528 14.3451962,78 L13.4487522,78 C14.590007,73.2678763 15.4048474,68.9842796 15.8938712,65.149509 C16.3831939,61.3147384 16.6818093,57.9422587 16.7906141,55.0323692 C16.89912,52.1221805 16.89912,49.6880466 16.7906141,47.7299678 C16.6818093,45.7721881 16.5461022,44.3305585 16.3831939,43.4056775 L11.7371689,52.9519104 L11.3294498,52.7888369 L0,48.5459337 L0.162908294,48.1381004 C1.4129679,44.276101 2.68963088,40.4003376 3.99379397,36.5114086 C5.29795706,32.6221805 6.46641306,29.1545496 7.49856414,26.1088154 C8.42250825,23.4978441 9.18324514,21.3222342 9.78107374,19.5816864 C10.3786034,17.8408393 10.7588224,16.7804128 10.9220296,16.399509 C11.6283641,14.9309498 12.4297534,13.9246816 13.3264963,13.3807043 C14.2229402,12.8370262 14.7257141,12.5650376 14.83422,12.5650376 L26.3271759,7.99598742 C26.3812794,7.8326147 26.4766331,7.53339727 26.6123402,7.09833512 C26.7480473,6.66327298 26.8703032,6.17375326 26.979108,5.62977597 C27.1420163,5.14025625 27.2777234,4.65043732 27.3868271,4.16121682 C27.495333,3.6716971 27.5766377,3.3180221 27.6310401,3.10049102 C27.6310401,2.61097131 27.9165033,2.18937395 28.4868318,1.83569894 C29.0577581,1.48202394 29.7775437,1.19657051 30.6470854,0.979039435 C32.005352,0.598135645 33.4861734,0.339911002 35.0889519,0.204066288 C36.6923282,0.0679223569 37.7382294,0 38.2269542,0 C38.8791852,0 40.8218293,0.217531073 44.0548864,0.652892435 C47.2879434,1.08795458 48.904472,1.90392052 48.904472,3.10049102 L48.904472,3.18187816 L49.9641232,7.6695412 C50.0185256,7.72399877 50.072928,7.75122756 50.1273304,7.75122756 L50.0457268,7.99598742 L50.0457268,8.15906092 L61.945804,12.5650376 C62.0543099,12.5650376 62.5570837,12.8370262 63.4538266,13.3807043 C64.3502706,13.9246816 65.1519588,14.9309498 65.8582933,16.399509 C66.0212016,16.7259552 66.3742194,17.6640018 66.9179445,19.2145466 C67.4610718,20.7647921 68.1267539,22.6821774 68.914692,24.9664033 C69.7026301,27.2509283 70.571574,29.8346709 71.5230182,32.7176308 C72.4738646,35.6002915 73.4653633,38.5649379 74.4978133,41.6106721 C75.4761598,44.5480896 76.4404573,47.4717431 77.3916026,50.3819319 C78.3421501,53.2918214 83.1851596,68.4286328 84,70.9309882 L83.2574969,71.2149455 C82.3879552,68.4953583 78.1795407,55.4267378 77.0654871,52.0545573 C75.9514335,48.6820776 74.8239288,45.2823692 73.6829729,41.8557312 C72.650224,38.8096977 71.6587253,35.8588154 70.70758,33.0030842 C69.7570325,30.1473531 68.8874908,27.5773746 68.0995527,25.2928495 C67.3116146,23.0083244 66.6462314,21.0912383 66.1025063,19.5409928 C65.559379,17.9904481 65.2060623,17.0524014 65.0428551,16.7259552 C64.9343492,16.4542658 64.7986421,16.1954427 64.6354349,15.950982 C64.4725266,15.7062222 64.3093194,15.4749271 64.1464111,15.257396 C63.6573873,17.2154749 63.1821135,19.3641553 62.7202909,21.7028387 C62.2581694,24.0415222 61.8642004,26.3942688 61.5383838,28.7604803 C61.2122683,31.1263925 60.9674575,33.4519104 60.8048481,35.7361363 C60.6416409,38.0206613 60.5600373,40.0876554 60.5600373,41.9371183 L74.6610205,73.4309498 L83.7402435,70.1278886 L84,70.9309882 L74.2536003,74.4916756 L74.0903931,74.1652294 L60.397129,43.4873638 C60.2339218,44.4122449 60.0982147,45.86704 59.9897088,47.8526469 C59.880904,49.8376554 59.880904,52.2717892 59.9897088,55.1547491 C60.0982147,58.0377091 60.397129,61.3964247 60.8861528,65.2311953 C61.3751766,69.0659659 62.1903159,73.3223339 63.3315707,78 L62.4348278,78 C61.1306647,72.3974528 60.2476718,67.4205693 59.7858493,63.0690502 C59.3237277,58.7175311 59.0795148,55.0189044 59.0523136,51.9725717 C59.0251124,48.9265383 59.1201671,46.5606261 59.3374778,44.8745358 C59.5547885,43.1884456 59.6907945,42.2363357 59.7451969,42.0188047 C59.7451969,41.6923584 59.8130505,39.7070508 59.9487575,36.0625825 Z" id="6" fill="#231F20"></path>
    </g>
</svg>