<?xml version="1.0" encoding="UTF-8"?>
<svg width="84px" height="78px" viewBox="0 0 84 78" version="1.1" xmlns="http://www.w3.org/2000/svg" xmlns:xlink="http://www.w3.org/1999/xlink">
    <!-- Generator: Sketch 52 (66869) - http://www.bohemiancoding.com/sketch -->
    <title>5</title>
    <desc>Created with Sketch.</desc>
    <g id="Page-1" stroke="none" stroke-width="1" fill="none" fill-rule="evenodd">
        <path d="M62.5050616,18.0724336 C62.7763711,16.9024935 63.074543,15.719687 63.4001741,14.5231165 C62.9118766,14.0335967 62.314936,13.6254642 61.6096505,13.299018 L61.5281681,13.299018 L49.2389504,8.73026699 L49.2389504,8.48550714 L49.157468,8.32243364 C47.421266,7.88707227 45.6579032,7.57439006 43.8673797,7.38408777 C42.0768561,7.19348627 40.3678149,7.09833512 38.7399577,7.09833512 L38.7399577,18.9290931 C42.3213033,18.8743364 46.0781495,19.0377091 50.0119886,19.4186129 C53.9458276,19.7992174 57.8659371,20.5062682 61.7723169,21.5397652 C61.9893048,20.3976523 62.2334536,19.2417754 62.5050616,18.0724336 Z M35.5660241,6.36405555 C39.7980351,5.87453583 44.2741948,6.22821083 48.9948016,7.42478134 L48.0179082,3.26356452 L48.0179082,3.10049102 C48.0179082,2.23006752 46.525855,1.63163265 43.5417485,1.30518644 C40.5576421,0.979338653 38.7671185,0.815965935 38.1701778,0.815965935 C37.6821788,0.815965935 36.6646934,0.883888292 35.1183186,1.01973301 C33.5719438,1.15587694 32.1476433,1.4144008 30.8454172,1.79500537 C30.1401318,1.95807887 29.5569208,2.14868037 29.0957841,2.36591223 C28.6346474,2.58374252 28.4042283,2.82850238 28.4042283,3.10049102 L28.4042283,3.18217738 C28.4042283,3.39970845 28.3361771,3.76684824 28.2006716,4.28359675 C28.0648676,4.80004603 27.9156324,5.33055854 27.752966,5.87453583 C27.6986444,6.20098205 27.6308917,6.50019948 27.5494093,6.77188891 C27.4682253,7.04387755 27.3733118,7.3158662 27.2643701,7.58815406 C28.5668947,7.26170784 31.3340132,6.85357526 35.5660241,6.36405555 Z M37.9263276,18.9290931 L37.9263276,7.09833512 C35.0505659,7.15249348 32.5953488,7.37032377 30.5606765,7.75092834 C28.5260042,8.13183213 27.3189902,8.37659199 26.9390374,8.48550714 L26.9390374,8.56689428 L26.857555,8.64858064 L15.0563363,13.299018 C14.3510509,13.6254642 13.7544087,14.0335967 13.2658127,14.5231165 C13.5914439,15.719687 13.8899142,16.9162575 14.1612237,18.112828 C14.4325333,19.3096977 14.676682,20.4521099 14.8939684,21.5397652 C16.3588608,21.2136182 19.1665713,20.7237993 23.3170999,20.0712061 C27.4682253,19.4186129 32.3374705,19.0377091 37.9263276,18.9290931 Z M12.6148489,15.257396 C12.4521826,15.4749271 12.2895162,15.705923 12.1265514,15.950982 C11.9638851,16.1957419 11.8280811,16.4539665 11.7197364,16.7262544 C11.5024499,17.106859 11.0956349,18.1672856 10.4989927,19.9078334 C9.90205198,21.6486804 9.16960577,23.7970615 8.30165402,26.3535753 C7.27073747,29.3451511 6.13117771,32.7445604 4.88297475,36.5524014 C3.63536874,40.3599432 2.36000497,44.1944146 1.05807735,48.056414 L11.3126228,51.8911846 L16.195896,41.9371183 C16.195896,40.0876554 16.1144136,38.0209606 15.9517473,35.7361363 C15.789081,33.4519104 15.5446338,31.1263925 15.2193011,28.7604803 C14.8939684,26.3942688 14.500286,24.0415222 14.0391494,21.7028387 C13.5780127,19.3641553 13.1031464,17.2154749 12.6148489,15.257396 Z M59.8597189,36.0625825 C59.9952245,32.4181142 60.578734,27.8493632 61.6096505,22.3557312 C59.9277702,21.920669 58.2455913,21.5397652 56.563711,21.2136182 C54.8818306,20.887172 53.1996518,20.6421129 51.5177714,20.4793387 L51.5177714,45.8535753 L49.0759856,45.8535753 L49.0759856,20.1528924 C45.1152842,19.8264462 41.3035195,19.7040663 37.6412884,19.7854534 C33.9787589,19.867439 30.6558886,20.0712061 27.6717821,20.3976523 L27.6717821,45.8535753 L25.1485139,45.8535753 L25.1485139,20.6421129 C22.706728,20.9685592 20.6177341,21.2950054 18.8818306,21.6214516 C17.1453302,21.9475986 15.8702649,22.1923584 15.0563363,22.3557312 C16.0875513,27.9038208 16.6707623,32.4863357 16.8062679,36.1035753 C16.9420719,39.7208148 17.0095262,41.6926577 17.0095262,42.0185054 C17.0641463,42.2363357 17.1996518,43.1884456 17.4169382,44.8742366 C17.6336277,46.5606261 17.7288397,48.9265383 17.7016789,51.972871 C17.6745181,55.0189044 17.4303694,58.7175311 16.9692327,63.0690502 C16.508096,67.4205693 15.6264146,72.3974528 14.3238901,78 L13.4287775,78 C14.5683373,73.2678763 15.3819674,68.9842796 15.8702649,65.149509 C16.3588608,61.3150376 16.6570327,57.9422587 16.7656759,55.0323692 C16.8740206,52.1224797 16.8740206,49.6880466 16.7656759,47.7299678 C16.6570327,45.7718889 16.5215272,44.3305585 16.3588608,43.4056775 L11.7197364,52.9519104 L0,48.5459337 L0.162666335,48.1381004 C1.41086929,44.276101 2.68563611,40.4006368 3.98786221,36.5114086 C5.2900883,32.6221805 6.45680885,29.1545496 7.48742694,26.1088154 C8.40999876,23.4978441 9.16960577,21.3222342 9.76654645,19.5816864 C10.3631887,17.8411386 10.7428429,16.7804128 10.9058077,16.3998082 C11.6110931,14.931249 12.4112921,13.9246816 13.3067031,13.3807043 C14.2018157,12.8370262 14.7038428,12.5647384 14.8121875,12.5647384 L26.2880736,7.99598742 C26.3420968,7.8326147 26.4373088,7.53339727 26.5728143,7.09833512 C26.7083199,6.66327298 26.8303942,6.17375326 26.9390374,5.62977597 C27.1017038,5.14025625 27.2372093,4.65073654 27.346151,4.1609176 C27.4544957,3.6716971 27.5356796,3.3180221 27.5900012,3.10049102 C27.5900012,2.61097131 27.8750404,2.18937395 28.4445218,1.83569894 C29.0146002,1.48202394 29.7333168,1.19657051 30.601567,0.979338653 C31.9578162,0.598434863 33.4364383,0.339911002 35.0368362,0.204066288 C36.6378311,0.0682215743 37.6821788,0 38.1701778,0 C38.8214401,0 40.7611989,0.21783029 43.989454,0.652892435 C47.2177092,1.08795458 48.8318368,1.9036213 48.8318368,3.10049102 L48.8318368,3.18217738 L49.8899142,7.6695412 C49.9442358,7.72399877 49.9985574,7.75092834 50.052879,7.75092834 L49.9713966,7.99598742 L49.9713966,8.15906092 L61.8537993,12.5647384 C61.962144,12.5647384 62.4641711,12.8370262 63.3595821,13.3807043 C64.2546947,13.9246816 65.0551921,14.931249 65.7604776,16.3998082 C65.9231439,16.7262544 66.2756374,17.6643011 66.8185549,19.2145466 C67.3608755,20.7647921 68.025569,22.6818782 68.8123368,24.9664033 C69.5991046,27.2509283 70.4667579,29.8346709 71.416789,32.7173316 C72.3662231,35.6002915 73.3562492,38.5646386 74.3871658,41.6106721 C75.3640592,44.5480896 76.3269245,47.4717431 77.2766571,50.3819319 C78.2257928,53.2918214 83.1863699,68.3978134 84,70.8998696 L83.2021888,71.1910081 C82.334237,68.4717201 78.0634249,55.4267378 76.951026,52.0542581 C75.838627,48.6820776 74.7127969,45.2823692 73.5735356,41.8557312 C72.5423206,38.8096977 71.5522945,35.8588154 70.6025619,33.0030842 C69.6534262,30.1476523 68.785176,27.5773746 67.9984082,25.2928495 C67.2116403,23.0083244 66.5472454,21.0909391 66.0043278,19.5409928 C65.4620072,17.9904481 65.1092153,17.0521022 64.9462505,16.7262544 C64.8379057,16.4539665 64.7024002,16.1957419 64.5394354,15.950982 C64.3767691,15.705923 64.2138043,15.4749271 64.0511379,15.257396 C63.5628404,17.2154749 63.0882726,19.3641553 62.6271359,21.7028387 C62.1657008,24.0415222 61.7723169,26.3942688 61.4469842,28.7604803 C61.1213531,31.1263925 60.8769059,33.4519104 60.714538,35.7361363 C60.5515732,38.0209606 60.4700908,40.0876554 60.4700908,41.9371183 L74.5501306,73.4309498 L83.7358537,70.0982661 L84,70.8998696 L74.1433155,74.4916756 L73.9803507,74.1652294 L60.3074244,43.4873638 C60.1444596,44.4119457 60.0089541,45.86704 59.9006094,47.8526469 C59.7919662,49.8376554 59.7919662,52.2717892 59.9006094,55.1547491 C60.0089541,58.0377091 60.3074244,61.3964247 60.7957219,65.2311953 C61.2840194,69.0659659 62.097948,73.3223339 63.2375078,78 L62.3420968,78 C61.0398707,72.3974528 60.1581893,67.4205693 59.6970526,63.0690502 C59.2356175,58.7175311 58.9917672,55.0189044 58.9646064,51.972871 C58.9374456,48.9265383 59.0323592,46.5606261 59.2493471,44.8742366 C59.466335,43.1884456 59.602139,42.2363357 59.6564606,42.0185054 C59.6564606,41.6926577 59.7242134,39.7070508 59.8597189,36.0625825 Z" id="5" fill="#000000"></path>
    </g>
</svg>