<svg width="72px" height="55px"  id="Fill_1_Copy_2" data-name="Fill 1 Copy 2" xmlns="http://www.w3.org/2000/svg" viewBox="0 0 76 65">
  <defs>
  </defs>
  <path id="Fill-1-Copy-2" class="cls-1" d="M42.138,34.068a3.974,3.974,0,0,0-1.083,2.371,3.281,3.281,0,0,0,.513,2.493,2.317,2.317,0,0,0,2,1.068,3.481,3.481,0,0,0,2.225-1.129,4.44,4.44,0,0,0,1.2-2.432,3.508,3.508,0,0,0-.627-2.432,2.353,2.353,0,0,0-2-1.007A2.94,2.94,0,0,0,42.138,34.068ZM31.224,31.99A4.328,4.328,0,0,0,30.015,34.5a3.686,3.686,0,0,0,.6,2.446A2.3,2.3,0,0,0,32.654,38a3.531,3.531,0,0,0,2.2-1.1,3.83,3.83,0,0,0,1.1-2.513,2.991,2.991,0,0,0-.55-2.393A2.4,2.4,0,0,0,33.423,31,3.046,3.046,0,0,0,31.224,31.99ZM17.764,5.865Q24.6,8.33,28.522,10.026a38.572,38.572,0,0,1,5.51,2.763,9.165,9.165,0,0,1,2.027,1.655,3.051,3.051,0,0,1,1.235-.082,19.328,19.328,0,0,1,1.94.42Q46.2,16.74,51.4,18.1t8.861,2.293c2.438.628,4.422,1.147,5.948,1.573s2.674.781,3.439,1.065l.091.082h.085a.282.282,0,0,1,.181.087.25.25,0,0,0,.176.082A7.545,7.545,0,0,1,72.249,24.9a13.148,13.148,0,0,1,1.722,2.463,17.249,17.249,0,0,1,1.5,4.38,25.8,25.8,0,0,1,.533,5.4c0,1.016-.034,2.081-.091,3.184a23.683,23.683,0,0,1-.442,3.44,39.617,39.617,0,0,1-2.2,8.158,34.6,34.6,0,0,1-3.439,6.711,18.463,18.463,0,0,1-4.448,4.592A8.94,8.94,0,0,1,60.569,65a3.432,3.432,0,0,1-.529-.038,2.891,2.891,0,0,0-.529-.044,5.336,5.336,0,0,1-.793-.213,4.8,4.8,0,0,0-.794-.213L22.218,54.209a6.692,6.692,0,0,1-1.852-.808,2.823,2.823,0,0,1-1.058-1.567,17.842,17.842,0,0,1-5.334.251A114.925,114.925,0,0,1,0,50.13v-.846q6.259,1.36,11.594,1.993t7.537-.213c-.058-.169-.1-.306-.132-.42a1.666,1.666,0,0,1-.044-.426c-.118-1.021-.207-2.108-.265-3.271a26.136,26.136,0,0,1,.088-3.7L0,39.17v-.6l18.867,4c.058-.8.133-1.616.22-2.468s.221-1.7.4-2.55l-.176-.169L0,33.311v-.6l19.66,4.161V36.79l26.185,6.8q1.323.344,2.778.808a4.69,4.69,0,0,0,2.512.213q.881,0,1.675-1.485a29.029,29.029,0,0,0,1.5-3.358q-.264,1.024-.484,2.081c-.147.71-.28,1.431-.4,2.168q-.265,1.7-.4,3.315a21.423,21.423,0,0,0-.045,3.058,23.881,23.881,0,0,0,.529,5.182,18.392,18.392,0,0,0,1.411,4.167A9.472,9.472,0,0,0,57,62.493a4.77,4.77,0,0,0,2.69,1.234.926.926,0,0,0,.4.082h.4a7.255,7.255,0,0,0,4.276-1.567A17.2,17.2,0,0,0,68.77,57.95a31.943,31.943,0,0,0,3.394-6.5,39.349,39.349,0,0,0,2.159-7.945q.264-1.614.4-3.233c.091-1.076.13-2.124.13-3.14a31.214,31.214,0,0,0-.572-5.144,13.724,13.724,0,0,0-1.456-4.117,8.678,8.678,0,0,0-2.068-2.807,5.459,5.459,0,0,0-2.6-1.272,2.7,2.7,0,0,1-.487-.044.642.642,0,0,0-.4.044,7.256,7.256,0,0,0-4.275,1.573,17.25,17.25,0,0,0-4.012,4.287,25.071,25.071,0,0,0-2.424,4.079,28.91,28.91,0,0,0-1.807,4.844q-.706,1.106-1.411,2.255t-1.411,2.162a1.693,1.693,0,0,1-.837.257,3.012,3.012,0,0,1-.75-.087.754.754,0,0,1-.22-.038,1.045,1.045,0,0,0-.309-.044h-.176L19.925,35.348a42,42,0,0,1,4.849-11.894,19.344,19.344,0,0,1,8.993-8.077c.353-.169.675-.311.97-.42a4,4,0,0,0,.706-.344,49.184,49.184,0,0,0-7.363-3.735Q23.8,9.092,19.043,7.438t-9.654-3.1Q4.5,2.886,0,1.616V0Q10.931,3.4,17.764,5.865Z"/>
</svg>
