<svg width="72px" height="72px"  xmlns="http://www.w3.org/2000/svg" viewBox="0 0 72.269 81.696">
  <defs>
  </defs>
  <g id="Cuff-03" transform="translate(-0.216)">
    <path id="Shape" class="cls-1" d="M36.32,10.69l-.12-.061c-.838-.486-8.317-4.677-9.1-6.681a1.6,1.6,0,0,1,.18-1.458C28.3.972,32.192,0,37.4,0c5.086,0,7.839,1.579,8.616,2.976a1.667,1.667,0,0,1,.12,1.579c-.9,1.7-8.8,5.649-9.693,6.074ZM37.338.607C31.713.607,28.422,1.7,27.7,2.794a.885.885,0,0,0-.12.85c.6,1.519,6.343,4.981,8.676,6.317,2.453-1.215,8.616-4.495,9.274-5.77a.947.947,0,0,0-.12-.972C44.7,1.944,41.885.607,37.338.607Z"/>
    <path id="Shape-2" data-name="Shape" class="cls-1" d="M32.072,17.433a.309.309,0,0,1-.239-.122l-6.4-8.2a.37.37,0,0,1-.06-.243l1.556-5.892a.372.372,0,0,1,.359-.243.333.333,0,0,1,.239.364l-1.5,5.71,6.043,7.775,4.009-6.438a.367.367,0,0,1,.419-.122.379.379,0,0,1,.12.425l-4.308,6.8c-.06.122-.12.182-.239.182Z"/>
    <path id="Shape-3" data-name="Shape" class="cls-1" d="M36.32,81.7a.285.285,0,0,1-.3-.3V10.326a.309.309,0,0,1,.239-.3c.12-.061.239,0,.359.122l4.009,6.438,6.043-7.775-.957-5.041c-.06-.182.06-.3.239-.364s.3.061.359.243l.957,5.163a.37.37,0,0,1-.06.243l-6.462,8.261a.451.451,0,0,1-.239.122.309.309,0,0,1-.239-.122l-3.71-5.892V81.393A.243.243,0,0,1,36.32,81.7Z"/>
    <path id="Shape-4" data-name="Shape" class="cls-1" d="M36.32,81.7c-16.4,0-22.8-5.77-23.1-6.013a.463.463,0,0,1-.12-.243c0-.122,1.8-15.307,2.393-24.722S13.164,12.087,13.1,11.784a.467.467,0,0,1,.12-.3,53.579,53.579,0,0,1,13.1-5.649.29.29,0,0,1,.359.182.3.3,0,0,1-.179.364,52.321,52.321,0,0,0-12.745,5.527c.239,2.551,2.932,29.763,2.393,38.813-.539,8.929-2.154,22.96-2.393,24.6.957.79,7.6,5.77,22.558,5.77a42.977,42.977,0,0,0,17.831-3.462,24.892,24.892,0,0,0,5.505-3.341c-.3-2.247-2.992-23.264-2.992-26.908s1.975-33.043,2.154-35.473A31.34,31.34,0,0,0,46.253,6.013a.333.333,0,0,1-.239-.364.328.328,0,0,1,.359-.243A32.417,32.417,0,0,1,59.3,11.541a.463.463,0,0,1,.12.243c0,.3-2.154,31.889-2.154,35.594S60.2,74.164,60.255,74.347c0,.121,0,.182-.12.243a19.955,19.955,0,0,1-5.744,3.523A42.718,42.718,0,0,1,36.32,81.7Z"/>
    <path id="Shape-5" data-name="Shape" class="cls-1" d="M11.907,46.467l3.77-5.71c0-.061.06-.061,0-.121-.06-1.336-1.257-22.231-2.154-28.67-.06-.3-.479-.364-.539-.061L.239,37.416a.294.294,0,0,0,.12.364l11.129,8.807A.256.256,0,0,0,11.907,46.467Z"/>
    <path id="Shape-6" data-name="Shape" class="cls-1" d="M60.793,46.284l-3.77-5.71c0-.061-.06-.061,0-.121.06-1.336,1.257-22.231,2.154-28.67.06-.3.479-.364.539-.061L72.462,37.234a.294.294,0,0,1-.12.364L61.212,46.406A.341.341,0,0,1,60.793,46.284Z"/>
    <circle id="Oval" class="cls-1" cx="1" cy="1" r="1" transform="translate(36.757 18.619)"/>
    <circle id="Oval-2" data-name="Oval" class="cls-1" cx="1" cy="1" r="1" transform="translate(36.757 28.581)"/>
    <circle id="Oval-3" data-name="Oval" class="cls-1" cx="1" cy="1" r="1" transform="translate(36.757 38.481)"/>
    <circle id="Oval-4" data-name="Oval" class="cls-1" cx="1" cy="1" r="1" transform="translate(36.757 48.382)"/>
    <circle id="Oval-5" data-name="Oval" class="cls-1" cx="1" cy="1" r="1" transform="translate(36.757 58.283)"/>
    <circle id="Oval-6" data-name="Oval" class="cls-1" cx="1" cy="1" r="1" transform="translate(36.757 68.184)"/>
    <path id="Shape-7" data-name="Shape" class="cls-1" d="M43.441,6.681c-.06,0-.12,0-.12-.061C36.8,2.855,29.8,6.256,29.739,6.317A.393.393,0,0,1,29.32,6.2a.407.407,0,0,1,.12-.425c.06-.061,7.36-3.584,14.121.364a.351.351,0,0,1,.12.425A.451.451,0,0,1,43.441,6.681Z"/>
  </g>
</svg>
