<svg width="72px" height="55px"  id="Fill_3_Copy_2" data-name="Fill 3 Copy 2" xmlns="http://www.w3.org/2000/svg" viewBox="0 0 78 60">
  <defs>
  </defs>
  <path id="Fill-3-Copy-2" class="cls-1" d="M37,15h0ZM33.755,46.07q-.8.8-1.678,1.56c-.145.152-.084.269.183.342a1.225,1.225,0,0,0,.984-.264A7.245,7.245,0,0,0,34.668,46.3,6.951,6.951,0,0,0,35.8,44.359a1.289,1.289,0,0,0,.07-1.257c-.192-.279-.459.015-.8.875A5.97,5.97,0,0,1,33.755,46.07ZM23.16,38.23V38l-.16.31C23.1,38.31,23.16,38.29,23.16,38.23ZM15,47,48,59.041a3.291,3.291,0,0,1-3.731.635q-.969-.392-5.471-2.152t-9.447-3.668q-4.94-1.914-12.97-4.939Zm1.015-.308a7.627,7.627,0,0,1,.815-.566,40.271,40.271,0,0,1-5.774-1.592Q6.989,43.191,0,40.093v-.812Q5.447,41.8,10.57,43.722t7.237,1.587v.084c.7-.655,1.515-1.482,2.435-2.488A14.354,14.354,0,0,0,22.6,39.36l.078-.079L0,30.639v-.571l22.928,8.72c.214-.6.475-1.262.773-2s.632-1.561,1.014-2.488L0,24.852v-.566l24.96,9.532q.972-2.443,2.194-5.258a54.016,54.016,0,0,1,2.722-5.416,34.583,34.583,0,0,1,3.292-4.771,13.874,13.874,0,0,1,3.825-3.3q-2.767-1.139-5.324-2.158C29.961,12.235,28.346,11.6,26.831,11q-4.8-1.87-8.9-3.3T10.445,5.133Q7.075,3.994,4.473,3.216C2.738,2.7,1.249,2.252,0,1.875V0C.977.325,2.017.707,3.13,1.142s2.236.869,3.375,1.3Q10.322,3.91,15,5.7t9.107,3.5q4.428,1.713,8.047,3.221t5.324,2.4a7.8,7.8,0,0,1,3.213-.775,7.233,7.233,0,0,1,3.532.938,43.742,43.742,0,0,0,4.514,1.425q3.864,1.1,8.292,2.283t11.584,2.975l7.89,2.849q3.088,7.825-.2,13.691A31.9,31.9,0,0,1,67.44,48.242a60.582,60.582,0,0,1-11.38,6.767,56.917,56.917,0,0,0-7.686,3.907c.705-.864,1.489-1.833,2.356-2.891a13.24,13.24,0,0,1,4.635-3.137,28.448,28.448,0,0,0,5.408-1.875,25.336,25.336,0,0,0,7.195-4.887,29.739,29.739,0,0,0,6.181-8.6,27.231,27.231,0,0,0,2.356-13q-6.991-.409-10.894,2.729a25.388,25.388,0,0,0-6.547,8.233,100.011,100.011,0,0,0-4.959,11.37A60.772,60.772,0,0,1,47.966,59Z"/>
</svg>
