<?xml version="1.0" encoding="UTF-8"?>
<svg width="70px" height="84px" viewBox="0 0 70 84" version="1.1" xmlns="http://www.w3.org/2000/svg" xmlns:xlink="http://www.w3.org/1999/xlink">
    <!-- Generator: Sketch 52 (66869) - http://www.bohemiancoding.com/sketch -->
    <title>5</title>
    <desc>Created with Sketch.</desc>
    <g id="Page-1" stroke="none" stroke-width="1" fill="none" fill-rule="evenodd">
        <path d="M66.2441195,5.29074828 C64.8404323,7.23234592 63.3824963,9.20131967 61.8690401,11.1972484 C60.3555838,13.193177 58.8010172,15.1343535 57.2053401,17.0211989 C55.6092392,18.9080444 54.095783,20.6171557 52.6649714,22.1485329 L52.5827506,22.2302401 C52.5276542,22.2302401 52.0733206,22.3397445 51.2205976,22.5583322 C50.3674507,22.777341 49.6660309,21.7109364 49.1154906,19.3591183 C48.8951049,18.3200898 48.427633,16.8569423 47.7122272,14.970518 C46.9968214,13.0836726 45.9512609,11.0195142 44.5755457,8.77720062 C43.6948506,7.35532781 42.6764145,5.89218026 41.521085,4.38860031 C40.3653316,2.88459919 39.0447129,1.42187281 37.5588048,0 L39.5401568,0 C40.8056792,1.31236838 41.9614325,2.65211287 43.006993,4.01923347 C44.0525535,5.38635406 44.960373,6.72651972 45.7308752,8.03888811 C47.1616868,10.335954 48.2487815,12.468342 48.9917355,14.4373157 C49.7346896,16.4058683 50.2436957,17.9372455 50.518754,19.0310263 C50.7938122,20.1795592 51.0417461,20.8218447 51.261708,20.9591464 C51.4816698,21.0956058 51.6194109,21.1638355 51.6745073,21.1638355 C53.0502225,19.6872104 54.4810341,18.0606486 55.9669421,16.2828864 C57.4528502,14.5055454 58.9247722,12.6738734 60.383132,10.7870279 C61.8414918,8.90018251 63.2447552,7.02681454 64.5929222,5.16776639 C65.941513,3.30829707 67.1930494,1.58570827 68.3492265,0 L70,0 C68.8993431,1.58570827 67.6469591,3.34957181 66.2441195,5.29074828 Z M34.9175673,5.24989471 C35.5227803,5.24989471 36.0453486,5.46848238 36.4856961,5.9060789 C36.9260437,6.34325425 37.1464293,6.89035519 37.1464293,7.54653938 C37.1464293,8.14839253 36.9260437,8.6676962 36.4856961,9.10529271 C36.0453486,9.54288923 35.5227803,9.76147691 34.9175673,9.76147691 C34.3119305,9.76147691 33.7893622,9.54288923 33.3490146,9.10529271 C32.9086671,8.6676962 32.6887052,8.14839253 32.6887052,7.54653938 C32.6887052,6.89035519 32.9086671,6.34325425 33.3490146,5.9060789 C33.7893622,5.46848238 34.3119305,5.24989471 34.9175673,5.24989471 Z M34.9175673,60.2105854 C35.6325493,60.2105854 36.2381861,60.4565492 36.7332062,60.9488979 C37.2286501,61.4412467 37.4761602,62.0426786 37.4761602,62.753615 C37.4761602,63.4097992 37.2286501,63.9981749 36.7332062,64.5174786 C36.2381861,65.0367823 35.6325493,65.2966447 34.9175673,65.2966447 C34.2017377,65.2966447 33.5969485,65.0367823 33.1015046,64.5174786 C32.6060606,63.9981749 32.3585505,63.4097992 32.3585505,62.753615 C32.3585505,62.0426786 32.6060606,61.4412467 33.1015046,60.9488979 C33.5969485,60.4565492 34.2017377,60.2105854 34.9175673,60.2105854 Z M34.9175673,27.6439702 C35.6325493,27.6439702 36.2381861,27.8903552 36.7332062,28.3822827 C37.2286501,28.8746315 37.4761602,29.4764846 37.4761602,30.1869999 C37.4761602,30.8436052 37.2286501,31.4311386 36.7332062,31.9508634 C36.2381861,32.4701671 35.6325493,32.7300295 34.9175673,32.7300295 C34.2017377,32.7300295 33.5969485,32.4701671 33.1015046,31.9508634 C32.6060606,31.4311386 32.3585505,30.8436052 32.3585505,30.1869999 C32.3585505,29.4764846 32.6060606,28.8746315 33.1015046,28.3822827 C33.5969485,27.8903552 34.2017377,27.6439702 34.9175673,27.6439702 Z M30.0470439,13.1249474 L30.0470439,84 L27.4884509,84 L27.4884509,13.1249474 L30.0470439,13.1249474 Z M30.5835982,12.2223782 C32.7573638,12.4413871 35.233736,12.468342 38.0131384,12.3045065 C40.7916932,12.1402499 43.6397542,11.5388179 46.5564738,10.4997894 L47.0519178,11.812579 C44.0250053,12.9059385 41.0671752,13.5351678 38.1780038,13.6990032 C35.2888324,13.8632599 32.7022674,13.8354626 30.4187328,13.6168749 C28.1347743,13.3978661 25.6172918,12.9059385 22.8654376,12.1402499 L23.2782369,10.7461744 C25.9745709,11.5114418 28.4098326,12.0037905 30.5835982,12.2223782 Z M28.2720915,4.42945388 C27.0892138,5.9060789 26.0576393,7.35532781 25.1765204,8.77720062 C23.8559017,10.8005054 22.8378894,12.6738734 22.1224836,14.3964622 C21.4070778,16.1186298 20.939182,17.4722729 20.7192202,18.4569704 C20.1691036,20.8083673 19.0408985,21.7656886 17.3350286,21.3280921 L17.1693155,21.2459638 C15.7385039,19.7693388 14.2530197,18.1154008 12.7120153,16.2828864 C11.1710108,14.4507932 9.64399237,12.5778464 8.13053613,10.6636249 C6.61707989,8.74982451 5.15914389,6.87687772 3.75545666,5.04436333 C2.35219326,3.21269128 1.1002331,1.53137723 0,0 L1.7334181,0 C2.8336512,1.47662502 4.05848697,3.10318686 5.40665395,4.88052787 C6.75482094,6.65786888 8.14409833,8.44868735 9.57490994,10.2538256 C11.0057216,12.0585427 12.4505192,13.8219851 13.908879,15.5445739 C15.366815,17.2675839 16.7840644,18.8393935 18.1602034,20.2612663 C18.2152999,20.3160185 18.3530409,20.2612663 18.5730028,20.0974309 C18.7929646,19.9335954 19.0408985,19.27699 19.3159568,18.1288783 C19.591015,17.0894286 20.086459,15.6814544 20.8018648,13.9041134 C21.5172706,12.1267724 22.5624073,10.1443212 23.9385463,7.95675979 C24.7641449,6.69914362 25.6995126,5.4002527 26.7454969,4.06050821 C27.7906336,2.72034255 29.0014834,1.3671206 30.3771986,0 L32.2754821,0 C30.7899979,1.47662502 29.4549693,2.95325004 28.2720915,4.42945388 Z" id="5" fill="#000000"></path>
    </g>
</svg>