<?xml version="1.0" encoding="UTF-8"?>
<svg width="68px" height="84px" viewBox="0 0 68 84" version="1.1" xmlns="http://www.w3.org/2000/svg" xmlns:xlink="http://www.w3.org/1999/xlink">
    <!-- Generator: Sketch 52 (66869) - http://www.bohemiancoding.com/sketch -->
    <title>7</title>
    <desc>Created with Sketch.</desc>
    <g id="Page-1" stroke="none" stroke-width="1" fill="none" fill-rule="evenodd">
        <path d="M40.7357733,13.1249474 L40.7357733,84 L39.0518815,84 L39.0518815,13.1249474 L40.7357733,13.1249474 Z M64.3514304,5.29074828 C62.9878485,7.23234592 61.5715678,9.2008985 60.1013532,11.1972484 C58.6311386,13.193177 57.1209881,15.1343535 55.5709018,17.0216201 C54.0204038,18.9080444 52.5501892,20.6171557 51.1602579,22.1485329 L51.0803863,22.2302401 C49.3693216,22.6678366 48.2470015,21.7105152 47.7121908,19.3591183 C47.4981019,18.3200898 47.0439863,16.8573635 46.3490207,14.970518 C45.654055,13.0836726 44.6383677,11.0195142 43.3019586,8.77677945 C42.4464263,7.35532781 41.4570884,5.89260143 40.3347683,4.38860031 C39.2120364,2.88459919 37.9291496,1.42187281 36.4856961,0 L38.410438,0 C39.6398026,1.31236838 40.7625344,2.65211287 41.7782218,4.01923347 C42.7939091,5.38635406 43.6757909,6.72609855 44.4242788,8.03888811 C45.81421,10.3907062 46.8702449,12.5369928 47.5919717,14.4785905 C48.3136984,16.419767 48.8081615,17.9372455 49.075361,19.0310263 C49.3425605,20.1795592 49.5834105,20.8218447 49.7970878,20.9587253 C50.010765,21.0956058 50.1445706,21.1638355 50.1980928,21.1638355 C51.5345019,19.6872104 52.9244331,18.0602274 54.3678867,16.2833076 C55.8113402,14.5055454 57.2412073,12.6734522 58.6578997,10.7870279 C60.0745921,8.90018251 61.4377622,7.02723572 62.7474102,5.16776639 C64.0574698,3.30829707 65.273248,1.58570827 66.3963915,0 L68,0 C66.9307904,1.58570827 65.7141888,3.34957181 64.3514304,5.29074828 Z M33.9199225,5.24947354 C34.5078437,5.24947354 35.0154815,5.46848238 35.4432477,5.9060789 C35.8710138,6.34325425 36.0851028,6.86340025 36.0851028,7.46441106 C36.0851028,8.12101643 35.8710138,8.6676962 35.4432477,9.10529271 C35.0154815,9.54288923 34.5078437,9.76147691 33.9199225,9.76147691 C33.3315896,9.76147691 32.8239518,9.54288923 32.3961856,9.10529271 C31.9684195,8.6676962 31.7547422,8.12101643 31.7547422,7.46441106 C31.7547422,6.86340025 31.9684195,6.34325425 32.3961856,5.9060789 C32.8239518,5.46848238 33.3315896,5.24947354 33.9199225,5.24947354 Z M29.1885569,13.1249474 L29.1885569,84 L26.7030666,84 L26.7030666,13.1249474 L29.1885569,13.1249474 Z M29.7097811,12.2223782 C31.8214392,12.4413871 34.2270578,12.468342 36.9270487,12.3040854 C39.6262162,12.1406711 42.3929041,11.5388179 45.2262889,10.4997894 L45.7075773,11.812579 C42.767148,12.9059385 39.8938274,13.5347466 37.0872037,13.6990032 C34.28058,13.8632599 31.7679169,13.8354626 29.5496261,13.6172961 C27.3309236,13.3982872 25.5535737,13.0971501 24.2167529,12.7147269 C22.8803439,12.3318826 22.2121394,12.1128738 22.2121394,12.0585427 L22.6131444,10.7457532 C25.2324403,11.5114418 27.5981231,12.0037905 29.7097811,12.2223782 Z M27.4643175,4.42945388 C26.3152363,5.9060789 25.2859625,7.35532781 24.3773197,8.77677945 C23.1479551,10.8005054 22.1853783,12.6599747 21.4904126,14.3556086 C20.795447,16.0504001 20.3409197,17.4179419 20.1272425,18.4569704 C19.5928435,20.8083673 18.4968728,21.7652674 16.8397421,21.3276709 L16.6787637,21.2459638 C15.2888324,19.7693388 13.8457906,18.1149796 12.3488148,16.2833076 C10.8518391,14.4507932 9.36844973,12.5778464 7.8982351,10.664046 C6.42802046,8.74982451 5.01173978,6.87687772 3.6481579,5.0447845 C2.28498774,3.21269128 1.06879787,1.53095606 0,0 L1.68389187,0 C2.75268973,1.53095606 3.9425302,3.17141654 5.25217812,4.92180261 C6.56182605,6.67134634 7.9114098,8.44910852 9.30134108,10.2534045 C10.6912724,12.0585427 12.0947901,13.8219851 13.5114825,15.5449951 C14.9277631,17.2675839 16.3045197,18.8398147 17.6413405,20.2616875 C17.6948627,20.3164397 17.841843,20.2616875 18.0822814,20.0974309 C18.3231314,19.9335954 18.5503951,19.3047873 18.7640723,18.2105854 C19.0312718,17.1168047 19.5125602,15.667977 20.2075258,13.8632599 C20.9024914,12.0585427 21.9177671,10.089569 23.2545878,7.95675979 C24.0565979,6.69914362 24.9652408,5.4002527 25.9813399,4.06050821 C26.9966155,2.72034255 28.1461084,1.3671206 29.429407,0 L31.3533255,0 C29.9102837,1.47662502 28.6133987,2.95282886 27.4643175,4.42945388 Z" id="7" fill="#000000"></path>
    </g>
</svg>