<!-- Generated by IcoMoon.io -->
<svg version="1.1" xmlns="http://www.w3.org/2000/svg" width="72" height="72" viewBox="0 0 72 72">
<title>collars-collar-contrast-piping-contrast-fabrics</title>
<path d="M38.769 57.909c-0.038 0.038-0.075 0.075-0.113 0.113l-2.336 2.374c-0.151 0.151-0.414 0.151-0.565 0l-2.374-2.374c-0.151-0.151-0.151-0.414 0-0.565l2.374-2.374c0.038-0.038 0.075-0.038 0.113-0.075v-0.075c-0.038 0-0.075-0.038-0.113-0.075l-2.374-2.374c-0.151-0.151-0.151-0.414 0-0.565l2.374-2.336c0.038-0.038 0.075-0.075 0.113-0.113v-0.075c-0.038 0-0.075-0.038-0.113-0.075l-1.884-1.846-2.336 2.336c-0.264 0.264-0.64 0.414-1.017 0.414s-0.791-0.151-1.055-0.414v0 0l-2.562-2.562-2.562 2.562c-0.301 0.264-0.678 0.414-1.055 0.414s-0.754-0.151-1.055-0.414l-2.562-2.562-2.524 2.562c-0.301 0.264-0.678 0.414-1.055 0.414s-0.754-0.151-1.055-0.414v0 0l-3.090-3.090c-0.264-0.301-0.414-0.678-0.414-1.055s0.151-0.754 0.414-1.055l2.562-2.562-2.562-2.524c-0.264-0.301-0.414-0.678-0.414-1.055s0.151-0.754 0.414-1.055l2.562-2.562-2.562-2.562c-0.264-0.264-0.414-0.678-0.414-1.055s0.151-0.754 0.414-1.017v0l2.562-2.562-2.562-2.562c-0.264-0.301-0.414-0.678-0.414-1.055s0.151-0.754 0.414-1.055v0l2.562-2.562-2.562-2.524v-0.038c-0.264-0.264-0.414-0.64-0.414-1.017s0.151-0.754 0.414-1.055v0l3.090-3.090c0.301-0.301 0.678-0.414 1.055-0.414s0.754 0.113 1.055 0.414v0 0l2.524 2.562 2.562-2.562c0.301-0.301 0.678-0.414 1.055-0.414s0.754 0.113 1.055 0.414l2.562 2.562 2.562-2.562c0.264-0.301 0.64-0.414 1.055-0.414 0.377 0 0.754 0.113 1.017 0.414v0 0l2.562 2.562 2.562-2.562c0.301-0.301 0.678-0.414 1.055-0.414s0.754 0.113 1.055 0.414v0l2.562 2.562 2.524-2.562c0.301-0.301 0.678-0.414 1.055-0.414s0.754 0.113 1.055 0.414v0 0l3.090 3.090c0.301 0.301 0.414 0.678 0.414 1.055s-0.113 0.754-0.414 1.017v0.038l-2.562 2.524 2.562 2.562c0.301 0.301 0.414 0.678 0.414 1.055s-0.113 0.754-0.414 1.055l-2.562 2.562 2.562 2.562c0.301 0.264 0.414 0.64 0.414 1.017 0 0.414-0.113 0.791-0.414 1.055l-1.206 1.206 1.884 1.846c0.038 0.038 0.038 0.075 0.075 0.151h0.075c0-0.075 0.038-0.113 0.075-0.151l2.336-2.336c0.188-0.151 0.414-0.151 0.603 0l2.336 2.336c0.038 0.038 0.075 0.075 0.075 0.151h0.075c0.038-0.075 0.075-0.113 0.075-0.151l2.374-2.336c0.151-0.151 0.414-0.151 0.565 0l2.374 2.336c0.151 0.188 0.151 0.414 0 0.603l-2.374 2.336c-0.038 0.038-0.075 0.075-0.113 0.075v0.075c0.038 0.038 0.075 0.038 0.113 0.075l2.374 2.374c0.151 0.151 0.151 0.414 0 0.565l-2.374 2.374c-0.038 0.038-0.075 0.038-0.113 0.075v0.075c0.038 0 0.075 0.038 0.113 0.075l2.374 2.374c0.151 0.151 0.151 0.414 0 0.565l-2.374 2.336c-0.038 0.038-0.075 0.075-0.113 0.075v0.075c0.038 0.038 0.075 0.075 0.113 0.113l2.374 2.336c0.151 0.151 0.151 0.414 0 0.565l-2.374 2.374c-0.038 0.038-0.075 0.075-0.113 0.075v0.075c0.038 0.038 0.075 0.038 0.113 0.075l2.374 2.374c0.151 0.151 0.151 0.414 0 0.565l-2.374 2.374c-0.151 0.151-0.414 0.151-0.565 0l-2.374-2.374c0-0.038-0.038-0.075-0.075-0.113h-0.075c0 0.038-0.038 0.075-0.075 0.113l-2.336 2.374c-0.188 0.151-0.414 0.151-0.603 0l-2.336-2.374c-0.038-0.038-0.075-0.075-0.075-0.113h-0.075c-0.038 0.038-0.038 0.075-0.075 0.113l-2.374 2.374c-0.151 0.151-0.414 0.151-0.565 0l-2.374-2.374c-0.038-0.038-0.038-0.075-0.075-0.113h-0.075c0 0.038-0.038 0.075-0.075 0.113l-2.374 2.374c-0.151 0.151-0.414 0.151-0.565 0l-2.336-2.374c-0.038-0.038-0.075-0.075-0.075-0.113h-0.075zM34.776 44.986l0.98-0.942c0.038-0.038 0.075-0.075 0.113-0.075v-0.075c-0.038-0.038-0.075-0.038-0.113-0.075l-2.374-2.374c-0.151-0.151-0.151-0.414 0-0.565l2.374-2.374c0.038-0.038 0.075-0.038 0.113-0.075v-0.075c-0.038 0-0.075-0.038-0.113-0.075l-2.374-2.336c-0.151-0.188-0.151-0.414 0-0.603l2.374-2.336c0.151-0.151 0.414-0.151 0.565 0l2.336 2.336c0.038 0.038 0.075 0.075 0.113 0.151h0.038c0.038-0.075 0.075-0.113 0.113-0.151l2.336-2.336c0.151-0.151 0.414-0.151 0.565 0l2.374 2.336v-1.13l0.452-0.226 2.75-2.75-2.75-2.713-0.452-0.226v-1.319l0.452-0.226 2.75-2.713-2.75-2.713-0.452-0.226v-1.319l0.452-0.226 2.75-2.713-2.487-2.487-2.713 2.75-0.226 0.49h-1.319l-0.226-0.49-2.713-2.75-2.713 2.75-0.226 0.49h-1.319l-0.226-0.49-2.713-2.75-2.75 2.75-0.226 0.49h-1.319l-0.226-0.527-2.713-2.713-2.713 2.713-0.226 0.527h-1.319l-0.226-0.49-2.713-2.75-2.487 2.487 2.75 2.713 0.452 0.226v1.319l-0.452 0.226-2.75 2.713 2.75 2.713 0.452 0.226v1.319l-0.452 0.226-2.75 2.713 2.75 2.75 0.452 0.226v1.319l-0.452 0.188-2.75 2.75 2.75 2.713 0.452 0.226v1.319l-0.452 0.226-2.75 2.713 2.487 2.487 2.713-2.75 0.226-0.452h1.319l0.226 0.452 2.713 2.75 2.713-2.75 0.226-0.452h1.319l0.226 0.452 2.75 2.75 2.713-2.75 0.226-0.452h1.319v0.038z"></path>
</svg>
