<!-- Generated by IcoMoon.io -->
<svg version="1.1" xmlns="http://www.w3.org/2000/svg" width="72" height="72" viewBox="0 0 72 72">
<title>cuffs-cuff-contrast-fabric-contrast-outside</title>
<path d="M53.619 24.498c0.226 0 0.451 0.028 0.677 0.056 1.551 0.254 2.847 1.438 3.778 3.327 0.987 1.945 1.522 4.623 1.579 7.696 0.028 1.663-0.113 3.439-0.395 5.3-0.733 4.623-2.368 8.852-4.398 11.897-2.002 2.988-4.37 4.821-6.625 4.877-0.226 0-0.451-0.028-0.677-0.056-1.551-0.254-2.847-1.466-3.778-3.327-0.958-1.973-1.522-4.623-1.579-7.724-0.028-1.663 0.113-3.439 0.395-5.272 0.197-1.212 0.451-2.368 0.733-3.496-0.761 2.002-1.579 3.947-2.594 3.975-1.128 0.254-2.735-0.479-4.172-0.874l-20.918-5.61v0.056l-15.646-3.439v0.507l15.336 3.411 0.197 0.113c-0.254 1.438-0.423 2.819-0.536 4.172l-14.998-3.298v0.479l14.969 3.355c-0.141 2.142-0.085 4.116 0.141 5.779 0.028 0.226 0.085 0.451 0.113 0.677-2.312 0.987-8.598 0.028-15.223-1.466v0.677c10.431 2.002 14.152 1.945 15.42 1.466 0.366 1.184 1.043 1.579 2.312 1.945l28.473 8.486c0.395 0.169 0.789 0.282 1.212 0.338 0.282 0.056 0.536 0.085 0.846 0.056 2.594-0.028 5.215-2.030 7.386-5.272 2.114-3.157 3.806-7.499 4.539-12.291 0.31-1.889 0.451-3.721 0.423-5.441-0.056-3.242-0.648-6.033-1.663-8.119-0.761-1.551-1.776-2.706-2.988-3.355v0c-0.085-0.028-0.197-0.085-0.31-0.141l-0.056-0.028h-0.028l-0.056-0.028c-2.312-0.959-9.472-2.594-24.244-6.822-1.381-0.395-1.889-0.479-2.509-0.31-0.874-1.184-5.497-4.482-28.755-11.925v1.353c9.529 2.791 21.566 6.456 28.304 10.741-0.366 0.141-0.789 0.338-1.381 0.62-6.005 2.678-9.472 9.67-11.023 16.548l23.68 6.343c0.085 0.028 0.141 0.028 0.169 0.056 0.113 0.028 0.254 0.056 0.395 0.085 0.338 0.056 0.818 0.085 1.24-0.169 0.818-1.156 1.551-2.396 2.227-3.637 0.846-2.847 2.030-5.384 3.383-7.414 2.002-2.988 4.37-4.849 6.625-4.877zM30.474 31.574c1.043 0 1.776 0.93 1.607 2.086-0.141 1.184-1.099 2.114-2.142 2.142-1.043 0-1.748-0.93-1.607-2.114 0.141-1.156 1.099-2.114 2.142-2.114zM27.345 40.708c0.93 0 1.691 0.958 1.72 2.114s-0.705 2.114-1.607 2.086c-0.93 0-1.691-0.958-1.72-2.114s0.705-2.086 1.607-2.086z"></path>
</svg>
