<!-- Generated by IcoMoon.io -->
<svg version="1.1" xmlns="http://www.w3.org/2000/svg" width="72" height="72" viewBox="0 0 72 72">
<title>cuffs-cuff-contrast-fabric-contrast-inside</title>
<path d="M52.916 23.476l-22.283-6.181c-1.464-0.488-2.169-0.054-2.169-0.054l-0.054 0.054c-8.62 3.090-11.494 14.639-11.982 16.97l22.337 5.964c2.657 0.705 2.657 0.217 2.657 0.217l0.976-1.626c0.271-0.976 0.759-2.873 0.813-3.090 1.789-5.964 4.175-9 6.126-10.518 1.139-1.030 2.331-1.681 3.578-1.735zM27.271 40.283c0.542 0 1.084 0.325 1.518 0.759 0.38 0.434 0.596 1.084 0.651 1.735 0 0.054 0 0.108 0 0.163 0 0.596-0.217 1.193-0.488 1.572-0.38 0.488-0.813 0.759-1.355 0.759-0.054 0-0.108 0-0.108 0-0.596 0-1.139-0.271-1.518-0.759-0.38-0.434-0.651-1.030-0.651-1.681 0-0.108 0-0.163 0-0.163 0-0.651 0.163-1.193 0.488-1.626s0.813-0.705 1.355-0.759c0.054 0 0.054 0 0.108 0zM28.247 41.53c-0.271-0.325-0.651-0.488-0.976-0.488h-0.054c-0.325 0-0.651 0.163-0.813 0.434-0.271 0.325-0.38 0.705-0.38 1.193 0 0.054 0 0.054 0 0.108 0 0.488 0.217 0.976 0.488 1.301 0.271 0.271 0.596 0.488 0.976 0.488h0.054c0.325 0 0.596-0.217 0.813-0.488s0.38-0.705 0.38-1.139c0-0.054 0-0.108 0-0.108-0.054-0.542-0.217-0.976-0.488-1.301zM30.47 31.121c0.054 0 0.163 0 0.217 0 0.542 0.054 0.976 0.325 1.301 0.759 0.325 0.38 0.488 0.922 0.488 1.518 0 0.108 0 0.217 0 0.325-0.108 0.705-0.38 1.301-0.867 1.789-0.434 0.434-1.030 0.759-1.626 0.759-0.054 0-0.163 0-0.217-0.054-0.542-0.054-0.976-0.325-1.301-0.705-0.325-0.434-0.488-0.922-0.488-1.518 0-0.108 0-0.217 0.054-0.325 0.054-0.705 0.38-1.355 0.813-1.789 0.434-0.488 1.030-0.759 1.626-0.759zM30.632 31.825c-0.054 0-0.108 0-0.163 0-0.434 0-0.813 0.217-1.139 0.542s-0.542 0.813-0.596 1.355c0 0.108-0.054 0.163-0.054 0.271 0 0.434 0.163 0.813 0.38 1.084 0.163 0.217 0.488 0.434 0.813 0.434 0 0 0.054 0 0.108 0 0.434 0 0.813-0.163 1.139-0.488 0.325-0.38 0.542-0.867 0.596-1.355 0.054-0.108 0.054-0.163 0.054-0.271 0-0.434-0.163-0.813-0.38-1.084-0.163-0.271-0.434-0.434-0.759-0.488zM0 4.825c21.524 6.94 27.108 10.247 28.518 11.657 0.434-0.108 1.193-0.271 2.331 0.108v0l22.012 6.126c2.223 0.596 3.199 1.572 3.633 2.277 2.982 3.090 4.012 10.41 2.331 17.837-1.464 6.614-4.283 12.307-7.536 14.639-0.542 0.488-1.139 0.813-1.952 0.922-0.651 0.163-1.355 0.163-2.060 0.054-0.488-0.108-0.976-0.325-1.41-0.596-0.38-0.108-0.867-0.271-1.355-0.488l-25.699-7.645c-3.307-0.542-3.416-4.229-3.416-4.554v0c-0.38-5.313 0.163-9.217 0.217-9.813v0.271h-0.054v0.325h-0.054l-0.163-0.108-15.343-3.47v-0.488l15.669 3.47c0.054-0.38 0.596-3.687 1.355-5.693 1.464-4.12 4.5-10.518 10.898-12.958-6.831-4.175-18.542-7.753-27.922-10.518v-1.355zM15.398 47.765v-0.108h-0.054v-0.217h-0.054v-0.217h-0.054v-0.163c-2.331 1.030-8.62 0.054-15.235-1.464v0.705c10.41 2.006 14.151 1.952 15.398 1.464zM14.964 40.608v-0.325l0.054-0.054v-0.108l-15.018-3.307v0.488l14.964 3.307zM16.265 35.512c-0.108 0.759-0.542 4.554-0.163 9.596v0.054c0 0 0 3.416 2.873 3.849v0l0.054 0.054 25.428 7.536c-0.38-0.488-0.759-1.084-1.084-1.735-0.38-0.651-0.759-1.518-1.084-2.657-0.651-2.331-1.193-6.181-0.488-11.223l-0.108 0.163c-0.596 1.193-2.819 0.434-2.819 0.434l-22.608-6.072z"></path>
</svg>
