<svg width="230" height="135" viewBox="0 0 230 135" fill="none" xmlns="http://www.w3.org/2000/svg">
<path fill-rule="evenodd" clip-rule="evenodd" d="M229.871 0.71005H143.621C142.591 -0.30995 163.471 22.6201 163.471 22.6201H229.871V0.71005ZM162.751 134.2H140.161C140.161 132.83 139.471 67.1201 139.471 67.1201H228.471V89.7101H162.751V134.2Z" fill="black"/>
<path d="M0.789986 0.0100629H21.79V78.9C21.7021 87.882 25.0053 96.5667 31.04 103.22C35.61 108.14 42.1 112.28 51.04 112.28C57.2008 112.338 63.2887 110.944 68.81 108.21C74.0833 105.487 78.4974 101.354 81.5606 96.2712C84.6239 91.1881 86.2161 85.3545 86.16 79.42H108.98C109.013 89.8423 105.716 100.003 99.57 108.42C90.71 120.42 75.4 134.75 52.84 134.22C42.9548 134.068 33.3128 131.132 25.02 125.75C9.45997 115.65 0.359966 98.09 0.269966 79.5301C0.099966 52.3701 -0.0600145 -0.839937 0.789986 0.0100629Z" fill="black"/>
</svg>
