<!-- Generated by IcoMoon.io -->
<svg version="1.1" xmlns="http://www.w3.org/2000/svg" width="96" height="96" viewBox="0 0 96 96">
<title>collars-the-concealed-polo</title>
<path d="M50.223 15.816c0.014 0.067 0.061 0.083 0.122 0.084 2.085 0.050 4.161 0.249 6.236 0.438 1.892 0.173 3.78 0.392 5.665 0.64 2.231 0.293 4.456 0.624 6.667 1.042 3.756 0.711 7.482 1.54 11.009 3.071 1.374 0.597 2.68 1.315 3.73 2.417 0.699 0.733 1.052 1.62 1.287 2.606 1.576 6.637 3.171 13.269 4.806 19.892 0.335 1.354 0.111 2.487-0.706 3.602-4.313 5.887-8.671 11.74-13.131 17.519-0.57 0.738-1.234 0.912-2.035 1.014-1.429 0.183-2.864 0.251-4.301 0.163-0.319-0.020-0.42 0.097-0.455 0.371-0.13 1.001-0.42 1.97-0.464 2.994-0.054 1.222-1.305 2.072-2.511 1.821-1.256-0.261-1.999-1.469-1.62-2.681 0.299-0.955 0.416-1.949 0.667-2.913 0.102-0.39-0.257-0.288-0.396-0.326-2.336-0.639-4.546-1.565-6.525-2.961-0.592-0.418-1.031-0.446-1.674-0.182-2.069 0.851-4.248 1.258-6.475 1.434-4.128 0.328-8.175-0.145-12.162-1.206-0.304-0.081-0.406-0.014-0.523 0.255-1.565 3.608-2.814 7.329-3.978 11.081-0.307 0.991-0.611 1.984-0.922 2.973-0.101 0.323-0.25 0.628-0.46 0.895-0.322 0.41-0.656 0.433-1.021 0.056-1.745-1.804-3.389-3.699-4.996-5.626-6.764-8.11-13.049-16.588-19.276-25.11-0.289-0.396-0.442-0.851-0.671-1.272 0-0.395 0-0.79 0-1.185 0.027-0.048 0.066-0.092 0.078-0.144 1.555-6.425 3.108-12.851 4.657-19.277 0.038-0.159 0.083-0.315 0.053-0.496-0.237-1.415 0.265-2.566 1.298-3.516 1.243-1.144 2.733-1.87 4.285-2.471 4.748-1.838 9.728-2.706 14.73-3.468 2.115-0.323 4.239-0.574 6.366-0.796 2.199-0.23 4.4-0.417 6.605-0.575 0.603-0.043 1.217 0.008 1.809-0.162 1.411 0 2.823 0 4.234 0zM48.385 32.35c0.381 0 0.763-0.016 1.143 0.003 2.25 0.107 4.501 0.204 6.746 0.398 2.048 0.177 4.1 0.328 6.144 0.542 2.31 0.241 4.614 0.536 6.92 0.814 2.431 0.293 4.851 0.662 7.266 1.065 0.241 0.040 0.387-0.011 0.56-0.166 0.935-0.838 1.84-1.706 2.695-2.626 1.241-1.334 2.418-2.723 3.211-4.379 0.448-0.934 0.62-1.923 0.204-2.938-0.062-0.152-0.147-0.431-0.091-0.472 0.318-0.229 0.036-0.345-0.071-0.462-0.97-1.065-2.214-1.727-3.506-2.292-3.379-1.475-6.952-2.275-10.552-2.973-2.252-0.437-4.519-0.78-6.792-1.079-1.87-0.246-3.743-0.467-5.624-0.624-1.544-0.129-3.086-0.282-4.632-0.381-1.405-0.090-2.815-0.184-4.221-0.162-2.083 0.033-4.163 0.193-6.24 0.369-2.091 0.176-4.179 0.38-6.262 0.629-2.933 0.351-5.857 0.774-8.759 1.33-3.092 0.592-6.16 1.279-9.119 2.379-1.65 0.613-3.252 1.321-4.605 2.497-0.721 0.627-1.032 1.412-1.015 2.332 0.022 1.173 0.392 2.262 0.894 3.311 1.128 2.359 2.897 4.209 4.761 5.982 0.153 0.146 0.308 0.090 0.473 0.063 1.5-0.242 2.998-0.493 4.5-0.721 2.171-0.329 4.345-0.629 6.526-0.877 1.902-0.216 3.803-0.453 5.708-0.64 2.088-0.205 4.18-0.369 6.271-0.541 2.485-0.204 4.974-0.339 7.467-0.381zM18.389 36.222c0.11 0.212 0.27 0.307 0.405 0.422 2.774 2.361 5.759 4.426 8.885 6.289 4.643 2.767 9.464 5.155 14.631 6.794 1.555 0.493 3.136 0.889 4.767 1.027 1.758 0.149 3.439-0.278 5.099-0.777 3.318-0.998 6.459-2.423 9.528-4.014 5.11-2.65 9.945-5.725 14.412-9.365 0.211-0.172 0.412-0.354 0.69-0.595-1.8-0.275-3.488-0.555-5.183-0.788-3.429-0.472-6.867-0.886-10.314-1.217-3.35-0.321-6.704-0.579-10.065-0.763-3.091-0.17-6.169 0.003-9.247 0.218-1.896 0.132-3.789 0.3-5.682 0.478-2.018 0.19-4.036 0.392-6.049 0.625-1.901 0.22-3.8 0.469-5.695 0.736-2.055 0.29-4.104 0.616-6.182 0.93zM47.674 65.182c1.712-0.028 3.508-0.158 5.279-0.516 1.198-0.242 2.37-0.58 3.509-1.027 0.14-0.056 0.336-0.068 0.255-0.336-0.244-0.805-0.413-1.637-0.786-2.394-0.831-1.689-1.755-3.327-2.681-4.965-0.885-1.565-1.884-3.035-3.21-4.264-0.121-0.112-0.213-0.25-0.425-0.208-1.508 0.299-3.022 0.286-4.535 0.058-0.254-0.038-0.378 0.025-0.509 0.227-2.451 3.758-4.639 7.662-6.512 11.74-0.115 0.249-0.089 0.345 0.183 0.416 3.063 0.802 6.176 1.225 9.433 1.27zM58.743 63.974c0.869 0.599 1.719 1.053 2.592 1.464 2.625 1.238 5.39 1.916 8.283 2.088 1.526 0.090 3.039-0.035 4.549-0.243 0.181-0.025 0.348-0.044 0.244-0.335-1.247-3.47-2.331-6.998-3.628-10.451-0.143-0.38-0.267-0.778-0.532-1.118-3.048 3.899-6.616 7.055-11.508 8.594zM68.111 71.404c-0-0.883-0.698-1.58-1.575-1.573-0.837 0.007-1.564 0.726-1.579 1.559-0.015 0.846 0.723 1.585 1.585 1.587 0.892 0.002 1.569-0.677 1.569-1.573zM67.142 68.063c-0.146-0.030-0.237-0.017-0.258 0.167-0.027 0.234-0.106 0.462-0.148 0.695-0.031 0.177-0.123 0.372 0.204 0.415 0.281 0.036 0.409-0.005 0.41-0.314 0.001-0.177 0.047-0.362 0.11-0.53 0.124-0.331-0.029-0.429-0.318-0.432zM47.238 55.925c1.353 0.002 2.388 1.029 2.387 2.37-0.001 1.321-1.081 2.399-2.391 2.389-1.314-0.010-2.378-1.096-2.369-2.415 0.009-1.315 1.054-2.346 2.374-2.344zM48.804 58.314c0.008-0.89-0.672-1.595-1.544-1.6-0.85-0.005-1.594 0.723-1.606 1.572-0.012 0.822 0.719 1.559 1.556 1.57 0.9 0.011 1.586-0.652 1.594-1.542z"></path>
</svg>
