<!-- Generated by IcoMoon.io -->
<svg version="1.1" xmlns="http://www.w3.org/2000/svg" width="96" height="96" viewBox="0 0 96 96">
<title>collars-wing-collar</title>
<path d="M77.986 40.501v0.061l-0.020 0.020c-1.214 5.161-9.29 10.849-17.083 14.431-5.080 2.328-10.039 3.765-12.873 3.562-1.275 0-2.975-0.263-4.898-0.749 0.041-0.81-1.154-7.752 3.38-9.23 0.769-0.223 2.226-0.020 3.117-0.121 6.882-0.83 17.326-6.882 22.325-11.193 0.263-0.223 0.526-0.466 0.789-0.688-10.869-2.915-20.18-3.684-28.215-3.279-7.975 0.405-14.715 1.984-20.463 3.825 5.688 4.898 14.816 9.432 20.645 10.91 0.445 0.101 0.891 0.202 1.356 0.283l0.061 0.020c-0.506 0.182-0.85 0.182-1.437 0.486-6.902-1.761-15.808-6.619-21.050-11.274v0c1.154 2.834 2.085 6.477 3.744 12.205 6.963-1.477 12.205-1.032 17.164-0.81-2.652 1.437-3.036 4.898-3.056 8.42-5.283-1.559-19.39-8.056-22.831-15.302-0.587-1.214-0.729-1.943-0.81-3.299-0.121-2.409 0.344-5.627 0.769-7.995-0.162-0.526-0.243-1.012-0.243-1.518 0-2.368 3.562-4.149 8.278-5.424 7.894-2.145 19.188-3.056 21.617-3.056 2.611 0 13.541 0.891 21.232 3.036 4.655 1.275 8.157 3.056 8.157 5.445v0c0.020 0.526-0.041 1.073-0.202 1.64 0.486 2.894 1.073 7.266 0.546 9.594zM47.868 52.888c-0.607 0-1.093 0.486-1.093 1.093s0.486 1.093 1.093 1.093c0.607 0 1.113-0.486 1.113-1.093s-0.506-1.093-1.113-1.093zM48.374 51.957c-0.344-0.081-0.85-0.061-1.174 0.020-0.891 0.243-1.538 1.053-1.538 2.024s0.668 1.781 1.579 2.004c0.364 0.101 0.891 0.081 1.255 0 0.87-0.243 1.518-1.053 1.518-2.004 0-1.012-0.708-1.842-1.64-2.044zM73.128 36.999c-5.445 5.202-15.201 10.404-21.536 11.901l-0.020 0.020c5.040-0.243 10.404-0.466 17.589 0.85 1.741-6.052 2.793-9.918 3.967-12.772zM69.242 24.734c-7.59-2.105-18.419-2.975-20.989-2.975-2.409 0-13.561 0.891-21.374 3.016-4.311 1.174-7.55 2.672-7.55 4.493 0 1.012 0.405 2.105 1.133 3.238 0.769 1.214 1.903 2.469 3.279 3.724 5.829-1.862 12.65-3.461 20.726-3.866 8.137-0.425 17.548 0.364 28.519 3.299 1.214-1.174 2.186-2.328 2.834-3.441 0.607-1.053 0.911-2.024 0.85-2.915v-0.041c0-1.842-3.198-3.36-7.428-4.534z"></path>
</svg>
