<!-- Generated by IcoMoon.io -->
<svg version="1.1" xmlns="http://www.w3.org/2000/svg" width="72" height="72" viewBox="0 0 72 72">
<title>placket-contrast-fabric-button-placket</title>
<path d="M14.278 1.991l-2.737 10.818-0.006 0.017c0 0-0.121 0.436 0.298 1.004 0.132 0.166 0.356 0.534 0.677 1.067 1.354 2.204 4.488 7.334 8.585 11.581l0.011 0.011c-0.006 0-0.040-0.069 0.218-1.205l0.011-0.046c0.207-0.603 0.396-1.286 0.603-2.043 0.826-2.973 1.699-6.691 5.389-12.35-2.858-0.574-5.44-1.779-7.811-3.070-2.508-1.372-4.402-3.059-5.24-5.785zM23.822 20.149c4.023 1.102 8.155 1.865 12.287 1.865 0.316 0 0.631-0.006 0.947-0.017l-0.597-6.72c-0.27-2.663-5.745-4.023-8.207-4.098-2.439 3.713-3.65 6.594-4.43 8.97zM28.367 10.072l0.075 0.006c0.017 0 8.591 1.119 8.97 5.131v0.011l0.729 6.732c0.195-0.011 0.39-0.023 0.585-0.034 0.976-5.578 1.928-10.244 2.519-10.835 0.654-0.66 1.291-1.056 1.825-1.297v-0.006h0.023c0.838-0.373 1.429-0.362 1.44-0.367l0.539-0.057-0.511 0.057c2.577-0.677 5.085-1.572 7.22-2.818 3.426-2.003 5.343-3.702 5.176-6.594h0.97l3.461 11.857c0.029 0.115 0.201 0.941-0.459 1.825-0.092 0.126-0.333 0.568-0.683 1.211-1.349 2.502-4.321 8.006-8.402 12.241v0c0 0.006-1.176 1.349-1.854-1.613-0.212-0.626-0.402-1.314-0.614-2.077-0.218-0.78-0.459-1.647-0.763-2.6-2.296 0.637-4.626 1.228-6.967 1.624v49.532h-0.723v-49.412c-0.453 0.069-0.913 0.126-1.372 0.178-1.716 8.27-5.957 18.531-9.44 49.234v-49.613c-2.187-0.39-4.362-0.947-6.508-1.544-0.287 0.941-0.517 1.802-0.74 2.611-0.212 0.758-0.402 1.44-0.614 2.066-0.677 2.961-1.854 1.618-1.854 1.613v0c-4.166-4.321-7.334-9.504-8.7-11.736-0.316-0.517-0.534-0.872-0.626-0.993-0.712-0.953-0.459-1.836-0.459-1.842h0.006l3.478-12.562h0.867c-0.551 2.938 1.825 5.217 5.016 6.938 2.456 1.337 5.228 2.537 8.23 3.099l0.161 0.034zM39.742 21.825c2.91-0.287 5.808-0.895 8.649-1.676-0.872-2.56-2.227-5.71-4.792-9.578-0.413 0.155-0.849 0.407-1.372 0.867-0.648 0.568-1.567 5.016-2.485 10.387zM45.268 10.209v0.006c-0.212 0.057-0.43 0.115-0.648 0.172 3.702 5.676 4.849 9.819 5.681 12.803 0.207 0.758 0.402 1.446 0.603 2.049l0.011 0.046c0.258 1.136 0.224 1.205 0.218 1.205l0.011-0.011c3.994-4.138 6.927-9.572 8.258-12.040 0.367-0.677 0.62-1.136 0.763-1.331 0.425-0.562 0.298-0.999 0.298-0.999l-0.006-0.017-2.766-10.29c-1.119 2.479-3.001 4.201-5.429 5.618-2.083 1.217-4.499 2.112-6.996 2.789v0zM33.498 15.581c0.425 0 0.809 0.172 1.090 0.448v0.006c0.281 0.275 0.453 0.66 0.453 1.090 0 0.425-0.172 0.809-0.453 1.085v0.006c-0.281 0.275-0.666 0.453-1.090 0.453s-0.809-0.178-1.090-0.453v-0.006c-0.281-0.275-0.453-0.66-0.453-1.085 0-0.43 0.172-0.815 0.453-1.090v-0.006c0.275-0.275 0.666-0.448 1.090-0.448zM34.083 16.539h-0.006c-0.149-0.149-0.35-0.241-0.58-0.241s-0.436 0.092-0.585 0.241v0c-0.149 0.149-0.241 0.356-0.241 0.585 0 0.224 0.092 0.43 0.241 0.58v0c0.149 0.149 0.356 0.241 0.585 0.241s0.436-0.092 0.58-0.241h0.006c0.149-0.149 0.235-0.356 0.235-0.58 0-0.23-0.092-0.436-0.235-0.585zM36.362 41.113c0.327 0 0.62 0.172 0.832 0.448v0.006c0.218 0.275 0.35 0.666 0.35 1.090s-0.132 0.809-0.35 1.090v0c-0.212 0.281-0.511 0.453-0.832 0.453-0.327 0-0.626-0.172-0.838-0.453v0c-0.218-0.281-0.35-0.666-0.35-1.090s0.132-0.815 0.35-1.090v-0.006c0.212-0.275 0.511-0.448 0.838-0.448zM36.809 42.072h-0.006c-0.109-0.149-0.27-0.241-0.442-0.241-0.178 0-0.333 0.092-0.448 0.241v0c-0.115 0.149-0.184 0.356-0.184 0.585 0 0.224 0.069 0.43 0.184 0.58v0c0.115 0.149 0.27 0.241 0.448 0.241 0.172 0 0.333-0.092 0.442-0.241h0.006c0.109-0.149 0.184-0.356 0.184-0.58 0-0.23-0.075-0.436-0.184-0.585zM36.362 65.71c0.425 0 0.809 0.172 1.090 0.453v0c0.281 0.281 0.453 0.666 0.453 1.090s-0.172 0.815-0.453 1.090v0.006c-0.281 0.275-0.666 0.448-1.090 0.448s-0.815-0.172-1.090-0.448l-0.006-0.006c-0.275-0.275-0.448-0.666-0.448-1.090s0.172-0.809 0.448-1.090v0c0.281-0.281 0.666-0.453 1.096-0.453zM36.941 66.674v0c-0.149-0.149-0.356-0.241-0.58-0.241-0.23 0-0.436 0.092-0.585 0.241v0c-0.149 0.149-0.241 0.356-0.241 0.58 0 0.23 0.092 0.436 0.241 0.585v0c0.149 0.149 0.356 0.241 0.585 0.241 0.224 0 0.43-0.092 0.58-0.241v0c0.149-0.149 0.241-0.356 0.241-0.585 0-0.224-0.092-0.43-0.241-0.58z"></path>
</svg>
