<!-- Generated by IcoMoon.io -->
<svg version="1.1" xmlns="http://www.w3.org/2000/svg" width="72" height="72" viewBox="0 0 72 72">
<title>placket-contrast-fabric-outside-placket</title>
<path d="M33.497 15.577c0.427 0 0.812 0.173 1.092 0.453v0.002c0.28 0.278 0.451 0.665 0.451 1.090s-0.171 0.81-0.451 1.090l-0.002 0.002c-0.28 0.278-0.665 0.451-1.090 0.451s-0.81-0.173-1.090-0.451l-0.002-0.002c-0.28-0.28-0.451-0.665-0.451-1.090s0.171-0.812 0.451-1.090v-0.002c0.28-0.28 0.665-0.453 1.092-0.453zM34.082 16.538l-0.002 0.002c-0.149-0.149-0.355-0.242-0.582-0.242s-0.433 0.093-0.582 0.242l-0.002-0.002c-0.147 0.149-0.24 0.356-0.24 0.584s0.093 0.433 0.24 0.582l0.002 0.002c0.149 0.147 0.355 0.24 0.582 0.24s0.433-0.093 0.582-0.24l0.002-0.002c0.147-0.149 0.24-0.355 0.24-0.582s-0.093-0.435-0.24-0.584zM14.276 1.992l-2.739 10.834c0 0.002-0.125 0.437 0.298 1.003 0.127 0.167 0.352 0.534 0.679 1.070 1.35 2.205 4.486 7.334 8.58 11.581l0.012 0.012c-0.002-0.004-0.038-0.072 0.218-1.204l0.014-0.046c0.203-0.606 0.393-1.287 0.602-2.044 0.826-2.973 1.7-6.691 5.386-12.353-2.854-0.57-5.44-1.778-7.807-3.068-2.512-1.37-4.401-3.057-5.243-5.785zM40.684 24.589v47.411h-9.37v-49.411c-2.594-0.393-5.172-1.041-7.71-1.748-0.29 0.943-0.518 1.807-0.741 2.612-0.211 0.759-0.401 1.444-0.61 2.071-0.681 2.961-1.855 1.613-1.859 1.609v0c-4.161-4.32-7.334-9.505-8.697-11.736-0.316-0.518-0.534-0.872-0.624-0.995-0.713-0.949-0.459-1.835-0.457-1.837v0l3.478-12.564h0.866c-0.55 2.941 1.827 5.215 5.017 6.937 2.455 1.337 5.227 2.54 8.232 3.104l0.161 0.030 0.071 0.006c0.020 0.002 8.594 1.12 8.971 5.128l0.002 0.014 0.729 6.733c0.193-0.010 0.387-0.024 0.58-0.038 0.979-5.575 1.934-10.238 2.524-10.834 0.653-0.657 1.289-1.053 1.827-1.295l-0.002-0.004 0.020-0.004c0.84-0.373 1.432-0.361 1.44-0.363l0.032-0.004c2.576-0.673 5.084-1.571 7.217-2.818 3.426-2 5.346-3.698 5.178-6.592h0.969l3.464 11.857c0.026 0.113 0.201 0.943-0.461 1.825-0.095 0.125-0.332 0.566-0.681 1.211-1.351 2.504-4.324 8.006-8.403 12.24h0.002c-0.004 0.004-1.178 1.351-1.859-1.609-0.209-0.626-0.401-1.315-0.612-2.079-0.218-0.783-0.457-1.65-0.761-2.602-2.61 0.725-5.263 1.392-7.932 1.778v1.968zM36.484 40.877c-0.052-0.006-0.105-0.008-0.157-0.008-0.858 0-1.553 0.695-1.553 1.553s0.695 1.553 1.553 1.553c0.858 0 1.553-0.695 1.553-1.553 0-0.391-0.145-0.747-0.381-1.019-0.018-0.026-0.038-0.052-0.062-0.079v0c-0.248-0.248-0.578-0.413-0.949-0.447h-0.004zM36.835 65.561c-0.159-0.054-0.33-0.085-0.508-0.085-0.858 0-1.553 0.695-1.553 1.553s0.695 1.553 1.553 1.553c0.435 0 0.828-0.179 1.108-0.465h0.002c0.008-0.010 0.016-0.018 0.024-0.028 0.26-0.276 0.419-0.649 0.419-1.059 0-0.395-0.147-0.755-0.391-1.029-0.014-0.022-0.032-0.042-0.052-0.064v0c-0.167-0.169-0.373-0.298-0.602-0.375zM23.823 20.148c4.022 1.102 8.153 1.865 12.286 1.865 0.316 0 0.632-0.004 0.949-0.014l-0.602-6.719c-0.266-2.665-5.742-4.026-8.204-4.101-2.441 3.712-3.652 6.592-4.429 8.969zM48.388 20.15c-0.868-2.56-2.228-5.712-4.792-9.581-0.411 0.155-0.85 0.409-1.37 0.866-0.649 0.574-1.565 5.017-2.488 10.393 2.912-0.29 5.807-0.898 8.649-1.678zM60.461 12.093l-2.765-10.288c-1.124 2.477-3.003 4.198-5.432 5.617-2.083 1.217-4.502 2.109-6.993 2.79v0c-0.216 0.060-0.433 0.117-0.649 0.173 3.702 5.678 4.85 9.819 5.678 12.804 0.209 0.761 0.401 1.446 0.604 2.052l0.012 0.046c0.258 1.132 0.222 1.2 0.22 1.204l0.010-0.012c3.992-4.139 6.927-9.571 8.26-12.041 0.367-0.677 0.614-1.138 0.759-1.331 0.425-0.566 0.3-1.001 0.3-1.001l-0.004-0.014zM36.327 66.175c-0.471 0-0.856 0.383-0.856 0.854 0 0.473 0.385 0.856 0.856 0.856 0.473 0 0.856-0.383 0.856-0.856 0-0.471-0.383-0.854-0.856-0.854zM36.327 41.566c-0.471 0-0.856 0.385-0.856 0.856s0.385 0.856 0.856 0.856c0.473 0 0.856-0.385 0.856-0.856s-0.383-0.856-0.856-0.856z"></path>
</svg>
