<!-- Generated by IcoMoon.io -->
<svg version="1.1" xmlns="http://www.w3.org/2000/svg" width="72" height="72" viewBox="0 0 72 72">
<title>placket-contrast-fabric-placket-edge</title>
<path d="M14.276 1.992l-2.736 10.815-0.004 0.020c0 0.002-0.123 0.436 0.301 1.002 0.127 0.168 0.35 0.535 0.678 1.068 1.348 2.207 4.485 7.336 8.58 11.582l0.012 0.012c-0.002-0.004-0.039-0.072 0.219-1.203l0.012-0.047c0.203-0.605 0.393-1.287 0.604-2.045 0.824-2.973 1.699-6.69 5.387-12.352-2.856-0.57-5.442-1.779-7.809-3.068-2.51-1.369-4.401-3.057-5.242-5.783zM30.593 72v-49.527c-2.35-0.398-4.688-0.99-6.99-1.633-0.287 0.943-0.516 1.807-0.74 2.611-0.211 0.76-0.4 1.445-0.609 2.070-0.682 2.961-1.856 1.613-1.859 1.609v0c-4.162-4.32-7.332-9.504-8.698-11.735-0.316-0.518-0.533-0.873-0.625-0.994-0.711-0.949-0.457-1.836-0.457-1.838v0l3.481-12.565h0.865c-0.551 2.94 1.828 5.213 5.016 6.936 2.455 1.338 5.227 2.541 8.233 3.104l0.162 0.031 0.068 0.006c0.022 0.004 8.594 1.121 8.971 5.129l0.002 0.014 0.73 6.733c0.193-0.010 0.387-0.023 0.58-0.037 0.979-5.576 1.934-10.241 2.524-10.834 0.652-0.658 1.289-1.055 1.826-1.295l-0.002-0.004 0.022-0.006c0.84-0.371 1.43-0.361 1.44-0.361l0.033-0.004c2.574-0.674 5.082-1.57 7.215-2.817 3.426-2.002 5.346-3.699 5.18-6.594h0.967l3.465 11.858h-0.002c0.029 0.113 0.203 0.941-0.459 1.824-0.096 0.125-0.332 0.566-0.682 1.211-1.352 2.504-4.324 8.006-8.403 12.239h0.002c-0.004 0.004-1.178 1.352-1.859-1.609-0.209-0.627-0.4-1.314-0.611-2.078-0.219-0.783-0.457-1.648-0.762-2.602-2.219 0.617-4.467 1.189-6.731 1.586v49.572h-0.721v-49.453c-1.68 0.266-3.367 0.424-5.053 0.424-0.879 0-1.76-0.043-2.637-0.121v49.15h-2.881zM23.823 20.147c4.022 1.102 8.153 1.865 12.287 1.865 0.314 0 0.631-0.004 0.947-0.014l-0.602-6.721c-0.266-2.662-5.742-4.026-8.205-4.1-2.439 3.713-3.65 6.592-4.428 8.969zM39.737 21.827c2.912-0.291 5.809-0.898 8.649-1.678-0.867-2.559-2.227-5.713-4.789-9.58-0.412 0.156-0.852 0.408-1.369 0.867-0.65 0.572-1.566 5.016-2.49 10.391zM60.459 12.094l-2.764-10.289c-1.123 2.477-3.004 4.197-5.432 5.617-2.084 1.217-4.502 2.109-6.994 2.789v0c-0.215 0.061-0.432 0.117-0.648 0.174 3.701 5.678 4.85 9.819 5.678 12.805 0.211 0.76 0.4 1.445 0.604 2.051l0.014 0.047c0.258 1.131 0.221 1.199 0.219 1.203l0.012-0.012c3.99-4.139 6.924-9.571 8.258-12.039 0.365-0.678 0.615-1.139 0.76-1.332 0.424-0.564 0.301-1 0.299-1.002l-0.004-0.012zM33.497 15.579c0.426 0 0.813 0.172 1.092 0.451v0.002c0.279 0.279 0.451 0.664 0.451 1.090s-0.172 0.811-0.451 1.090l-0.002 0.002c-0.279 0.279-0.664 0.451-1.090 0.451s-0.811-0.172-1.090-0.451l-0.002-0.002c-0.279-0.279-0.451-0.664-0.451-1.090s0.172-0.811 0.451-1.090v-0.002c0.279-0.279 0.666-0.451 1.092-0.451zM34.079 16.538v0.002c-0.148-0.148-0.355-0.242-0.582-0.242-0.229 0-0.434 0.094-0.582 0.242l-0.002-0.002c-0.148 0.15-0.24 0.356-0.24 0.584s0.092 0.434 0.24 0.582l0.002 0.002c0.148 0.148 0.354 0.24 0.582 0.24 0.227 0 0.434-0.092 0.582-0.24l0.002-0.002c0.148-0.148 0.24-0.354 0.24-0.582s-0.094-0.434-0.242-0.584zM35.999 41.111c0.426 0 0.811 0.172 1.092 0.453v0c0.279 0.279 0.451 0.666 0.451 1.090 0 0.426-0.172 0.811-0.451 1.090l-0.002 0.002c-0.279 0.279-0.666 0.453-1.090 0.453-0.426 0-0.811-0.174-1.090-0.453l-0.002-0.002c-0.279-0.279-0.453-0.664-0.453-1.090 0-0.424 0.174-0.811 0.453-1.090v0c0.279-0.281 0.666-0.453 1.092-0.453zM36.581 42.071v0c-0.148-0.148-0.356-0.24-0.582-0.24-0.229 0-0.434 0.092-0.582 0.24h-0.002c-0.148 0.148-0.24 0.355-0.24 0.582 0 0.229 0.092 0.434 0.24 0.584h0.002c0.148 0.148 0.354 0.24 0.582 0.24 0.227 0 0.434-0.092 0.582-0.24h0.002c0.146-0.15 0.238-0.356 0.238-0.584 0-0.227-0.092-0.434-0.24-0.582zM35.999 65.721c0.426 0 0.811 0.174 1.092 0.453v0c0.279 0.279 0.451 0.666 0.451 1.092 0 0.424-0.172 0.811-0.451 1.090h-0.002c-0.279 0.279-0.666 0.453-1.090 0.453-0.426 0-0.811-0.174-1.090-0.453h-0.002c-0.279-0.279-0.453-0.666-0.453-1.090 0-0.426 0.174-0.813 0.453-1.092v0c0.279-0.279 0.666-0.453 1.092-0.453zM36.581 66.681v0c-0.148-0.148-0.356-0.24-0.582-0.24-0.229 0-0.434 0.092-0.582 0.24h-0.002c-0.148 0.148-0.24 0.356-0.24 0.584 0 0.227 0.092 0.434 0.24 0.582l0.002 0.002c0.148 0.146 0.354 0.238 0.582 0.238 0.227 0 0.434-0.092 0.582-0.238l0.002-0.002c0.146-0.148 0.238-0.356 0.238-0.582 0-0.229-0.092-0.436-0.24-0.584z"></path>
</svg>
