<svg width="72px" height="55px" xmlns="http://www.w3.org/2000/svg" viewBox="0 0 61.764 47.181">
  <defs>
  </defs>
  <path id="Fill-2" class="cls-1" d="M57.308,9.656v.069c-.046.047-.069.081-.069.1s-.024.058-.07.1v.138H57.1v.1c0,.024-.024.034-.07.034v.1c0,.024-.024.059-.07.1a.2.2,0,0,1-.069.138l-.069.206c-.047.047-.07.081-.07.1s-.023.035-.069.035a.14.14,0,0,1-.034.1.136.136,0,0,0-.035.1c-.047.046-.07.08-.07.1s-.024.058-.07.1a.2.2,0,0,1-.069.137c-.047.046-.07.081-.07.1s-.024.059-.07.1a.2.2,0,0,0-.069.138h-.07a.2.2,0,0,1-.069.138.14.14,0,0,1-.035.1.138.138,0,0,0-.035.1h-.07l-.138.137-.07.138-.069.069-.069.138-.139.138-.069.138-.209.207-.07.138-.209.207-.069.138-.209.207-.139.138a.111.111,0,0,0-.1.069.565.565,0,0,1-.1.137l-.139.138-.278.345-.139.069-.07.069-.208.207-.07.069-.069.069-.139.138-.069.069-.07.069-.139.069-.07.138-.069.069-.139.069-.069.069-.069.069L52.3,16l-.139.138a51.54,51.54,0,0,1-4.554,3.345q-2.468,1.621-4.97,3-2.364,1.173-4.623,2.1a25.275,25.275,0,0,1-4.136,1.345l.069.138.139.207.139.207.139.207.139.207.139.207.07.138.069.069.07.207a50.361,50.361,0,0,1,4.31,8.312q1.46,3.76,3.337,9.553a1.779,1.779,0,0,1,.069.828q2.086-2.137,4.693-5.345t5.074-6.38q2.468-3.172,4.485-5.9t2.92-3.9c.138-.183.254-.333.347-.448A.527.527,0,0,0,60.228,24a1.711,1.711,0,0,0,.348-1.241l-3.2-13.243A.2.2,0,0,0,57.308,9.656ZM27.554,35.936a27.675,27.675,0,0,0,3.407.207,27.1,27.1,0,0,0,3.337-.207q1.669-.207,3.337-.552-1.043-2.276-2.259-4.517T32.559,26.21a.7.7,0,0,1-.313.069.711.711,0,0,0-.313.069,3.767,3.767,0,0,0-.521.035,2.971,2.971,0,0,1-.9,0,3.8,3.8,0,0,0-.521-.035,1.918,1.918,0,0,1-.382-.034,1.22,1.22,0,0,1-.313-.1l-.278.414q-1.32,2.069-2.572,4.276t-2.294,4.483Q25.884,35.73,27.554,35.936ZM15.353,18.9q2.119,1.38,4.345,2.552,7.091,3.656,11.123,3.69t11.262-3.69q2.225-1.172,4.414-2.587a46.789,46.789,0,0,0,4.068-2.932q-2.573-.414-5.041-.724t-4.692-.586q-3.268-.275-5.7-.448T31.516,14q-1.113,0-3.858.172T21.3,14.76q-2.294.207-4.8.552t-5.144.759Q13.232,17.519,15.353,18.9ZM4.4,9.449,1.136,22.762A2.273,2.273,0,0,0,1.484,24q.068.07.208.242c.093.115.209.265.348.448q.834,1.174,2.851,3.9t4.484,5.9q2.467,3.173,5.11,6.38t4.727,5.345a1.757,1.757,0,0,1,.07-.828q.9-2.9,1.772-5.414t1.981-4.932q.973-2.276,2.155-4.483A49.9,49.9,0,0,1,27.97,26,36.641,36.641,0,0,1,23.8,24.624a46.017,46.017,0,0,1-4.657-2.138q-2.573-1.38-5.04-3A44.164,44.164,0,0,1,9.617,16.14L9.478,16l-.139-.138L9.2,15.795l-.069-.069-.069-.069-.07-.069-.278-.276-.139-.069-.07-.138-.139-.069L8.3,14.967l-.07-.069-.208-.207-.07-.069L7.6,14.278a.142.142,0,0,0-.035-.1.147.147,0,0,0-.1-.035.745.745,0,0,1-.139-.206l-.139-.138-.139-.138-.069-.069-.07-.138L6.7,13.243,6.559,13.1,6.35,12.9l-.07-.138-.069-.138H6.177c.022,0-.013-.046-.1-.138v-.069l-.139-.138-.07-.137H5.794a.143.143,0,0,0-.034-.1.133.133,0,0,1-.035-.1.141.141,0,0,1-.1-.035.139.139,0,0,1-.034-.1c-.046-.045-.069-.079-.069-.1s-.024-.035-.07-.035a.145.145,0,0,0-.035-.1.135.135,0,0,1-.034-.1h-.07a.2.2,0,0,0-.07-.137.142.142,0,0,0-.035-.1.137.137,0,0,1-.034-.1H5.1V11c0-.023-.024-.057-.07-.1a.2.2,0,0,1-.069-.138l-.069-.206c-.047,0-.07-.011-.07-.035s-.023-.057-.069-.1a.144.144,0,0,0-.034-.1.134.134,0,0,1-.035-.1.2.2,0,0,0-.07-.137l-.07-.138a.144.144,0,0,0-.034-.1.135.135,0,0,1-.035-.1.2.2,0,0,0-.07-.138Zm3.824-5.9a35.568,35.568,0,0,1,4.31-1.276q2.712-.621,5.631-1.069T23.73.483Q26.371.208,28.388.1T31.169,0Q32,0,33.984.1t4.554.379q2.572.277,5.457.724t5.457,1.069q1.529.346,2.851.759A16.794,16.794,0,0,1,54.736,4q2.571,1.174,2.885,2a28.657,28.657,0,0,1,.8,2.759l3.337,13.726a3.282,3.282,0,0,1-.556,2.207c-.047.046-.116.127-.209.242a2.556,2.556,0,0,0-.278.449q-.9,1.173-2.92,3.9t-4.518,5.932q-2.5,3.207-5.11,6.414A68.15,68.15,0,0,1,43.4,46.972q-1.459.759-2.086-1.242-.765-2.551-1.564-4.828t-1.7-4.415a25.821,25.821,0,0,1-3.511.587q-1.773.172-3.58.241a32.694,32.694,0,0,1-3.65-.207,32.452,32.452,0,0,1-3.649-.621q-.9,2.139-1.669,4.415t-1.6,4.828q-.625,2-2.086,1.242-2.086-2.137-4.727-5.346T8.47,35.212Q6,32,3.986,29.28t-2.92-3.9a5.356,5.356,0,0,1-.312-.449,1.4,1.4,0,0,0-.174-.242,2.843,2.843,0,0,1-.556-2.207l3.2-13.313q.347-1.448.521-2.207A3.589,3.589,0,0,1,5.1,5.242,10.966,10.966,0,0,1,8.227,3.552Z"/>
</svg>
