<?xml version="1.0" encoding="UTF-8"?>
<svg width="72px" height="55px" viewBox="0 0 72 55" version="1.1" xmlns="http://www.w3.org/2000/svg" xmlns:xlink="http://www.w3.org/1999/xlink">
    <!-- Generator: Sketch 52 (66869) - http://www.bohemiancoding.com/sketch -->
    <title>Fill 1</title>
    <desc>Created with Sketch.</desc>
    <g id="Page-1" stroke="none" stroke-width="1" fill="none" fill-rule="evenodd">
        <path d="M32.1111038,41.8914128 C33.4599194,42.0521223 34.7832365,42.1327353 36.0789737,42.1327353 C37.3741905,42.07951 38.6694073,41.9854614 39.9651444,41.8511063 C41.2608816,41.7177847 42.5560984,41.5172855 43.8518356,41.2480585 C43.04213,39.4792215 42.1637346,37.7243368 41.2208126,35.9818541 C40.2752888,34.2398882 39.181978,32.4307447 37.9408803,30.5544236 C37.2378519,30.7146163 36.6050742,30.7952293 36.0383843,30.7952293 C35.4711741,30.7952293 34.8363149,30.7146163 34.1353679,30.5544236 C33.0019881,32.2700353 31.9352166,34.02492 30.9371347,35.820628 C29.9374917,37.6173695 29.0065383,39.426513 28.1437543,41.2480585 C29.4389711,41.5172855 30.7612475,41.7307034 32.1111038,41.8914128 Z M52.6370898,17.6490966 C50.8280013,17.4077741 49.1409411,17.2067582 47.5761693,17.0460488 C45.0388141,16.8321141 42.8256534,16.6574524 40.9372075,16.5230973 C39.0466801,16.3902924 37.6437454,16.3225981 36.7263219,16.3225981 C35.8624971,16.3225981 34.3643335,16.3902924 32.2328719,16.5230973 C30.0998491,16.6574524 27.6296224,16.8853394 24.823753,17.2067582 C23.1497022,17.3674676 21.4090432,17.5684835 19.6012557,17.809806 C17.791907,18.0506117 15.9435301,18.3064032 14.0545639,18.5735632 C12.218676,17.3953721 9.68236157,14.6338574 6.443539,10.2921197 C7.41508169,12.6510858 9.65426124,15.465309 13.1636795,18.7347894 L13.4066953,18.8148857 C14.8101504,19.9408851 16.3343328,21.0260611 17.981324,22.0714474 C19.6277949,23.1163169 21.2872751,24.0955591 22.9618463,25.0060735 C24.4719786,25.756912 26.5238226,26.6818954 29.115297,27.7799902 C31.706251,28.8791185 34.0266092,29.4284243 36.0789737,29.4284243 C38.0220591,29.4284243 40.3559471,28.853281 43.0827193,27.6993771 C45.80741,26.5475402 47.7916052,25.6489111 49.0337436,25.0060735 C50.7062332,24.0955591 52.3534847,23.1163169 53.9723756,22.0714474 C55.5923072,21.0260611 57.1305398,19.9408851 58.588114,18.8148857 L58.8306094,18.7347894 C62.3395073,15.465309 64.5521477,12.6510858 65.470612,10.2921197 C62.3936265,14.4199227 59.9364092,17.1261451 58.1020825,18.4128538 C56.266715,18.1451771 54.4448773,17.8904191 52.6370898,17.6490966 Z M39.6003606,0.120402867 C41.1391136,0.200499194 42.9068321,0.349323339 44.904557,0.562741295 C46.9012412,0.777709504 49.0202138,1.05933853 51.2604341,1.40659486 C53.4993534,1.7559182 55.6193668,2.17086885 57.616051,2.65299707 C59.6127351,3.13564204 61.4220838,3.69838333 63.0414951,4.34173771 C64.6609064,4.98509208 65.8754648,5.73593056 66.6851705,6.59321964 C67.171202,7.12960666 67.4548071,7.61173488 67.5349451,8.04012104 C67.6161238,8.47005746 67.7378919,9.05915303 67.8997289,9.80947476 L71.3815673,24.0413003 C71.5964827,24.8991061 71.7864201,25.7031699 71.9477368,26.4534916 C72.1100942,27.2043301 71.894138,27.9810061 71.3003885,28.7850699 C71.245749,28.8388119 71.1656111,28.9333773 71.0573728,29.0666989 C70.9491345,29.201054 70.8148774,29.375199 70.65252,29.5891337 C70.0046514,30.5011983 68.8978108,32.0152773 67.3325187,34.1318873 C65.7667062,36.2500476 64.0130378,38.5542381 62.0699524,41.0470425 C60.126867,43.5398469 58.1426719,46.0321346 56.1184077,48.524939 C54.094664,51.0172267 52.244726,53.0955972 50.5719761,54.7564333 C49.4391168,55.3465624 48.6288907,54.8644342 48.1428592,53.3090152 C47.5485894,51.3262435 46.9413102,49.4494057 46.3215419,47.6805687 C45.7002125,45.911215 45.0388141,44.1966368 44.3378671,42.5342505 C42.9880108,42.856186 41.6251451,43.0851065 40.2487496,43.2179114 C38.8718337,43.3522665 37.481388,43.4189273 36.0789737,43.4189273 C34.6213994,43.4731861 33.1903644,43.4189273 31.7874297,43.2582179 C30.3829338,43.0975085 28.9794788,42.856186 27.5770644,42.5342505 C26.8745563,44.1966368 26.2272081,45.911215 25.6334586,47.6805687 C25.0391888,49.4494057 24.4189002,51.3262435 23.7710316,53.3090152 C23.2855204,54.8644342 22.4758148,55.3465624 21.3419147,54.7564333 C19.7225034,53.0955972 17.8866155,51.0172267 15.8358122,48.524939 C13.7839682,46.0321346 11.799773,43.5398469 9.88478798,41.0470425 C7.96824178,38.5542381 6.22706243,36.2500476 4.66177028,34.1318873 C3.09543739,32.0152773 1.96257802,30.5011983 1.26111066,29.5891337 C1.09979398,29.375199 0.977505536,29.201054 0.897367574,29.0666989 C0.816188859,28.9333773 0.748019553,28.8388119 0.694420787,28.7850699 C0.261988017,28.1959743 0.0330224116,27.6730228 0.00596283996,27.2172489 C-0.021617108,26.7625084 0.0465521974,26.2121692 0.208909627,25.5688148 L4.09508041,9.48753919 C4.25743784,8.79147627 4.36515575,8.33570233 4.41875452,8.12125087 C4.47235328,7.90679941 4.71536905,7.50528427 5.14780182,6.9151552 C5.90286794,6.00412407 7.13147657,5.18610803 8.83206657,4.46214057 C10.5321362,3.73868987 12.4616918,3.13564204 14.6212538,2.65299707 C16.7266966,2.17086885 18.9127977,1.7559182 21.1795572,1.40659486 C23.4473575,1.05933853 25.6058787,0.777709504 27.6577228,0.562741295 C29.7085261,0.349323339 31.5163136,0.200499194 33.0826465,0.120402867 C34.6479386,0.0403065391 35.7271992,0 36.3214691,0 C36.9693376,0 38.0626484,0.0403065391 39.6003606,0.120402867 Z" id="Fill-1" fill="#231F20"></path>
    </g>
</svg>