<svg width="534" height="692" viewBox="0 0 534 692" fill="none" xmlns="http://www.w3.org/2000/svg">
<path d="M522.166 103.43C522.166 108.354 517.521 112.354 511.777 112.354C506.044 112.354 501.388 108.363 501.388 103.43C501.388 98.5049 506.034 94.5051 511.777 94.5051C517.521 94.5051 522.166 98.4961 522.166 103.43ZM506.906 103.43C506.906 105.747 509.09 107.623 511.788 107.623C514.485 107.623 516.669 105.747 516.669 103.43C516.669 101.113 514.485 99.2361 511.788 99.2361C509.09 99.2361 506.906 101.113 506.906 103.43Z" fill="#6089B1"/>
<path d="M522.165 133.243C522.165 138.167 517.52 142.167 511.776 142.167C506.043 142.167 501.387 138.176 501.387 133.243C501.387 128.318 506.033 124.318 511.776 124.318C517.52 124.318 522.165 128.318 522.165 133.243ZM506.905 133.243C506.905 135.56 509.089 137.436 511.787 137.436C514.484 137.436 516.668 135.56 516.668 133.243C516.668 130.926 514.484 129.049 511.787 129.049C509.089 129.058 506.905 130.926 506.905 133.243Z" fill="#FFC200"/>
<path d="M59.5984 431.211C57.4221 435.693 51.4288 437.81 46.2119 435.941C40.9951 434.071 38.5302 428.922 40.7065 424.441C42.8828 419.959 48.8761 417.842 54.0929 419.711C59.3098 421.581 61.7747 426.73 59.5984 431.211Z" fill="#FF9D00"/>
<path d="M32.7388 523.684C32.7388 515.429 40.5331 508.733 50.1426 508.733C59.7521 508.733 67.5464 515.429 67.5464 523.684C67.5464 531.939 59.7521 538.635 50.1426 538.635C40.5331 538.635 32.7388 531.939 32.7388 523.684ZM58.4497 523.684C58.4497 519.746 54.7371 516.557 50.1528 516.557C45.5686 516.557 41.856 519.746 41.856 523.684C41.856 527.622 45.5686 530.811 50.1528 530.811C54.7371 530.811 58.4497 527.622 58.4497 523.684Z" fill="#FF9D00"/>
<path d="M40.0408 558.095C40.0408 553.303 44.5635 549.417 50.1426 549.417C55.7216 549.417 60.2444 553.303 60.2444 558.095C60.2444 562.888 55.7216 566.773 50.1426 566.773C44.5635 566.773 40.0408 562.888 40.0408 558.095ZM52.8706 558.095C52.8706 556.8 51.6502 555.752 50.1426 555.752C48.635 555.752 47.4146 556.8 47.4146 558.095C47.4146 559.39 48.635 560.439 50.1426 560.439C51.6502 560.439 52.8706 559.39 52.8706 558.095Z" fill="#6089B1"/>
<path d="M41.1899 490.461C41.1899 486.205 45.1999 482.761 50.1534 482.761C55.1068 482.761 59.1168 486.205 59.1168 490.461C59.1168 494.716 55.1068 498.16 50.1534 498.16C45.1999 498.16 41.1899 494.716 41.1899 490.461ZM54.4197 490.461C54.4197 488.434 52.5019 486.787 50.1431 486.787C47.7843 486.787 45.8665 488.434 45.8665 490.461C45.8665 492.487 47.7843 494.134 50.1431 494.134C52.5019 494.134 54.4197 492.487 54.4197 490.461Z" fill="#FFC200"/>
<path d="M381.399 629.572L388.404 635.598L386.342 637.369L377.266 629.572L386.342 621.784L388.404 623.555L381.399 629.572Z" fill="#FF9D00"/>
<path d="M393.634 629.572L400.638 635.598L398.577 637.369L389.501 629.572L398.577 621.784L400.638 623.555L393.634 629.572Z" fill="#FF9D00"/>
<path d="M406.014 629.572L413.029 635.598L410.957 637.369L401.891 629.572L410.957 621.784L413.029 623.555L406.014 629.572Z" fill="#FF9D00"/>
<path d="M356.784 629.573L363.789 635.599L361.727 637.37L352.651 629.573L361.727 621.785L363.789 623.555L356.784 629.573Z" fill="#FF9D00"/>
<path d="M369.02 629.572L376.025 635.598L373.963 637.369L364.887 629.572L373.963 621.784L376.025 623.555L369.02 629.572Z" fill="#FF9D00"/>
<path d="M321.535 57.5476C321.535 64.2768 315.185 69.7319 307.351 69.7319C299.518 69.7319 293.168 64.2768 293.168 57.5476C293.168 50.8184 299.518 45.3633 307.351 45.3633C315.185 45.3633 321.535 50.8184 321.535 57.5476Z" fill="#FFC200"/>
<path d="M307.32 116.476L300.305 122.493L298.244 120.723L307.32 112.926L316.396 120.723L314.325 122.493L307.32 116.476Z" fill="#FF9D00"/>
<path d="M307.32 126.987L300.305 133.004L298.244 131.233L307.32 123.436L316.396 131.233L314.325 133.004L307.32 126.987Z" fill="#FF9D00"/>
<path d="M307.32 137.62L300.305 143.646L298.244 141.867L307.32 134.079L316.396 141.867L314.325 143.646L307.32 137.62Z" fill="#FF9D00"/>
<path d="M307.32 95.3332L300.305 101.35L298.244 99.5797L307.32 91.7828L316.396 99.5797L314.325 101.35L307.32 95.3332Z" fill="#FF9D00"/>
<path d="M307.32 105.842L300.305 111.859L298.244 110.088L307.32 102.292L316.396 110.088L314.325 111.859L307.32 105.842Z" fill="#FF9D00"/>
<path d="M92.5166 267.137L109.295 252.653L92.5166 238.161L109.295 223.677L92.5166 209.193L107.315 196.419L92.5166 183.635L109.295 169.152L92.5166 154.659L109.295 140.175L92.5166 125.692L109.172 111.314L111.038 112.917L96.2394 125.692L113.018 140.175L96.2394 154.659L113.018 169.152L96.2394 183.635L111.049 196.419L96.2394 209.193L113.018 223.677L96.2394 238.161L113.018 252.653L96.2394 267.137L111.038 279.92L109.172 281.515L92.5166 267.137Z" fill="#4180CB"/>
<path d="M62.52 267.138L79.2982 252.654L62.52 238.162L79.2982 223.678L62.52 209.194L75.8318 197.706L79.5649 197.697L66.2428 209.194L83.021 223.678L66.2428 238.162L83.021 252.654L66.2428 267.138L81.0417 279.921L79.1649 281.516L62.52 267.138Z" fill="#FF9D00"/>
<path d="M498.855 563.013L515.633 548.53L498.855 534.037L515.633 519.554L498.855 505.07L515.664 490.569L517.448 492.234L502.567 505.07L519.346 519.554L502.567 534.037L519.346 548.53L502.567 563.013L517.366 575.797L515.5 577.391L498.855 563.013Z" fill="#FF9D00"/>
<path d="M440.776 604.613C440.776 603.565 439.781 602.719 438.571 602.719C437.35 602.719 436.366 603.574 436.366 604.613C436.366 605.653 437.361 606.507 438.571 606.507C439.791 606.507 440.776 605.662 440.776 604.613Z" fill="#4180CB"/>
<path d="M459.717 604.613C459.717 603.565 458.722 602.719 457.512 602.719C456.291 602.719 455.307 603.573 455.307 604.613C455.307 605.653 456.301 606.507 457.512 606.507C458.722 606.507 459.717 605.661 459.717 604.613Z" fill="#4180CB"/>
<path d="M459.716 622.454C459.716 621.405 458.721 620.56 457.511 620.56C456.29 620.56 455.306 621.414 455.306 622.454C455.306 623.502 456.301 624.348 457.511 624.348C458.721 624.357 459.716 623.502 459.716 622.454Z" fill="#4180CB"/>
<path d="M478.66 604.613C478.66 603.565 477.665 602.719 476.455 602.719C475.235 602.719 474.25 603.573 474.25 604.613C474.25 605.653 475.245 606.507 476.455 606.507C477.665 606.507 478.66 605.661 478.66 604.613Z" fill="#4180CB"/>
<path d="M478.66 622.454C478.66 621.406 477.665 620.56 476.455 620.56C475.235 620.56 474.25 621.414 474.25 622.454C474.25 623.502 475.245 624.348 476.455 624.348C477.665 624.357 478.66 623.502 478.66 622.454Z" fill="#4180CB"/>
<path d="M478.66 640.293C478.66 639.245 477.665 638.399 476.455 638.399C475.235 638.399 474.25 639.254 474.25 640.293C474.25 641.342 475.245 642.187 476.455 642.187C477.665 642.196 478.66 641.342 478.66 640.293Z" fill="#4180CB"/>
<path d="M497.593 604.613C497.593 603.565 496.598 602.719 495.388 602.719C494.168 602.719 493.183 603.574 493.183 604.613C493.183 605.653 494.178 606.507 495.388 606.507C496.608 606.507 497.593 605.662 497.593 604.613Z" fill="#4180CB"/>
<path d="M497.593 622.454C497.593 621.406 496.598 620.56 495.388 620.56C494.168 620.56 493.183 621.414 493.183 622.454C493.183 623.502 494.178 624.348 495.388 624.348C496.608 624.357 497.593 623.502 497.593 622.454Z" fill="#4180CB"/>
<path d="M516.534 604.613C516.534 605.659 515.546 606.507 514.329 606.507C513.111 606.507 512.124 605.659 512.124 604.613C512.124 603.567 513.111 602.719 514.329 602.719C515.546 602.719 516.534 603.567 516.534 604.613Z" fill="#4180CB"/>
<path d="M335.903 32.8683C335.903 31.9345 335.021 31.168 333.924 31.168C332.837 31.168 331.944 31.9257 331.944 32.8683C331.944 33.811 332.826 34.5687 333.924 34.5687C335.021 34.5687 335.903 33.811 335.903 32.8683Z" fill="#4180CB"/>
<path d="M335.902 48.85C335.902 47.9161 335.02 47.1497 333.923 47.1497C332.836 47.1497 331.944 47.9073 331.944 48.85C331.944 49.7927 332.826 50.5503 333.923 50.5503C335.02 50.5503 335.902 49.7839 335.902 48.85Z" fill="#4180CB"/>
<path d="M335.902 64.8222C335.902 63.8883 335.02 63.1219 333.923 63.1219C332.836 63.1219 331.944 63.8795 331.944 64.8222C331.944 65.7561 332.826 66.5225 333.923 66.5225C335.02 66.5225 335.902 65.7649 335.902 64.8222Z" fill="#4180CB"/>
<path d="M335.902 80.8037C335.902 79.8698 335.02 79.1034 333.923 79.1034C332.836 79.1034 331.944 79.861 331.944 80.8037C331.944 81.7376 332.826 82.504 333.923 82.504C335.02 82.504 335.902 81.7376 335.902 80.8037Z" fill="#4180CB"/>
<path d="M335.902 96.7852C335.902 95.8514 335.02 95.0849 333.923 95.0849C332.836 95.0849 331.944 95.8425 331.944 96.7852C331.944 97.7191 332.826 98.4856 333.923 98.4856C335.02 98.4767 335.902 97.7191 335.902 96.7852Z" fill="#4180CB"/>
<path d="M335.902 112.757C335.902 111.824 335.02 111.057 333.923 111.057C332.836 111.057 331.944 111.815 331.944 112.757C331.944 113.691 332.826 114.458 333.923 114.458C335.02 114.458 335.902 113.691 335.902 112.757Z" fill="#4180CB"/>
<path d="M335.902 128.739C335.902 127.805 335.02 127.039 333.923 127.039C332.836 127.039 331.944 127.796 331.944 128.739C331.944 129.673 332.826 130.439 333.923 130.439C335.02 130.431 335.902 129.673 335.902 128.739Z" fill="#4180CB"/>
<path d="M335.902 144.711C335.902 143.777 335.02 143.011 333.923 143.011C332.836 143.011 331.944 143.768 331.944 144.711C331.944 145.645 332.826 146.411 333.923 146.411C335.02 146.411 335.902 145.654 335.902 144.711Z" fill="#4180CB"/>
<path d="M518.4 353.775C518.4 352.841 517.518 352.074 516.421 352.074C515.334 352.074 514.441 352.832 514.441 353.775C514.441 354.709 515.323 355.475 516.421 355.475C517.518 355.475 518.4 354.718 518.4 353.775Z" fill="#4180CB"/>
<path d="M518.4 321.724C518.4 320.79 517.518 320.024 516.421 320.024C515.334 320.024 514.441 320.781 514.441 321.724C514.441 322.667 515.323 323.424 516.421 323.424C517.518 323.424 518.4 322.658 518.4 321.724Z" fill="#4180CB"/>
<path d="M518.4 369.755C518.4 368.822 517.518 368.055 516.421 368.055C515.334 368.055 514.441 368.813 514.441 369.755C514.441 370.689 515.323 371.456 516.421 371.456C517.518 371.456 518.4 370.689 518.4 369.755Z" fill="#4180CB"/>
<path d="M518.4 385.737C518.4 384.803 517.518 384.037 516.421 384.037C515.334 384.037 514.441 384.794 514.441 385.737C514.441 386.671 515.323 387.437 516.421 387.437C517.518 387.429 518.4 386.671 518.4 385.737Z" fill="#4180CB"/>
<path d="M518.4 401.709C518.4 400.775 517.518 400.009 516.421 400.009C515.334 400.009 514.441 400.767 514.441 401.709C514.441 402.643 515.323 403.41 516.421 403.41C517.518 403.41 518.4 402.643 518.4 401.709Z" fill="#4180CB"/>
<path d="M518.4 449.644C518.4 448.711 517.518 447.944 516.421 447.944C515.334 447.944 514.441 448.702 514.441 449.644C514.441 450.578 515.323 451.345 516.421 451.345C517.518 451.345 518.4 450.578 518.4 449.644Z" fill="#4180CB"/>
<path d="M107.889 570.22C107.889 569.286 107.007 568.52 105.909 568.52C104.822 568.52 103.93 569.278 103.93 570.22C103.93 571.163 104.812 571.921 105.909 571.921C106.996 571.921 107.889 571.154 107.889 570.22Z" fill="#4180CB"/>
<path d="M107.889 586.201C107.889 585.267 107.007 584.501 105.909 584.501C104.822 584.501 103.93 585.258 103.93 586.201C103.93 587.135 104.812 587.901 105.909 587.901C106.996 587.892 107.889 587.135 107.889 586.201Z" fill="#4180CB"/>
<path d="M107.889 602.173C107.889 601.239 107.007 600.472 105.909 600.472C104.822 600.472 103.93 601.23 103.93 602.173C103.93 603.107 104.812 603.873 105.909 603.873C106.996 603.873 107.889 603.115 107.889 602.173Z" fill="#4180CB"/>
<path d="M107.889 618.155C107.889 617.221 107.007 616.454 105.909 616.454C104.822 616.454 103.93 617.212 103.93 618.155C103.93 619.088 104.812 619.855 105.909 619.855C106.996 619.855 107.889 619.088 107.889 618.155Z" fill="#4180CB"/>
<path d="M107.889 634.126C107.889 633.192 107.007 632.425 105.909 632.425C104.822 632.425 103.93 633.183 103.93 634.126C103.93 635.059 104.812 635.826 105.909 635.826C106.996 635.826 107.889 635.068 107.889 634.126Z" fill="#4180CB"/>
<path d="M107.889 650.107C107.889 649.173 107.007 648.406 105.909 648.406C104.822 648.406 103.93 649.164 103.93 650.107C103.93 651.049 104.812 651.807 105.909 651.807C106.996 651.807 107.889 651.041 107.889 650.107Z" fill="#4180CB"/>
<path d="M124.851 570.219C124.851 569.285 123.969 568.518 122.871 568.518C121.784 568.518 120.892 569.276 120.892 570.219C120.892 571.161 121.774 571.919 122.871 571.919C123.958 571.919 124.851 571.153 124.851 570.219Z" fill="#4180CB"/>
<path d="M124.851 586.2C124.851 585.266 123.969 584.5 122.872 584.5C121.785 584.5 120.893 585.258 120.893 586.2C120.893 587.134 121.775 587.901 122.872 587.901C123.959 587.892 124.851 587.134 124.851 586.2Z" fill="#4180CB"/>
<path d="M124.851 602.172C124.851 601.238 123.969 600.472 122.872 600.472C121.785 600.472 120.893 601.23 120.893 602.172C120.893 603.106 121.775 603.873 122.872 603.873C123.959 603.873 124.851 603.115 124.851 602.172Z" fill="#4180CB"/>
<path d="M124.851 618.154C124.851 617.22 123.969 616.454 122.872 616.454C121.785 616.454 120.893 617.212 120.893 618.154C120.893 619.088 121.775 619.855 122.872 619.855C123.959 619.855 124.851 619.088 124.851 618.154Z" fill="#4180CB"/>
<path d="M124.851 634.125C124.851 633.191 123.969 632.424 122.872 632.424C121.785 632.424 120.893 633.182 120.893 634.125C120.893 635.059 121.775 635.825 122.872 635.825C123.959 635.825 124.851 635.067 124.851 634.125Z" fill="#4180CB"/>
<path d="M124.851 650.106C124.851 649.173 123.969 648.406 122.872 648.406C121.785 648.406 120.893 649.164 120.893 650.106C120.893 651.049 121.775 651.807 122.872 651.807C123.959 651.807 124.851 651.04 124.851 650.106Z" fill="#4180CB"/>
<path d="M141.803 570.219C141.803 569.285 140.921 568.519 139.824 568.519C138.737 568.519 137.845 569.276 137.845 570.219C137.845 571.162 138.727 571.919 139.824 571.919C140.921 571.919 141.803 571.153 141.803 570.219Z" fill="#4180CB"/>
<path d="M141.803 586.201C141.803 585.267 140.921 584.5 139.824 584.5C138.736 584.5 137.844 585.258 137.844 586.201C137.844 587.134 138.726 587.901 139.824 587.901C140.921 587.892 141.803 587.134 141.803 586.201Z" fill="#4180CB"/>
<path d="M141.803 602.172C141.803 601.239 140.921 600.472 139.824 600.472C138.736 600.472 137.844 601.23 137.844 602.172C137.844 603.106 138.726 603.873 139.824 603.873C140.921 603.873 141.803 603.115 141.803 602.172Z" fill="#4180CB"/>
<path d="M141.803 618.155C141.803 617.221 140.921 616.454 139.824 616.454C138.736 616.454 137.844 617.212 137.844 618.155C137.844 619.088 138.726 619.855 139.824 619.855C140.921 619.855 141.803 619.088 141.803 618.155Z" fill="#4180CB"/>
<path d="M141.803 634.125C141.803 633.191 140.921 632.425 139.824 632.425C138.736 632.425 137.844 633.182 137.844 634.125C137.844 635.059 138.726 635.825 139.824 635.825C140.921 635.825 141.803 635.068 141.803 634.125Z" fill="#4180CB"/>
<path d="M141.803 650.107C141.803 649.173 140.921 648.407 139.824 648.407C138.736 648.407 137.844 649.164 137.844 650.107C137.844 651.05 138.726 651.807 139.824 651.807C140.921 651.807 141.803 651.041 141.803 650.107Z" fill="#4180CB"/>
<path d="M158.768 570.219C158.768 569.285 157.886 568.519 156.788 568.519C155.701 568.519 154.809 569.276 154.809 570.219C154.809 571.162 155.691 571.919 156.788 571.919C157.876 571.919 158.768 571.153 158.768 570.219Z" fill="#4180CB"/>
<path d="M158.768 586.201C158.768 585.267 157.886 584.5 156.789 584.5C155.702 584.5 154.809 585.258 154.809 586.201C154.809 587.134 155.691 587.901 156.789 587.901C157.876 587.892 158.768 587.134 158.768 586.201Z" fill="#4180CB"/>
<path d="M158.768 602.172C158.768 601.239 157.886 600.472 156.789 600.472C155.702 600.472 154.809 601.23 154.809 602.172C154.809 603.106 155.691 603.873 156.789 603.873C157.876 603.873 158.768 603.115 158.768 602.172Z" fill="#4180CB"/>
<path d="M158.768 618.155C158.768 617.221 157.886 616.454 156.789 616.454C155.702 616.454 154.809 617.212 154.809 618.155C154.809 619.088 155.691 619.855 156.789 619.855C157.876 619.855 158.768 619.088 158.768 618.155Z" fill="#4180CB"/>
<path d="M158.768 634.125C158.768 633.191 157.886 632.425 156.789 632.425C155.702 632.425 154.809 633.182 154.809 634.125C154.809 635.059 155.691 635.825 156.789 635.825C157.876 635.825 158.768 635.068 158.768 634.125Z" fill="#4180CB"/>
<path d="M158.768 650.107C158.768 649.173 157.886 648.407 156.789 648.407C155.702 648.407 154.809 649.164 154.809 650.107C154.809 651.05 155.691 651.807 156.789 651.807C157.876 651.807 158.768 651.041 158.768 650.107Z" fill="#4180CB"/>
<path d="M175.73 570.219C175.73 569.285 174.848 568.519 173.75 568.519C172.663 568.519 171.771 569.276 171.771 570.219C171.771 571.162 172.653 571.919 173.75 571.919C174.837 571.919 175.73 571.153 175.73 570.219Z" fill="#4180CB"/>
<path d="M175.731 586.201C175.731 585.267 174.849 584.5 173.751 584.5C172.664 584.5 171.772 585.258 171.772 586.201C171.772 587.134 172.654 587.901 173.751 587.901C174.838 587.892 175.731 587.134 175.731 586.201Z" fill="#4180CB"/>
<path d="M175.731 602.172C175.731 601.239 174.849 600.472 173.751 600.472C172.664 600.472 171.772 601.23 171.772 602.172C171.772 603.106 172.654 603.873 173.751 603.873C174.838 603.873 175.731 603.115 175.731 602.172Z" fill="#4180CB"/>
<path d="M175.731 618.155C175.731 617.221 174.849 616.454 173.751 616.454C172.664 616.454 171.772 617.212 171.772 618.155C171.772 619.088 172.654 619.855 173.751 619.855C174.838 619.855 175.731 619.088 175.731 618.155Z" fill="#4180CB"/>
<path d="M175.731 634.125C175.731 633.191 174.849 632.425 173.751 632.425C172.664 632.425 171.772 633.182 171.772 634.125C171.772 635.059 172.654 635.825 173.751 635.825C174.838 635.825 175.731 635.068 175.731 634.125Z" fill="#4180CB"/>
<path d="M175.731 650.107C175.731 649.173 174.849 648.407 173.751 648.407C172.664 648.407 171.772 649.164 171.772 650.107C171.772 651.05 172.654 651.807 173.751 651.807C174.838 651.807 175.731 651.041 175.731 650.107Z" fill="#4180CB"/>
<path d="M192.683 570.219C192.683 569.285 191.801 568.519 190.703 568.519C189.616 568.519 188.724 569.276 188.724 570.219C188.724 571.162 189.606 571.919 190.703 571.919C191.801 571.919 192.683 571.153 192.683 570.219Z" fill="#4180CB"/>
<path d="M192.682 586.201C192.682 585.267 191.8 584.5 190.703 584.5C189.616 584.5 188.723 585.258 188.723 586.201C188.723 587.135 189.605 587.901 190.703 587.901C191.8 587.892 192.682 587.135 192.682 586.201Z" fill="#4180CB"/>
<path d="M192.682 602.173C192.682 601.239 191.8 600.472 190.703 600.472C189.616 600.472 188.723 601.23 188.723 602.173C188.723 603.107 189.605 603.873 190.703 603.873C191.8 603.873 192.682 603.115 192.682 602.173Z" fill="#4180CB"/>
<path d="M192.682 618.155C192.682 617.221 191.8 616.454 190.703 616.454C189.616 616.454 188.723 617.212 188.723 618.155C188.723 619.089 189.605 619.855 190.703 619.855C191.8 619.855 192.682 619.089 192.682 618.155Z" fill="#4180CB"/>
<path d="M192.682 634.125C192.682 633.191 191.8 632.425 190.703 632.425C189.616 632.425 188.723 633.182 188.723 634.125C188.723 635.059 189.605 635.825 190.703 635.825C191.8 635.825 192.682 635.068 192.682 634.125Z" fill="#4180CB"/>
<path d="M192.682 650.107C192.682 649.173 191.8 648.407 190.703 648.407C189.616 648.407 188.723 649.164 188.723 650.107C188.723 651.05 189.605 651.807 190.703 651.807C191.8 651.807 192.682 651.041 192.682 650.107Z" fill="#4180CB"/>
<path d="M205.985 637.519L118.76 562.59L118.76 637.519L205.985 637.519Z" fill="#FF9D00"/>
<path d="M53.1333 71.246C53.1333 70.2592 53.964 69.5456 55.1024 69.5456C56.251 69.5456 57.0817 70.2592 57.0817 71.2371C57.0817 72.2239 56.251 72.9287 55.1126 72.9375C53.964 72.9375 53.1333 72.2327 53.1333 71.246Z" fill="#4180CB"/>
<path d="M53.1337 88.2137C53.1132 87.227 53.9234 86.4869 55.0617 86.4693C56.2104 86.4517 57.0718 87.1565 57.0923 88.1256C57.1128 89.1123 56.3027 89.8435 55.1643 89.8612C54.0054 89.8876 53.1542 89.1916 53.1337 88.2137Z" fill="#4180CB"/>
<path d="M53.1334 105.12C53.1231 104.133 53.9538 103.411 55.0922 103.402C56.2408 103.393 57.0818 104.107 57.092 105.085C57.1023 106.072 56.2818 106.785 55.1332 106.794C53.9743 106.803 53.1436 106.107 53.1334 105.12Z" fill="#4180CB"/>
<path d="M66.9472 28.904C66.9472 29.8908 66.1268 30.6044 64.9781 30.6044C63.8295 30.6044 62.9988 29.8996 62.9988 28.9128C62.9988 27.9261 63.8295 27.2125 64.9679 27.2125C66.1062 27.2037 66.9369 27.9261 66.9472 28.904Z" fill="#4180CB"/>
<path d="M66.9483 45.811C66.9585 46.7977 66.1483 47.5202 64.9997 47.5378C63.8408 47.5466 62.9999 46.8506 62.9896 45.8727C62.9793 44.886 63.7895 44.1547 64.9279 44.1459C66.0765 44.1283 66.9278 44.8419 66.9483 45.811Z" fill="#4180CB"/>
<path d="M62.9896 62.7518C62.9999 61.7739 63.8408 61.0602 64.9894 61.0691C66.1278 61.0779 66.9585 61.8091 66.9483 62.787C66.938 63.7737 66.0971 64.4697 64.9484 64.4609C63.7998 64.4609 62.9793 63.7385 62.9896 62.7518Z" fill="#4180CB"/>
<path d="M62.9904 79.7747C62.9596 78.788 63.7595 78.0391 64.8877 78.0039C66.0363 77.9774 66.9081 78.6646 66.9491 79.6337C66.9799 80.6204 66.1799 81.3693 65.0518 81.3957C63.8826 81.431 63.0211 80.7526 62.9904 79.7747Z" fill="#4180CB"/>
<path d="M62.9896 96.6712C62.9793 95.6845 63.7998 94.9533 64.9279 94.9445C66.0765 94.9357 66.9277 95.6405 66.938 96.6184C66.9482 97.6051 66.1278 98.3275 64.9894 98.3363C63.8408 98.3451 62.9999 97.6492 62.9896 96.6712Z" fill="#4180CB"/>
<path d="M76.8046 37.3806C76.7943 38.3673 75.9636 39.0721 74.815 39.0633C73.6664 39.0633 72.8459 38.3497 72.8459 37.3629C72.8459 36.3762 73.6869 35.6714 74.8355 35.6714C75.9739 35.6802 76.8046 36.4026 76.8046 37.3806Z" fill="#4180CB"/>
<path d="M74.6805 52.6132C75.8394 52.5603 76.7316 53.2299 76.8034 54.1901C76.865 55.1769 76.0855 55.9522 74.9676 56.005C73.8087 56.0579 72.9165 55.3971 72.8549 54.4368C72.7831 53.4325 73.5626 52.666 74.6805 52.6132Z" fill="#4180CB"/>
<path d="M72.8444 71.3084C72.8136 70.3216 73.6033 69.5728 74.7417 69.5463C75.8903 69.5199 76.7621 70.2071 76.8031 71.1762C76.8339 72.1629 76.0339 72.9118 74.9058 72.9382C73.7366 72.9646 72.8751 72.2863 72.8444 71.3084Z" fill="#4180CB"/>
<path d="M72.846 88.143C72.8563 87.1651 73.7075 86.4603 74.8561 86.4779C75.9945 86.4867 76.815 87.2179 76.8047 88.2046C76.7842 89.1826 75.9432 89.8785 74.7946 89.8697C73.646 89.8521 72.8358 89.1297 72.846 88.143Z" fill="#4180CB"/>
<path d="M86.6601 45.8371C86.6601 46.8239 85.8396 47.5287 84.691 47.5375C83.5424 47.5375 82.7117 46.8327 82.7117 45.8459C82.7117 44.8592 83.5424 44.1456 84.6808 44.1456C85.8191 44.1456 86.6601 44.8592 86.6601 45.8371Z" fill="#4180CB"/>
<path d="M82.7006 62.7344C82.7211 61.7565 83.5723 61.0517 84.7209 61.0693C85.8593 61.0869 86.6797 61.8181 86.6592 62.8049C86.6387 63.7828 85.7978 64.4788 84.6389 64.4611C83.4903 64.4523 82.6801 63.7299 82.7006 62.7344Z" fill="#4180CB"/>
<path d="M82.7025 79.7383C82.6922 78.7516 83.5127 78.0204 84.6408 78.0115C85.7895 78.0027 86.6407 78.7075 86.651 79.6854C86.6612 80.6722 85.851 81.3946 84.7024 81.4034C83.5537 81.4122 82.7127 80.7162 82.7025 79.7383Z" fill="#4180CB"/>
<path d="M96.5149 54.2426C96.5457 55.2293 95.7458 55.9782 94.6177 56.0046C93.4588 56.031 92.5973 55.3527 92.5665 54.3836C92.5358 53.3968 93.3357 52.648 94.4638 52.6127C95.6022 52.5775 96.4739 53.2735 96.5149 54.2426Z" fill="#4180CB"/>
<path d="M92.5568 71.282C92.5363 70.2953 93.3465 69.5552 94.4849 69.5376C95.6335 69.52 96.495 70.2248 96.5155 71.1939C96.536 72.1806 95.7258 72.9118 94.5874 72.9295C93.4285 72.9559 92.5773 72.2599 92.5568 71.282Z" fill="#4180CB"/>
<path d="M102.413 62.7439C102.434 61.766 103.275 61.0612 104.423 61.0789C105.562 61.0965 106.382 61.8277 106.362 62.8056C106.341 63.7835 105.5 64.4795 104.352 64.4707C103.213 64.4531 102.393 63.7307 102.413 62.7439Z" fill="#4180CB"/>
<path d="M27.5265 45.846C27.5265 46.8327 26.6958 47.5375 25.5369 47.5375C24.3883 47.5375 23.5679 46.8239 23.5679 45.8372C23.5679 44.8505 24.4088 44.1369 25.5472 44.1457C26.6958 44.1457 27.5265 44.8681 27.5265 45.846Z" fill="#4180CB"/>
<path d="M25.68 64.4608C24.5211 64.5137 23.6289 63.8529 23.5674 62.8926C23.5058 61.8971 24.2853 61.1306 25.4031 61.0778C26.5517 61.0249 27.4542 61.6945 27.5158 62.6548C27.5876 63.6415 26.7979 64.4168 25.68 64.4608Z" fill="#4180CB"/>
<path d="M23.568 79.7383C23.5577 78.7516 24.3782 78.0204 25.5063 78.0115C26.6549 78.0027 27.5061 78.7075 27.5164 79.6854C27.5266 80.6722 26.7164 81.3946 25.5678 81.4034C24.4192 81.4122 23.5885 80.7162 23.568 79.7383Z" fill="#4180CB"/>
<path d="M37.3829 37.4054C37.3624 38.3833 36.5214 39.0793 35.3728 39.0705C34.2344 39.0617 33.4139 38.3392 33.4345 37.3437C33.455 36.3658 34.2959 35.661 35.4446 35.6786C36.5727 35.6874 37.3932 36.4186 37.3829 37.4054Z" fill="#4180CB"/>
<path d="M33.4227 54.3383C33.4124 53.3516 34.2226 52.6292 35.361 52.6115C36.5096 52.6027 37.3609 53.2987 37.3711 54.2766C37.3814 55.2634 36.5712 55.9858 35.4226 56.0034C34.2842 56.0122 33.4432 55.3162 33.4227 54.3383Z" fill="#4180CB"/>
<path d="M33.4227 71.2548C33.4124 70.2681 34.2329 69.5457 35.3815 69.5457C36.5301 69.5369 37.3711 70.2505 37.3813 71.2284C37.3916 72.2151 36.5609 72.9287 35.4225 72.9376C34.2637 72.9376 33.433 72.2416 33.4227 71.2548Z" fill="#4180CB"/>
<path d="M33.4226 88.1701C33.4226 87.1833 34.2533 86.4785 35.4019 86.4785C36.5506 86.4785 37.3813 87.201 37.371 88.1789C37.371 89.1656 36.5403 89.8704 35.3814 89.8704C34.2431 89.8616 33.4226 89.1568 33.4226 88.1701Z" fill="#4180CB"/>
<path d="M47.2378 28.8871C47.2481 29.8738 46.4276 30.5874 45.279 30.5962C44.1304 30.605 43.2894 29.9002 43.2791 28.9223C43.2689 27.9356 44.0996 27.2131 45.238 27.2043C46.3763 27.2043 47.2276 27.918 47.2378 28.8871Z" fill="#4180CB"/>
<path d="M47.2378 45.82C47.2481 46.8067 46.4276 47.5203 45.279 47.5291C44.1304 47.5379 43.2894 46.8331 43.2791 45.8552C43.2689 44.8685 44.0996 44.1461 45.238 44.1373C46.3763 44.1373 47.2276 44.8509 47.2378 45.82Z" fill="#4180CB"/>
<path d="M43.2777 62.8405C43.2469 61.8538 44.0469 61.1049 45.175 61.0697C46.3236 61.0433 47.1954 61.7305 47.2364 62.6996C47.2774 63.6863 46.4672 64.4351 45.3391 64.4616C44.17 64.4968 43.3187 63.8184 43.2777 62.8405Z" fill="#4180CB"/>
<path d="M43.2791 79.7118C43.2791 78.7251 44.1098 78.0115 45.2481 78.0115C46.3967 78.0115 47.2274 78.7251 47.2377 79.703C47.2377 80.6897 46.4173 81.4033 45.2686 81.4033C44.1098 81.4033 43.2791 80.6985 43.2791 79.7118Z" fill="#4180CB"/>
<path d="M43.2791 96.6543C43.2689 95.6676 44.0996 94.9452 45.238 94.9364C46.3866 94.9276 47.2276 95.6412 47.2378 96.6191C47.2481 97.6058 46.4174 98.3194 45.279 98.3282C44.1201 98.337 43.2894 97.641 43.2791 96.6543Z" fill="#4180CB"/>
<path d="M57.093 20.4294C57.1033 21.4161 56.2726 22.1297 55.1342 22.1385C53.9856 22.1473 53.1446 21.4425 53.1446 20.4646C53.1344 19.4779 53.9651 18.7555 55.1035 18.7467C56.2316 18.7379 57.0828 19.4515 57.093 20.4294Z" fill="#4180CB"/>
<path d="M57.0928 37.3094C57.1338 38.2961 56.3236 39.045 55.1955 39.0714C54.0366 39.0979 53.1752 38.4195 53.1342 37.4504C53.1034 36.4637 53.9033 35.7148 55.0314 35.6796C56.1801 35.6443 57.0518 36.3403 57.0928 37.3094Z" fill="#4180CB"/>
<path d="M53.1334 54.33C53.1231 53.3432 53.9436 52.612 55.0819 52.6032C56.2305 52.5944 57.0818 53.2992 57.092 54.2771C57.1023 55.2638 56.2818 55.9863 55.1435 55.9951C53.9846 56.0127 53.1437 55.3167 53.1334 54.33Z" fill="#4180CB"/>
<path d="M411.149 147.718L360.927 147.718L360.927 104.575L411.149 104.575L461.371 104.575L461.371 147.718L461.371 190.86L411.149 190.86L411.149 147.718Z" fill="#FF9D00"/>
<path d="M482.918 174.113L482.918 86.0656L380.423 86.0656L380.423 130.97L430.645 130.97L430.645 174.113L482.918 174.113ZM480.867 87.8276L480.867 172.351L432.696 172.351L432.696 129.208L382.474 129.208L382.474 87.8276L480.867 87.8276Z" fill="#4180CB"/>
<path d="M361.471 156.748L361.471 154.123L405.058 154.123L405.058 156.748L361.471 156.748Z" fill="#FFC200"/>
<path d="M361.463 163.434L361.463 160.809L405.049 160.809L405.049 163.434L361.463 163.434Z" fill="#FFC200"/>
<path d="M361.471 170.112L361.471 167.487L405.058 167.487L405.058 170.112L361.471 170.112Z" fill="#FFC200"/>
<path d="M361.471 176.79L361.471 174.165L405.058 174.165L405.058 176.79L361.471 176.79Z" fill="#FFC200"/>
<path d="M361.463 183.47L361.463 180.844L405.049 180.844L405.049 183.47L361.463 183.47Z" fill="#FFC200"/>
<path d="M361.471 190.068L361.471 187.522L405.058 187.522L405.058 190.068L361.471 190.068Z" fill="#FFC200"/>
<path d="M192.705 85.5814L192.705 0.132889L269.161 0.132891L269.161 85.5814C269.141 94.6293 264.874 102.814 257.962 108.752C251.05 114.699 241.491 118.372 230.938 118.372C209.842 118.372 192.736 103.695 192.705 85.5814Z" fill="#FF9D00"/>
<path d="M230.938 118.372C241.491 118.372 251.05 114.699 257.962 108.752C264.874 102.814 269.141 94.6293 269.161 85.5814L269.161 85.5285C269.13 67.4151 252.024 52.7464 230.938 52.7464C209.842 52.7464 192.736 67.4151 192.705 85.5285L192.705 85.5814C192.736 103.695 209.842 118.372 230.938 118.372Z" fill="#FF9D00"/>
<path d="M270.186 85.5826C270.156 66.967 252.547 51.8667 230.938 51.8667C209.319 51.8667 191.71 66.967 191.679 85.5298C191.71 104.154 209.319 119.255 230.938 119.255C241.43 119.255 251.285 115.748 258.69 109.379C266.084 103.026 270.166 94.5777 270.186 85.5826ZM193.731 85.5826C193.761 67.945 210.447 53.6287 230.938 53.6287C251.419 53.6287 268.104 67.9361 268.135 85.5298C268.115 94.1019 264.248 102.11 257.233 108.127C250.219 114.162 240.876 117.493 230.938 117.493C210.458 117.493 193.761 103.176 193.731 85.5826Z" fill="#4180CB"/>
<path d="M362.362 41.787L362.362 0.133209L372.586 0.13321L372.586 41.787L362.362 41.787Z" fill="#FFC200"/>
<path d="M384.586 41.7869L384.586 0.133057L394.811 0.133057L394.811 41.7869L384.586 41.7869Z" fill="#FF9D00"/>
<path d="M405.487 22.4577L405.487 0.133057L415.712 0.133057L415.712 22.4577L405.487 22.4577Z" fill="#4180CB"/>
<path d="M145.303 527.254L145.303 524.276L162.768 524.276L162.768 527.254L145.303 527.254Z" fill="#4180CB"/>
<path d="M145.303 543.615L145.303 540.637L162.768 540.637L162.768 543.615L145.303 543.615Z" fill="#4180CB"/>
<path d="M146.276 16.4526L149.743 16.4526L149.743 31.4561L146.276 31.4561L146.276 16.4526Z" fill="#4180CB"/>
<path d="M127.231 16.4455L130.697 16.4455L130.697 31.449L127.231 31.449L127.231 16.4455Z" fill="#FFC200"/>
<path d="M108.173 16.4455L111.64 16.4455L111.64 31.449L108.173 31.449L108.173 16.4455Z" fill="#FF9D00"/>
<path d="M82.918 450.942C82.918 420.16 111.962 395.21 147.795 395.21C183.628 395.21 212.672 420.16 212.672 450.942C212.672 481.725 183.628 506.675 147.795 506.675C111.962 506.675 82.918 481.725 82.918 450.942ZM187.197 450.942C187.197 432.248 169.558 417.094 147.795 417.094C126.033 417.094 108.393 432.248 108.393 450.942C108.393 469.637 126.033 484.791 147.795 484.791C169.558 484.791 187.197 469.637 187.197 450.942Z" fill="#FFC200"/>
<path d="M493.131 468.987C493.131 432.302 476.496 397.811 446.304 371.865L444.857 373.107C506.402 425.976 506.402 511.989 444.857 564.858C415.044 590.468 375.406 604.573 333.256 604.573C291.105 604.573 251.457 590.468 221.654 564.858L220.208 566.1C250.411 592.045 290.561 606.326 333.266 606.326C375.97 606.326 416.121 592.037 446.324 566.1C476.506 540.163 493.131 505.672 493.131 468.987Z" fill="#4180CB"/>
<path d="M482.067 468.988C482.067 436.232 467.555 403.485 438.532 378.553L437.086 379.795C494.333 428.973 494.333 508.994 437.086 558.181C379.839 607.358 286.677 607.358 229.43 558.181L227.984 559.423C286.031 609.288 380.485 609.288 438.542 559.423C467.555 534.49 482.067 501.735 482.067 468.988Z" fill="#4180CB"/>
<path d="M471.132 468.987C471.132 437.351 456.785 407.608 430.746 385.231L429.3 386.473C454.959 408.515 469.081 437.818 469.081 468.979C469.081 500.149 454.949 529.451 429.3 551.485C403.64 573.527 369.53 585.659 333.256 585.659C296.971 585.659 262.861 573.518 237.212 551.485L235.766 552.727C261.805 575.095 296.438 587.421 333.266 587.421C370.094 587.421 404.717 575.095 430.766 552.727C456.785 530.367 471.132 500.624 471.132 468.987Z" fill="#4180CB"/>
<path d="M460.069 468.988C460.069 441.077 447.701 413.167 422.964 391.917L421.518 393.16C470.191 434.972 470.191 503.003 421.518 544.816C372.845 586.628 293.651 586.628 244.978 544.815L243.531 546.058C293.005 588.557 373.501 588.557 422.964 546.058C447.701 524.808 460.069 496.898 460.069 468.988Z" fill="#4180CB"/>
<path d="M449.074 468.987C449.074 443.5 437.782 418.004 415.189 398.595L413.743 399.837C458.129 437.967 458.129 499.998 413.743 538.119C369.357 576.249 297.147 576.249 252.77 538.119L251.324 539.362C296.501 578.17 370.023 578.17 415.199 539.362C437.782 519.971 449.074 494.475 449.074 468.987Z" fill="#4180CB"/>
<path d="M438.079 468.987C438.079 445.914 427.854 422.84 407.414 405.282L405.968 406.524C446.058 440.963 446.058 497.003 405.968 531.442C386.544 548.128 360.72 557.317 333.256 557.317C305.791 557.317 279.968 548.128 260.543 531.442L259.097 532.684C278.901 549.705 305.248 559.07 333.256 559.07C361.264 559.07 387.611 549.696 407.414 532.684C427.854 515.125 438.079 492.061 438.079 468.987Z" fill="#4180CB"/>
<path d="M427.085 468.987C427.085 448.336 417.937 427.685 399.63 411.96L398.184 413.202C433.987 443.958 433.987 493.999 398.184 524.754C362.382 555.51 304.13 555.51 268.327 524.754L266.881 525.996C303.484 557.439 363.038 557.439 399.641 525.996C417.926 510.288 427.085 489.638 427.085 468.987Z" fill="#4180CB"/>
<path d="M212.855 523.785L218.763 518.702L212.855 518.702L212.855 523.785Z" fill="#4180CB"/>
<path d="M212.855 533.194L229.726 518.702L223.819 518.702L212.855 528.12L212.855 533.194Z" fill="#4180CB"/>
<path d="M212.855 561.369L262.513 518.702L256.698 518.702L212.855 556.365L212.855 561.369Z" fill="#4180CB"/>
<path d="M212.855 552.03L251.642 518.702L245.735 518.702L212.855 546.955L212.855 552.03Z" fill="#4180CB"/>
<path d="M212.855 542.612L240.689 518.702L234.772 518.702L212.855 537.537L212.855 542.612Z" fill="#4180CB"/>
<path d="M508.116 370.852C508.116 468.189 416.261 547.096 302.952 547.096C189.643 547.096 97.7878 468.189 97.7878 370.852C97.7878 273.514 189.643 194.607 302.952 194.607C416.261 194.607 508.116 273.514 508.116 370.852Z" fill="url(#paint0_radial)"/>
<path d="M477.687 330.509C477.687 425.676 387.88 502.825 277.097 502.825C166.314 502.825 76.5073 425.676 76.5073 330.509C76.5073 235.342 166.315 158.194 277.097 158.194C387.88 158.194 477.687 235.342 477.687 330.509Z" fill="#2E3034"/>
<path d="M123.593 333.064C123.593 334.28 122.445 335.266 121.029 335.266C119.613 335.266 118.465 334.28 118.465 333.064C118.465 331.847 119.613 330.861 121.029 330.861C122.445 330.861 123.593 331.847 123.593 333.064Z" fill="#6089B1"/>
<path d="M125.818 356.084C125.818 354.895 124.7 353.935 123.316 353.935C121.931 353.935 120.813 354.895 120.813 356.084C120.813 357.274 121.931 358.234 123.316 358.234C124.7 358.234 125.818 357.274 125.818 356.084Z" fill="#6089B1"/>
<path d="M132.627 378.428C132.627 379.586 131.534 380.524 130.186 380.524C128.838 380.524 127.746 379.586 127.746 378.428C127.746 377.27 128.838 376.331 130.186 376.331C131.534 376.331 132.627 377.27 132.627 378.428Z" fill="#6089B1"/>
<path d="M143.827 399.403C143.827 398.275 142.761 397.359 141.448 397.359C140.135 397.359 139.069 398.275 139.069 399.403C139.069 400.53 140.135 401.447 141.448 401.447C142.761 401.455 143.827 400.539 143.827 399.403Z" fill="#6089B1"/>
<path d="M159.046 418.416C159.046 417.315 158.01 416.425 156.728 416.425C155.446 416.425 154.411 417.315 154.411 418.416C154.411 419.518 155.446 420.408 156.728 420.408C158.01 420.408 159.046 419.518 159.046 418.416Z" fill="#6089B1"/>
<path d="M177.834 434.899C177.834 435.975 176.819 436.846 175.568 436.846C174.316 436.846 173.301 435.975 173.301 434.899C173.301 433.824 174.316 432.952 175.568 432.952C176.819 432.952 177.834 433.824 177.834 434.899Z" fill="#6089B1"/>
<path d="M199.617 448.368C199.617 447.32 198.633 446.474 197.412 446.474C196.192 446.474 195.207 447.32 195.207 448.368C195.207 449.417 196.192 450.262 197.412 450.262C198.633 450.262 199.617 449.417 199.617 448.368Z" fill="#6089B1"/>
<path d="M222 460.252C220.831 460.414 219.731 459.732 219.543 458.728C219.354 457.724 220.148 456.779 221.317 456.617C222.486 456.455 223.586 457.137 223.775 458.141C223.963 459.145 223.169 460.09 222 460.252Z" fill="#6089B1"/>
<path d="M249.583 464.73C249.583 463.743 248.65 462.942 247.501 462.942C246.352 462.942 245.419 463.743 245.419 464.73C245.419 465.717 246.352 466.518 247.501 466.518C248.65 466.518 249.583 465.717 249.583 464.73Z" fill="#6089B1"/>
<path d="M276.269 467.118C276.269 466.158 275.367 465.382 274.249 465.382C273.131 465.382 272.229 466.158 272.229 467.118C272.229 468.078 273.131 468.854 274.249 468.854C275.367 468.854 276.269 468.078 276.269 467.118Z" fill="#6089B1"/>
<path d="M303.045 465.566C303.045 464.632 302.163 463.883 301.086 463.883C299.999 463.883 299.127 464.641 299.127 465.566C299.127 466.5 300.009 467.249 301.086 467.249C302.163 467.249 303.045 466.491 303.045 465.566Z" fill="#6089B1"/>
<path d="M329.105 460.076C329.105 459.178 328.253 458.446 327.207 458.446C326.161 458.446 325.31 459.178 325.31 460.076C325.31 460.975 326.161 461.706 327.207 461.706C328.253 461.706 329.105 460.975 329.105 460.076Z" fill="#6089B1"/>
<path d="M353.677 450.792C353.677 449.92 352.857 449.215 351.842 449.215C350.826 449.215 350.006 449.92 350.006 450.792C350.006 451.664 350.826 452.369 351.842 452.369C352.847 452.369 353.677 451.664 353.677 450.792Z" fill="#6089B1"/>
<path d="M376.014 438.008C376.014 437.162 375.214 436.484 374.239 436.484C373.255 436.484 372.465 437.171 372.465 438.008C372.465 438.854 373.265 439.532 374.239 439.532C375.214 439.532 376.014 438.854 376.014 438.008Z" fill="#6089B1"/>
<path d="M395.48 422.127C395.48 421.307 394.711 420.647 393.757 420.647C392.803 420.647 392.034 421.307 392.034 422.127C392.034 422.946 392.803 423.607 393.757 423.607C394.711 423.598 395.48 422.937 395.48 422.127Z" fill="#6089B1"/>
<path d="M411.501 403.606C411.501 402.822 410.762 402.179 409.839 402.179C408.916 402.179 408.178 402.813 408.178 403.606C408.178 404.399 408.916 405.033 409.839 405.033C410.762 405.033 411.501 404.39 411.501 403.606Z" fill="#6089B1"/>
<path d="M423.578 382.991C423.578 382.233 422.86 381.616 421.978 381.616C421.096 381.616 420.378 382.233 420.378 382.991C420.378 383.748 421.096 384.365 421.978 384.365C422.86 384.365 423.578 383.748 423.578 382.991Z" fill="#6089B1"/>
<path d="M431.333 360.886C431.333 360.155 430.646 359.565 429.795 359.565C428.943 359.565 428.256 360.155 428.256 360.886C428.256 361.617 428.943 362.208 429.795 362.208C430.646 362.208 431.333 361.617 431.333 360.886Z" fill="#6089B1"/>
<path d="M434.544 337.954C434.544 337.249 433.887 336.685 433.067 336.685C432.246 336.685 431.59 337.249 431.59 337.954C431.59 338.659 432.246 339.223 433.067 339.223C433.887 339.223 434.544 338.659 434.544 337.954Z" fill="#6089B1"/>
<path d="M433.159 314.88C433.159 314.21 432.523 313.664 431.744 313.664C430.964 313.664 430.329 314.21 430.329 314.88C430.329 315.55 430.964 316.096 431.744 316.096C432.523 316.096 433.159 315.55 433.159 314.88Z" fill="#6089B1"/>
<path d="M427.189 292.344C427.189 291.701 426.584 291.181 425.836 291.181C425.087 291.181 424.482 291.701 424.482 292.344C424.482 292.987 425.087 293.507 425.836 293.507C426.584 293.507 427.189 292.987 427.189 292.344Z" fill="#6089B1"/>
<path d="M416.771 271.015C416.771 270.398 416.187 269.905 415.479 269.905C414.761 269.905 414.187 270.407 414.187 271.015C414.187 271.631 414.772 272.125 415.479 272.125C416.197 272.134 416.771 271.631 416.771 271.015Z" fill="#6089B1"/>
<path d="M402.238 251.545C402.238 250.955 401.685 250.488 401.008 250.488C400.331 250.488 399.777 250.963 399.777 251.545C399.777 252.126 400.331 252.602 401.008 252.602C401.685 252.602 402.238 252.135 402.238 251.545Z" fill="#6089B1"/>
<path d="M384.045 234.48C384.045 235.039 383.517 235.493 382.866 235.493C382.214 235.493 381.686 235.039 381.686 234.48C381.686 233.92 382.214 233.467 382.866 233.467C383.517 233.467 384.045 233.92 384.045 234.48Z" fill="#6089B1"/>
<path d="M135.601 333.064C135.601 334.28 134.454 335.266 133.038 335.266C131.622 335.266 130.474 334.28 130.474 333.064C130.474 331.847 131.622 330.861 133.038 330.861C134.454 330.861 135.601 331.847 135.601 333.064Z" fill="#6089B1"/>
<path d="M137.939 355.813C137.939 354.641 136.831 353.689 135.467 353.689C134.103 353.689 132.996 354.641 132.996 355.813C132.996 356.984 134.103 357.936 135.467 357.936C136.831 357.936 137.939 356.984 137.939 355.813Z" fill="#6089B1"/>
<path d="M145.097 377.783C145.097 378.907 144.037 379.818 142.728 379.818C141.42 379.818 140.359 378.907 140.359 377.783C140.359 376.659 141.42 375.748 142.728 375.748C144.037 375.748 145.097 376.659 145.097 377.783Z" fill="#6089B1"/>
<path d="M156.871 398.223C156.871 397.149 155.856 396.268 154.595 396.268C153.343 396.268 152.318 397.14 152.318 398.223C152.318 399.298 153.333 400.179 154.595 400.179C155.856 400.17 156.871 399.298 156.871 398.223Z" fill="#6089B1"/>
<path d="M172.808 416.433C172.808 415.402 171.834 414.565 170.634 414.565C169.434 414.565 168.46 415.402 168.46 416.433C168.46 417.464 169.434 418.301 170.634 418.301C171.834 418.301 172.808 417.472 172.808 416.433Z" fill="#6089B1"/>
<path d="M192.354 431.825C192.354 430.838 191.421 430.036 190.273 430.036C189.124 430.036 188.191 430.838 188.191 431.825C188.191 432.811 189.124 433.613 190.273 433.613C191.421 433.613 192.354 432.811 192.354 431.825Z" fill="#6089B1"/>
<path d="M214.855 443.868C214.855 442.926 213.963 442.168 212.876 442.168C211.778 442.168 210.896 442.934 210.896 443.868C210.896 444.802 211.789 445.569 212.876 445.569C213.963 445.569 214.855 444.811 214.855 443.868Z" fill="#6089B1"/>
<path d="M239.54 452.123C239.54 453.018 238.695 453.744 237.653 453.744C236.611 453.744 235.766 453.018 235.766 452.123C235.766 451.228 236.611 450.502 237.653 450.502C238.695 450.502 239.54 451.228 239.54 452.123Z" fill="#6089B1"/>
<path d="M265.591 456.3C265.591 455.454 264.791 454.767 263.807 454.767C262.822 454.767 262.022 455.454 262.022 456.3C262.022 457.146 262.822 457.833 263.807 457.833C264.791 457.833 265.591 457.146 265.591 456.3Z" fill="#6089B1"/>
<path d="M292.081 456.299C292.081 455.497 291.322 454.846 290.389 454.846C289.456 454.846 288.697 455.497 288.697 456.299C288.697 457.101 289.456 457.753 290.389 457.753C291.322 457.753 292.081 457.101 292.081 456.299Z" fill="#6089B1"/>
<path d="M318.119 452.123C318.119 451.366 317.401 450.758 316.529 450.758C315.647 450.758 314.939 451.374 314.939 452.123C314.939 452.881 315.657 453.489 316.529 453.489C317.401 453.489 318.119 452.881 318.119 452.123Z" fill="#6089B1"/>
<path d="M342.815 443.869C342.815 443.155 342.149 442.582 341.318 442.582C340.487 442.582 339.821 443.155 339.821 443.869C339.821 444.582 340.487 445.155 341.318 445.155C342.138 445.155 342.815 444.582 342.815 443.869Z" fill="#6089B1"/>
<path d="M365.307 431.834C365.307 431.173 364.681 430.636 363.912 430.636C363.143 430.636 362.517 431.173 362.517 431.834C362.517 432.495 363.143 433.032 363.912 433.032C364.681 433.032 365.307 432.495 365.307 431.834Z" fill="#6089B1"/>
<path d="M384.853 416.441C384.853 415.825 384.269 415.322 383.551 415.322C382.833 415.322 382.248 415.825 382.248 416.441C382.248 417.058 382.833 417.56 383.551 417.56C384.269 417.551 384.853 417.058 384.853 416.441Z" fill="#6089B1"/>
<path d="M400.79 398.223C400.79 397.65 400.246 397.192 399.59 397.192C398.933 397.192 398.39 397.659 398.39 398.223C398.39 398.795 398.933 399.253 399.59 399.253C400.246 399.253 400.79 398.795 400.79 398.223Z" fill="#6089B1"/>
<path d="M412.564 377.783C412.564 377.255 412.071 376.832 411.456 376.832C410.841 376.832 410.348 377.255 410.348 377.783C410.348 378.312 410.841 378.735 411.456 378.735C412.071 378.735 412.564 378.312 412.564 377.783Z" fill="#6089B1"/>
<path d="M419.734 355.811C419.734 356.292 419.279 356.683 418.718 356.683C418.157 356.683 417.703 356.292 417.703 355.811C417.703 355.329 418.157 354.938 418.718 354.938C419.279 354.938 419.734 355.329 419.734 355.811Z" fill="#6089B1"/>
<path d="M422.06 333.063C422.06 333.496 421.651 333.847 421.147 333.847C420.643 333.847 420.235 333.496 420.235 333.063C420.235 332.63 420.643 332.279 421.147 332.279C421.651 332.279 422.06 332.63 422.06 333.063Z" fill="#6089B1"/>
<path d="M149.447 333.064C149.447 334.28 148.299 335.266 146.883 335.266C145.467 335.266 144.319 334.28 144.319 333.064C144.319 331.847 145.467 330.861 146.883 330.861C148.299 330.861 149.447 331.847 149.447 333.064Z" fill="#6089B1"/>
<path d="M151.691 354.895C151.691 353.785 150.645 352.895 149.363 352.895C148.071 352.895 147.035 353.794 147.035 354.895C147.035 355.996 148.081 356.895 149.363 356.895C150.645 356.904 151.691 356.005 151.691 354.895Z" fill="#6089B1"/>
<path d="M158.859 375.89C158.859 374.894 157.916 374.084 156.757 374.084C155.598 374.084 154.654 374.894 154.654 375.89C154.654 376.885 155.598 377.696 156.757 377.696C157.916 377.696 158.859 376.885 158.859 375.89Z" fill="#6089B1"/>
<path d="M170.675 395.219C170.675 396.105 169.839 396.823 168.808 396.823C167.777 396.823 166.942 396.105 166.942 395.219C166.942 394.334 167.777 393.616 168.808 393.616C169.839 393.616 170.675 394.334 170.675 395.219Z" fill="#6089B1"/>
<path d="M186.653 412.169C186.653 411.394 185.915 410.76 185.012 410.76C184.11 410.76 183.371 411.394 183.371 412.169C183.371 412.945 184.11 413.579 185.012 413.579C185.915 413.579 186.653 412.945 186.653 412.169Z" fill="#6089B1"/>
<path d="M206.148 426.09C206.148 425.42 205.522 424.883 204.743 424.883C203.963 424.883 203.338 425.42 203.338 426.09C203.338 426.759 203.963 427.297 204.743 427.297C205.522 427.297 206.148 426.759 206.148 426.09Z" fill="#6089B1"/>
<path d="M228.423 436.441C228.423 435.886 227.9 435.428 227.244 435.428C226.598 435.428 226.064 435.877 226.064 436.441C226.064 436.996 226.587 437.454 227.244 437.454C227.9 437.454 228.423 436.996 228.423 436.441Z" fill="#6089B1"/>
<path d="M252.627 442.802C252.627 442.353 252.206 441.992 251.683 441.992C251.16 441.992 250.74 442.353 250.74 442.802C250.74 443.252 251.16 443.613 251.683 443.613C252.206 443.613 252.627 443.252 252.627 442.802Z" fill="#6089B1"/>
<path d="M277.806 444.933C277.806 445.269 277.489 445.541 277.098 445.541C276.707 445.541 276.39 445.269 276.39 444.933C276.39 444.598 276.707 444.326 277.098 444.326C277.489 444.326 277.806 444.598 277.806 444.933Z" fill="#6089B1"/>
<path d="M339.832 232.516C339.832 182.228 292.205 141.314 233.656 141.314C175.106 141.314 127.489 182.228 127.489 232.516C127.489 282.803 175.116 323.726 233.656 323.726C292.195 323.726 339.832 282.812 339.832 232.516ZM129.54 232.516C129.54 183.197 176.245 143.076 233.656 143.076C291.067 143.076 337.781 183.197 337.781 232.516C337.781 281.834 291.077 321.964 233.656 321.964C176.245 321.964 129.54 281.834 129.54 232.516Z" fill="#4180CB"/>
<path d="M322.471 232.516C322.471 190.448 282.628 156.23 233.667 156.23C184.697 156.23 144.864 190.457 144.864 232.516C144.864 274.584 184.707 308.802 233.667 308.802C282.628 308.811 322.471 274.584 322.471 232.516ZM151.879 232.516C151.879 193.779 188.563 162.265 233.657 162.265C278.751 162.265 315.436 193.779 315.436 232.516C315.436 271.254 278.751 302.767 233.657 302.767C188.563 302.767 151.879 271.254 151.879 232.516Z" fill="#FF9D00"/>
<path d="M305.098 232.516C305.098 198.676 273.049 171.145 233.657 171.145C194.265 171.145 162.216 198.676 162.216 232.516C162.216 266.355 194.265 293.886 233.657 293.886C273.049 293.886 305.098 266.355 305.098 232.516ZM164.267 232.516C164.267 199.646 195.393 172.907 233.657 172.907C271.921 172.907 303.047 199.646 303.047 232.516C303.047 265.386 271.921 292.124 233.657 292.124C195.393 292.124 164.267 265.386 164.267 232.516Z" fill="#4180CB"/>
<path d="M287.734 232.515C287.734 206.904 263.479 186.06 233.656 186.06C203.832 186.06 179.578 206.896 179.578 232.515C179.578 258.135 203.832 278.97 233.656 278.97C263.479 278.97 287.734 258.135 287.734 232.515ZM181.639 232.515C181.639 207.873 204.981 187.822 233.666 187.822C262.351 187.822 285.693 207.873 285.693 232.515C285.693 257.157 262.351 277.208 233.666 277.208C204.981 277.208 181.639 257.166 181.639 232.515Z" fill="#4180CB"/>
<path d="M270.372 232.517C270.372 215.126 253.901 200.985 233.656 200.985C213.412 200.985 196.951 215.134 196.951 232.517C196.951 249.908 213.422 264.056 233.656 264.056C253.901 264.056 270.372 249.908 270.372 232.517ZM199.003 232.517C199.003 216.103 214.55 202.747 233.656 202.747C252.763 202.747 268.32 216.103 268.32 232.517C268.32 248.93 252.773 262.294 233.656 262.294C214.54 262.294 199.003 248.938 199.003 232.517Z" fill="#4180CB"/>
<path d="M253.009 232.517C253.009 223.354 244.333 215.901 233.667 215.901C223.001 215.901 214.325 223.354 214.325 232.517C214.325 241.679 223.001 249.133 233.667 249.133C244.322 249.141 253.009 241.679 253.009 232.517ZM216.366 232.517C216.366 224.324 224.119 217.663 233.657 217.663C243.194 217.663 250.948 224.324 250.948 232.517C250.948 240.71 243.194 247.371 233.657 247.371C224.129 247.379 216.366 240.71 216.366 232.517Z" fill="#4180CB"/>
<path d="M431.518 355.064C431.518 417.028 373.044 467.259 300.912 467.259C228.781 467.259 170.307 417.028 170.307 355.064C170.307 293.1 228.781 242.868 300.912 242.868C373.044 242.868 431.518 293.1 431.518 355.064Z" fill="url(#paint1_radial)"/>
<path d="M399.141 330.51C399.141 388.411 344.501 435.349 277.099 435.349C209.697 435.349 155.057 388.411 155.057 330.51C155.057 272.609 209.697 225.671 277.099 225.671C344.501 225.671 399.141 272.609 399.141 330.51Z" fill="#4180CB"/>
<path d="M335.197 318.43L328.028 324.588L325.915 322.773L335.197 314.809L344.478 322.773L342.365 324.588L335.197 318.43Z" fill="white"/>
<path d="M335.196 329.177L328.028 335.335L325.915 333.52L335.196 325.547L344.478 333.52L342.365 335.335L335.196 329.177Z" fill="white"/>
<path d="M335.196 340.057L328.028 346.216L325.915 344.401L335.196 336.428L344.478 344.401L342.365 346.216L335.196 340.057Z" fill="white"/>
<path d="M230.806 342.586L237.974 336.428L240.077 338.243L230.806 346.216L221.524 338.243L223.637 336.428L230.806 342.586Z" fill="white"/>
<path d="M230.806 331.839L237.974 325.68L240.077 327.495L230.806 335.468L221.524 327.495L223.637 325.68L230.806 331.839Z" fill="white"/>
<path d="M230.805 320.967L237.974 314.809L240.076 316.615L230.805 324.588L221.524 316.615L223.637 314.809L230.805 320.967Z" fill="white"/>
<path d="M375.979 503.78C351.608 524.716 312.096 524.716 287.725 503.78C263.354 482.845 263.354 448.902 287.725 427.966C312.096 407.031 351.608 407.031 375.979 427.966C400.35 448.902 400.35 482.845 375.979 503.78Z" fill="#FF9D00"/>
<path d="M354.531 474.063C349.257 484.814 334.835 489.858 322.319 485.327C309.803 480.797 303.932 468.408 309.206 457.656C314.48 446.904 328.902 441.861 341.418 446.391C353.934 450.922 359.805 463.311 354.531 474.063Z" fill="#4180CB"/>
<path d="M266.38 622.542L250.228 636.418C251.868 633.951 253.827 631.669 256.053 629.599L258.442 627.546C260.842 625.635 263.509 623.952 266.38 622.542Z" fill="#FF9D00"/>
<path d="M279.222 618.402L245.409 647.449C245.594 646.647 245.819 645.854 246.065 645.07L276.453 618.966C277.365 618.746 278.288 618.56 279.222 618.402Z" fill="#FF9D00"/>
<path d="M287.816 617.663C287.908 617.663 288 617.663 288.093 617.663L244.558 655.061C244.558 654.982 244.558 654.903 244.558 654.824C244.558 654.286 244.578 653.749 244.599 653.211L285.939 617.698C286.565 617.681 287.18 617.663 287.816 617.663Z" fill="#FF9D00"/>
<path d="M295.433 618.245L245.211 661.387C245.108 660.868 245.006 660.339 244.924 659.819L293.597 618.007C294.222 618.069 294.827 618.148 295.433 618.245Z" fill="#FF9D00"/>
<path d="M301.813 619.653L246.863 666.857C246.678 666.399 246.514 665.941 246.35 665.483L300.202 619.221C300.746 619.353 301.279 619.494 301.813 619.653Z" fill="#FF9D00"/>
<path d="M307.445 621.707L249.244 671.704C249.009 671.298 248.773 670.893 248.557 670.479L306.02 621.108C306.502 621.302 306.973 621.495 307.445 621.707Z" fill="#FF9D00"/>
<path d="M312.46 624.278L252.249 676.002C251.962 675.641 251.674 675.279 251.397 674.918L311.188 623.556C311.619 623.794 312.039 624.031 312.46 624.278Z" fill="#FF9D00"/>
<path d="M316.92 627.334L255.807 679.833C255.468 679.516 255.14 679.19 254.822 678.864L315.802 626.48C316.182 626.762 316.551 627.044 316.92 627.334Z" fill="#FF9D00"/>
<path d="M320.859 630.842L259.889 683.218C259.51 682.945 259.13 682.663 258.761 682.372L319.874 629.873C320.213 630.191 320.541 630.516 320.859 630.842Z" fill="#FF9D00"/>
<path d="M324.263 634.807L264.494 686.152C264.063 685.914 263.642 685.676 263.232 685.42L323.423 633.714C323.71 634.076 323.997 634.437 324.263 634.807Z" fill="#FF9D00"/>
<path d="M327.106 639.256L269.684 688.583C269.202 688.389 268.731 688.195 268.259 687.993L326.418 638.031C326.654 638.436 326.88 638.842 327.106 639.256Z" fill="#FF9D00"/>
<path d="M329.3 644.261L275.509 690.478C274.965 690.337 274.432 690.196 273.909 690.047L328.807 642.887C328.971 643.336 329.136 643.794 329.3 644.261Z" fill="#FF9D00"/>
<path d="M330.703 649.933L282.112 691.675C281.497 691.605 280.892 691.525 280.276 691.437L330.416 648.365C330.529 648.885 330.621 649.404 330.703 649.933Z" fill="#FF9D00"/>
<path d="M331.082 654.831C331.082 655.403 331.062 655.976 331.031 656.54L289.803 691.956C289.147 691.983 288.48 692 287.814 692C287.762 692 287.701 692 287.649 692L331.072 654.699C331.072 654.734 331.082 654.787 331.082 654.831Z" fill="#FF9D00"/>
<path d="M329.525 664.725L299.332 690.662C298.419 690.882 297.486 691.076 296.553 691.234L330.202 662.329C330.007 663.139 329.781 663.941 329.525 664.725Z" fill="#FF9D00"/>
<path d="M309.514 686.989L325.247 673.474C321.462 679.069 316.027 683.738 309.514 686.989Z" fill="#FF9D00"/>
<path d="M30.9436 309.383L13.9602 323.972C15.6832 321.382 17.7445 318.977 20.0828 316.801L22.5955 314.643C25.1286 312.634 27.9284 310.863 30.9436 309.383Z" fill="#4180CB"/>
<path d="M44.4386 305.031L8.89258 335.567C9.08743 334.721 9.32331 333.893 9.5797 333.065L41.526 305.621C42.49 305.401 43.4541 305.199 44.4386 305.031Z" fill="#4180CB"/>
<path d="M53.4747 304.256C53.567 304.256 53.6696 304.256 53.7619 304.256L8.00122 343.575C8.00122 343.496 8.00122 343.408 8.00122 343.329C8.00122 342.756 8.02173 342.192 8.04224 341.637L51.5057 304.3C52.162 304.274 52.8184 304.256 53.4747 304.256Z" fill="#4180CB"/>
<path d="M61.4938 304.864L8.70805 350.209C8.59524 349.663 8.49269 349.108 8.41064 348.562L59.576 304.608C60.2118 304.679 60.858 304.767 61.4938 304.864Z" fill="#4180CB"/>
<path d="M68.1909 306.343L10.4312 355.961C10.2364 355.485 10.062 355.001 9.89795 354.516L66.509 305.885C67.0731 306.035 67.6371 306.185 68.1909 306.343Z" fill="#4180CB"/>
<path d="M74.1086 308.501L12.9337 361.053C12.6876 360.63 12.4414 360.198 12.2056 359.767L72.6113 307.876C73.1138 308.078 73.6163 308.281 74.1086 308.501Z" fill="#4180CB"/>
<path d="M79.3804 311.215L16.0929 365.582C15.7853 365.203 15.4878 364.824 15.2007 364.437L78.0472 310.449C78.4984 310.695 78.9394 310.951 79.3804 311.215Z" fill="#4180CB"/>
<path d="M84.0764 314.421L19.8351 369.607C19.4864 369.273 19.1377 368.938 18.7993 368.594L82.897 313.532C83.2868 313.822 83.6867 314.122 84.0764 314.421Z" fill="#4180CB"/>
<path d="M88.2095 318.114L24.122 373.168C23.7221 372.877 23.3221 372.577 22.9324 372.278L87.1737 317.092C87.5224 317.427 87.8711 317.761 88.2095 318.114Z" fill="#4180CB"/>
<path d="M91.7891 322.272L28.9631 376.243C28.5119 375.996 28.0709 375.74 27.6299 375.476L90.9071 321.127C91.2046 321.506 91.502 321.885 91.7891 322.272Z" fill="#4180CB"/>
<path d="M94.7731 326.949L34.4187 378.796C33.9162 378.594 33.4137 378.391 32.9214 378.171L94.0552 325.654C94.3014 326.086 94.5372 326.518 94.7731 326.949Z" fill="#4180CB"/>
<path d="M97.0818 332.209L40.5323 380.788C39.9682 380.647 39.4041 380.488 38.8503 380.33L96.5485 330.765C96.7434 331.24 96.9177 331.725 97.0818 332.209Z" fill="#4180CB"/>
<path d="M98.5595 338.183L47.4864 382.057C46.8403 381.986 46.1942 381.898 45.5583 381.801L98.2621 336.526C98.3749 337.073 98.4774 337.628 98.5595 338.183Z" fill="#4180CB"/>
<path d="M98.9584 343.327C98.9584 343.935 98.9379 344.534 98.9071 345.125L55.577 382.347C54.8797 382.374 54.1823 382.391 53.4849 382.391C53.4234 382.391 53.3721 382.391 53.3105 382.391L98.9584 343.178C98.9481 343.222 98.9584 343.275 98.9584 343.327Z" fill="#4180CB"/>
<path d="M97.3168 353.725L65.5757 380.992C64.6117 381.221 63.6374 381.423 62.6528 381.6L98.0245 351.214C97.8194 352.059 97.5835 352.896 97.3168 353.725Z" fill="#4180CB"/>
<path d="M76.2837 377.123L92.826 362.913C88.8469 368.798 83.1345 373.705 76.2837 377.123Z" fill="#4180CB"/>
<path d="M0 218.629L39.9252 218.629L39.9252 252.926L-1.74519e-06 252.926L0 218.629ZM34.3666 248.151L34.3666 223.404L5.55855 223.404L5.55855 248.151L34.3666 248.151Z" fill="#FF9D00"/>
<path d="M43.095 130.116L62.7243 130.098L52.9199 144.705L43.095 130.116Z" fill="#FFC200"/>
<path d="M32.1829 150.353L73.6566 150.327L52.9505 181.197L32.1829 150.353ZM41.9257 155.172L52.9403 171.532L63.924 155.163L41.9257 155.172Z" fill="#4180CB"/>
<path d="M459.001 216.542L459.042 257.984L417.25 237.289L459.001 216.542ZM452.468 226.277L430.326 237.281L452.488 248.258L452.468 226.277Z" fill="#4180CB"/>
<path d="M490.27 294.766C467.287 294.766 448.663 310.765 448.663 330.508C448.663 350.252 467.287 366.251 490.27 366.251L490.27 294.766Z" fill="#FFC200"/>
<path d="M171.055 123.446L171.055 47.1163L126.628 85.2813L171.055 123.446Z" fill="#FFC200"/>
<path d="M533.489 75.22C485.133 75.22 445.926 41.5481 445.926 0L480.303 1.1089e-06C480.303 25.2319 504.117 45.6888 533.489 45.6888L533.489 75.22Z" fill="#FF9D00"/>
<path d="M20.7068 660.885L20.7068 613.478L75.9744 613.478L75.9744 660.885L20.7068 660.885Z" fill="#FF9D00"/>
<path d="M36.4404 647.387L36.4404 626.975L60.2335 626.975L60.2335 647.387L36.4404 647.387Z" fill="#6089B1"/>
<defs>
<radialGradient id="paint0_radial" cx="0" cy="0" r="1" gradientUnits="userSpaceOnUse" gradientTransform="translate(302.955 370.851) rotate(90) scale(176.244 205.164)">
<stop stop-color="#8A8A8A"/>
<stop offset="1" stop-color="#424242"/>
</radialGradient>
<radialGradient id="paint1_radial" cx="0" cy="0" r="1" gradientUnits="userSpaceOnUse" gradientTransform="translate(300.915 355.066) rotate(90) scale(112.198 130.608)">
<stop/>
<stop offset="1" stop-color="white"/>
</radialGradient>
</defs>
</svg>
