<svg width="720" height="277" viewBox="0 0 720 277" fill="none" xmlns="http://www.w3.org/2000/svg">
<path d="M0.654029 14.0098H21.654V92.8898C21.5715 101.857 24.8707 110.526 30.894 117.17C35.464 122.09 41.954 126.24 50.894 126.24C57.0414 126.292 63.1148 124.898 68.624 122.17C73.8995 119.451 78.3167 115.32 81.3835 110.239C84.4503 105.158 86.0464 99.3247 85.994 93.3898H108.814C108.848 103.814 105.547 113.975 99.394 122.39C90.534 134.39 75.234 148.72 52.674 148.19C42.7874 148.047 33.1427 145.111 24.854 139.72C9.29403 129.61 0.154029 112.05 0.154029 93.4998C-0.0359711 66.3898 -0.205971 13.1698 0.654029 14.0098Z" fill="black"/>
<path fill-rule="evenodd" clip-rule="evenodd" d="M622.37 14.033H536.11C535.09 13.013 555.96 35.9431 555.96 35.9431H622.37V14.033ZM555.28 147.523H532.69C532.69 146.153 532 80.4431 532 80.4431H621V103.033H555.28V147.523Z" fill="black"/>
<path d="M145.781 88.8261C154.261 78.6082 162.346 73.4993 170.035 73.4993C173.986 73.4993 177.383 74.5 180.227 76.5015C183.071 78.4502 185.336 81.6894 187.021 86.2189C188.18 89.3791 188.759 94.2247 188.759 100.756V131.646C188.759 136.228 189.128 139.336 189.865 140.969C190.445 142.285 191.366 143.312 192.63 144.05C193.947 144.787 196.344 145.156 199.82 145.156V148H164.031V145.156H165.532C168.903 145.156 171.247 144.656 172.563 143.655C173.933 142.601 174.881 141.074 175.408 139.073C175.618 138.283 175.724 135.807 175.724 131.646V102.02C175.724 95.4361 174.855 90.6695 173.117 87.72C171.431 84.7179 168.561 83.2168 164.505 83.2168C158.237 83.2168 151.996 86.6403 145.781 93.4873V131.646C145.781 136.544 146.071 139.573 146.65 140.732C147.388 142.259 148.388 143.391 149.652 144.129C150.969 144.814 153.603 145.156 157.553 145.156V148H121.764V145.156H123.344C127.031 145.156 129.506 144.234 130.77 142.391C132.087 140.495 132.746 136.913 132.746 131.646V104.785C132.746 96.0944 132.535 90.8012 132.113 88.9051C131.745 87.009 131.139 85.7186 130.296 85.0339C129.506 84.3492 128.427 84.0068 127.057 84.0068C125.582 84.0068 123.818 84.4019 121.764 85.1919L120.579 82.3478L142.384 73.4993H145.781V88.8261ZM223.995 35.6564C226.207 35.6564 228.077 36.4465 229.604 38.0266C231.184 39.554 231.974 41.4237 231.974 43.6358C231.974 45.8479 231.184 47.744 229.604 49.3241C228.077 50.9042 226.207 51.6942 223.995 51.6942C221.783 51.6942 219.887 50.9042 218.307 49.3241C216.727 47.744 215.937 45.8479 215.937 43.6358C215.937 41.4237 216.7 39.554 218.228 38.0266C219.808 36.4465 221.73 35.6564 223.995 35.6564ZM230.552 73.4993V131.646C230.552 136.176 230.868 139.204 231.5 140.732C232.185 142.206 233.159 143.312 234.424 144.05C235.74 144.787 238.11 145.156 241.534 145.156V148H206.377V145.156C209.906 145.156 212.276 144.814 213.488 144.129C214.699 143.444 215.647 142.312 216.332 140.732C217.069 139.152 217.438 136.123 217.438 131.646V103.758C217.438 95.9101 217.201 90.8275 216.727 88.5101C216.358 86.8246 215.779 85.6659 214.989 85.0339C214.199 84.3492 213.119 84.0068 211.749 84.0068C210.275 84.0068 208.484 84.4019 206.377 85.1919L205.271 82.3478L227.076 73.4993H230.552ZM314.692 73.4993V166.566C314.692 171.201 315.008 174.177 315.64 175.493C316.272 176.81 317.246 177.837 318.563 178.575C319.932 179.312 322.566 179.681 326.463 179.681V182.604H289.963V179.681H291.464C294.414 179.681 296.652 179.259 298.18 178.417C299.233 177.837 300.076 176.784 300.708 175.256C301.34 173.782 301.656 170.885 301.656 166.566V135.438C296.863 141.127 292.676 145.024 289.094 147.131C285.513 149.185 281.8 150.212 277.955 150.212C270.95 150.212 264.682 147.026 259.152 140.653C253.674 134.28 250.935 125.747 250.935 115.055C250.935 102.783 254.57 92.8026 261.838 85.1129C269.106 77.3705 277.876 73.4993 288.146 73.4993C291.148 73.4993 293.913 73.9207 296.442 74.7634C298.97 75.6061 301.235 76.8701 303.236 78.5556C306.291 77.0808 309.214 75.3954 312.005 73.4993H314.692ZM301.656 130.461V96.4895C301.656 92.5393 301.129 89.4318 300.076 87.167C299.075 84.9022 297.258 82.9798 294.625 81.3997C291.991 79.8196 289.015 79.0296 285.697 79.0296C279.798 79.0296 274.742 81.5314 270.528 86.535C266.315 91.5385 264.208 99.1229 264.208 109.288C264.208 119.032 266.341 126.432 270.607 131.488C274.926 136.544 280.114 139.073 286.171 139.073C289.279 139.073 292.044 138.414 294.467 137.097C296.889 135.728 299.286 133.516 301.656 130.461ZM394.959 75.6324V119.48C394.959 127.854 395.144 132.989 395.513 134.885C395.934 136.729 396.566 138.019 397.409 138.757C398.304 139.494 399.331 139.863 400.49 139.863C402.122 139.863 403.966 139.415 406.02 138.52L407.126 141.285L385.479 150.212H381.924V134.885C375.709 141.627 370.969 145.867 367.703 147.605C364.438 149.343 360.988 150.212 357.354 150.212C353.298 150.212 349.769 149.053 346.767 146.736C343.818 144.366 341.764 141.337 340.605 137.65C339.446 133.964 338.867 128.749 338.867 122.008V89.6951C338.867 86.2716 338.498 83.9015 337.761 82.5848C337.023 81.268 335.917 80.2673 334.442 79.5826C333.02 78.8452 330.413 78.5029 326.621 78.5556V75.6324H351.981V124.062C351.981 130.803 353.14 135.228 355.458 137.334C357.828 139.441 360.672 140.495 363.99 140.495C366.255 140.495 368.809 139.784 371.653 138.362C374.55 136.939 377.974 134.227 381.924 130.224V89.2211C381.924 85.1129 381.16 82.3478 379.633 80.9257C378.158 79.4509 375.05 78.6609 370.31 78.5556V75.6324H394.959ZM424.586 102.889C424.533 113.633 427.14 122.06 432.407 128.17C437.674 134.28 443.863 137.334 450.973 137.334C455.713 137.334 459.822 136.044 463.298 133.463C466.827 130.83 469.776 126.353 472.146 120.033L474.595 121.613C473.489 128.828 470.277 135.412 464.957 141.364C459.637 147.263 452.975 150.212 444.969 150.212C436.279 150.212 428.826 146.841 422.611 140.1C416.449 133.305 413.367 124.193 413.367 112.764C413.367 100.387 416.528 90.7485 422.848 83.8488C429.221 76.8965 437.2 73.4203 446.786 73.4203C454.897 73.4203 461.56 76.1064 466.774 81.4787C471.988 86.7983 474.595 93.935 474.595 102.889H424.586ZM424.586 98.3065H458.084C457.82 93.6716 457.267 90.4062 456.425 88.5101C455.108 85.5606 453.133 83.2431 450.499 81.5577C447.918 79.8723 445.206 79.0296 442.362 79.0296C437.99 79.0296 434.066 80.7413 430.59 84.1648C427.167 87.5357 425.165 92.2496 424.586 98.3065Z" fill="black"/>
<path d="M651.534 37.7365C653.747 37.7365 655.616 38.5266 657.144 40.1066C658.724 41.634 659.514 43.5038 659.514 45.7159C659.514 47.928 658.724 49.8241 657.144 51.4042C655.616 52.9843 653.747 53.7743 651.534 53.7743C649.322 53.7743 647.426 52.9843 645.846 51.4042C644.266 49.8241 643.476 47.928 643.476 45.7159C643.476 43.5038 644.24 41.634 645.767 40.1066C647.347 38.5266 649.27 37.7365 651.534 37.7365ZM658.092 75.5794V133.726C658.092 138.256 658.408 141.284 659.04 142.812C659.725 144.286 660.699 145.393 661.963 146.13C663.28 146.867 665.65 147.236 669.073 147.236V150.08H633.917V147.236C637.445 147.236 639.816 146.894 641.027 146.209C642.238 145.524 643.186 144.392 643.871 142.812C644.608 141.232 644.977 138.203 644.977 133.726V105.838C644.977 97.9902 644.74 92.9076 644.266 90.5901C643.897 88.9047 643.318 87.746 642.528 87.114C641.738 86.4293 640.658 86.0869 639.289 86.0869C637.814 86.0869 636.023 86.4819 633.917 87.272L632.811 84.4278L654.616 75.5794H658.092ZM699.174 53.9323V77.7125H716.081V83.2428H699.174V130.171C699.174 134.859 699.832 138.019 701.149 139.652C702.518 141.284 704.256 142.101 706.363 142.101C708.101 142.101 709.787 141.574 711.419 140.521C713.052 139.415 714.316 137.808 715.212 135.701H718.293C716.449 140.863 713.842 144.76 710.471 147.394C707.101 149.975 703.624 151.265 700.043 151.265C697.62 151.265 695.25 150.607 692.933 149.29C690.615 147.921 688.903 145.998 687.797 143.523C686.691 140.995 686.138 137.123 686.138 131.909V83.2428H674.683V80.6356C677.579 79.4769 680.529 77.5282 683.531 74.7894C686.586 71.9979 689.298 68.7061 691.668 64.9139C692.88 62.9124 694.565 59.2519 696.725 53.9323H699.174Z" fill="black"/>
<path d="M178.062 253.832C177.641 257.441 176.305 260.23 174.055 262.199C171.82 264.152 168.844 265.129 165.125 265.129C161.094 265.129 157.859 263.684 155.422 260.793C153 257.902 151.789 254.035 151.789 249.191V245.91C151.789 242.738 152.352 239.949 153.477 237.543C154.617 235.137 156.227 233.293 158.305 232.012C160.383 230.715 162.789 230.066 165.523 230.066C169.148 230.066 172.055 231.082 174.242 233.113C176.43 235.129 177.703 237.926 178.062 241.504H173.539C173.148 238.785 172.297 236.816 170.984 235.598C169.688 234.379 167.867 233.77 165.523 233.77C162.648 233.77 160.391 234.832 158.75 236.957C157.125 239.082 156.312 242.105 156.312 246.027V249.332C156.312 253.035 157.086 255.98 158.633 258.168C160.18 260.355 162.344 261.449 165.125 261.449C167.625 261.449 169.539 260.887 170.867 259.762C172.211 258.621 173.102 256.645 173.539 253.832H178.062ZM199.203 262.152C197.516 264.137 195.039 265.129 191.773 265.129C189.07 265.129 187.008 264.348 185.586 262.785C184.18 261.207 183.469 258.879 183.453 255.801V239.301H187.789V255.684C187.789 259.527 189.352 261.449 192.477 261.449C195.789 261.449 197.992 260.215 199.086 257.746V239.301H203.422V264.66H199.297L199.203 262.152ZM224.797 257.934C224.797 256.762 224.352 255.855 223.461 255.215C222.586 254.559 221.047 253.996 218.844 253.527C216.656 253.059 214.914 252.496 213.617 251.84C212.336 251.184 211.383 250.402 210.758 249.496C210.148 248.59 209.844 247.512 209.844 246.262C209.844 244.184 210.719 242.426 212.469 240.988C214.234 239.551 216.484 238.832 219.219 238.832C222.094 238.832 224.422 239.574 226.203 241.059C228 242.543 228.898 244.441 228.898 246.754H224.539C224.539 245.566 224.031 244.543 223.016 243.684C222.016 242.824 220.75 242.395 219.219 242.395C217.641 242.395 216.406 242.738 215.516 243.426C214.625 244.113 214.18 245.012 214.18 246.121C214.18 247.168 214.594 247.957 215.422 248.488C216.25 249.02 217.742 249.527 219.898 250.012C222.07 250.496 223.828 251.074 225.172 251.746C226.516 252.418 227.508 253.23 228.148 254.184C228.805 255.121 229.133 256.27 229.133 257.629C229.133 259.895 228.227 261.715 226.414 263.09C224.602 264.449 222.25 265.129 219.359 265.129C217.328 265.129 215.531 264.77 213.969 264.051C212.406 263.332 211.18 262.332 210.289 261.051C209.414 259.754 208.977 258.355 208.977 256.855H213.312C213.391 258.309 213.969 259.465 215.047 260.324C216.141 261.168 217.578 261.59 219.359 261.59C221 261.59 222.312 261.262 223.297 260.605C224.297 259.934 224.797 259.043 224.797 257.934ZM240.664 233.16V239.301H245.398V242.652H240.664V258.379C240.664 259.395 240.875 260.16 241.297 260.676C241.719 261.176 242.438 261.426 243.453 261.426C243.953 261.426 244.641 261.332 245.516 261.145V264.66C244.375 264.973 243.266 265.129 242.188 265.129C240.25 265.129 238.789 264.543 237.805 263.371C236.82 262.199 236.328 260.535 236.328 258.379V242.652H231.711V239.301H236.328V233.16H240.664ZM248.867 251.746C248.867 249.262 249.352 247.027 250.32 245.043C251.305 243.059 252.664 241.527 254.398 240.449C256.148 239.371 258.141 238.832 260.375 238.832C263.828 238.832 266.617 240.027 268.742 242.418C270.883 244.809 271.953 247.988 271.953 251.957V252.262C271.953 254.73 271.477 256.949 270.523 258.918C269.586 260.871 268.234 262.395 266.469 263.488C264.719 264.582 262.703 265.129 260.422 265.129C256.984 265.129 254.195 263.934 252.055 261.543C249.93 259.152 248.867 255.988 248.867 252.051V251.746ZM253.227 252.262C253.227 255.074 253.875 257.332 255.172 259.035C256.484 260.738 258.234 261.59 260.422 261.59C262.625 261.59 264.375 260.73 265.672 259.012C266.969 257.277 267.617 254.855 267.617 251.746C267.617 248.965 266.953 246.715 265.625 244.996C264.312 243.262 262.562 242.395 260.375 242.395C258.234 242.395 256.508 243.246 255.195 244.949C253.883 246.652 253.227 249.09 253.227 252.262ZM281.469 239.301L281.586 242.113C283.445 239.926 285.953 238.832 289.109 238.832C292.656 238.832 295.07 240.191 296.352 242.91C297.195 241.691 298.289 240.707 299.633 239.957C300.992 239.207 302.594 238.832 304.438 238.832C310 238.832 312.828 241.777 312.922 247.668V264.66H308.586V247.926C308.586 246.113 308.172 244.762 307.344 243.871C306.516 242.965 305.125 242.512 303.172 242.512C301.562 242.512 300.227 242.996 299.164 243.965C298.102 244.918 297.484 246.207 297.312 247.832V264.66H292.953V248.043C292.953 244.355 291.148 242.512 287.539 242.512C284.695 242.512 282.75 243.723 281.703 246.145V264.66H277.367V239.301H281.469ZM324.195 264.66H319.859V239.301H324.195V264.66ZM319.508 232.574C319.508 231.871 319.719 231.277 320.141 230.793C320.578 230.309 321.219 230.066 322.062 230.066C322.906 230.066 323.547 230.309 323.984 230.793C324.422 231.277 324.641 231.871 324.641 232.574C324.641 233.277 324.422 233.863 323.984 234.332C323.547 234.801 322.906 235.035 322.062 235.035C321.219 235.035 320.578 234.801 320.141 234.332C319.719 233.863 319.508 233.277 319.508 232.574ZM345.922 257.934C345.922 256.762 345.477 255.855 344.586 255.215C343.711 254.559 342.172 253.996 339.969 253.527C337.781 253.059 336.039 252.496 334.742 251.84C333.461 251.184 332.508 250.402 331.883 249.496C331.273 248.59 330.969 247.512 330.969 246.262C330.969 244.184 331.844 242.426 333.594 240.988C335.359 239.551 337.609 238.832 340.344 238.832C343.219 238.832 345.547 239.574 347.328 241.059C349.125 242.543 350.023 244.441 350.023 246.754H345.664C345.664 245.566 345.156 244.543 344.141 243.684C343.141 242.824 341.875 242.395 340.344 242.395C338.766 242.395 337.531 242.738 336.641 243.426C335.75 244.113 335.305 245.012 335.305 246.121C335.305 247.168 335.719 247.957 336.547 248.488C337.375 249.02 338.867 249.527 341.023 250.012C343.195 250.496 344.953 251.074 346.297 251.746C347.641 252.418 348.633 253.23 349.273 254.184C349.93 255.121 350.258 256.27 350.258 257.629C350.258 259.895 349.352 261.715 347.539 263.09C345.727 264.449 343.375 265.129 340.484 265.129C338.453 265.129 336.656 264.77 335.094 264.051C333.531 263.332 332.305 262.332 331.414 261.051C330.539 259.754 330.102 258.355 330.102 256.855H334.438C334.516 258.309 335.094 259.465 336.172 260.324C337.266 261.168 338.703 261.59 340.484 261.59C342.125 261.59 343.438 261.262 344.422 260.605C345.422 259.934 345.922 259.043 345.922 257.934ZM366.43 265.129C362.992 265.129 360.195 264.004 358.039 261.754C355.883 259.488 354.805 256.465 354.805 252.684V251.887C354.805 249.371 355.281 247.129 356.234 245.16C357.203 243.176 358.547 241.629 360.266 240.52C362 239.395 363.875 238.832 365.891 238.832C369.188 238.832 371.75 239.918 373.578 242.09C375.406 244.262 376.32 247.371 376.32 251.418V253.223H359.141C359.203 255.723 359.93 257.746 361.32 259.293C362.727 260.824 364.508 261.59 366.664 261.59C368.195 261.59 369.492 261.277 370.555 260.652C371.617 260.027 372.547 259.199 373.344 258.168L375.992 260.23C373.867 263.496 370.68 265.129 366.43 265.129ZM365.891 242.395C364.141 242.395 362.672 243.035 361.484 244.316C360.297 245.582 359.562 247.363 359.281 249.66H371.984V249.332C371.859 247.129 371.266 245.426 370.203 244.223C369.141 243.004 367.703 242.395 365.891 242.395ZM380.305 251.77C380.305 247.879 381.227 244.754 383.07 242.395C384.914 240.02 387.328 238.832 390.312 238.832C393.281 238.832 395.633 239.848 397.367 241.879V228.66H401.703V264.66H397.719L397.508 261.941C395.773 264.066 393.359 265.129 390.266 265.129C387.328 265.129 384.93 263.926 383.07 261.52C381.227 259.113 380.305 255.973 380.305 252.098V251.77ZM384.641 252.262C384.641 255.137 385.234 257.387 386.422 259.012C387.609 260.637 389.25 261.449 391.344 261.449C394.094 261.449 396.102 260.215 397.367 257.746V246.098C396.07 243.707 394.078 242.512 391.391 242.512C389.266 242.512 387.609 243.332 386.422 244.973C385.234 246.613 384.641 249.043 384.641 252.262ZM422.492 264.66V242.652H418.484V239.301H422.492V236.699C422.492 233.98 423.219 231.879 424.672 230.395C426.125 228.91 428.18 228.168 430.836 228.168C431.836 228.168 432.828 228.301 433.812 228.566L433.578 232.082C432.844 231.941 432.062 231.871 431.234 231.871C429.828 231.871 428.742 232.285 427.977 233.113C427.211 233.926 426.828 235.098 426.828 236.629V239.301H432.242V242.652H426.828V264.66H422.492ZM435.898 251.746C435.898 249.262 436.383 247.027 437.352 245.043C438.336 243.059 439.695 241.527 441.43 240.449C443.18 239.371 445.172 238.832 447.406 238.832C450.859 238.832 453.648 240.027 455.773 242.418C457.914 244.809 458.984 247.988 458.984 251.957V252.262C458.984 254.73 458.508 256.949 457.555 258.918C456.617 260.871 455.266 262.395 453.5 263.488C451.75 264.582 449.734 265.129 447.453 265.129C444.016 265.129 441.227 263.934 439.086 261.543C436.961 259.152 435.898 255.988 435.898 252.051V251.746ZM440.258 252.262C440.258 255.074 440.906 257.332 442.203 259.035C443.516 260.738 445.266 261.59 447.453 261.59C449.656 261.59 451.406 260.73 452.703 259.012C454 257.277 454.648 254.855 454.648 251.746C454.648 248.965 453.984 246.715 452.656 244.996C451.344 243.262 449.594 242.395 447.406 242.395C445.266 242.395 443.539 243.246 442.227 244.949C440.914 246.652 440.258 249.09 440.258 252.262ZM476.68 243.191C476.023 243.082 475.312 243.027 474.547 243.027C471.703 243.027 469.773 244.238 468.758 246.66V264.66H464.422V239.301H468.641L468.711 242.23C470.133 239.965 472.148 238.832 474.758 238.832C475.602 238.832 476.242 238.941 476.68 239.16V243.191ZM503.68 247.668L512.586 230.535H517.695L505.93 251.934V264.66H501.43V251.934L489.664 230.535H494.82L503.68 247.668ZM518.727 251.746C518.727 249.262 519.211 247.027 520.18 245.043C521.164 243.059 522.523 241.527 524.258 240.449C526.008 239.371 528 238.832 530.234 238.832C533.688 238.832 536.477 240.027 538.602 242.418C540.742 244.809 541.812 247.988 541.812 251.957V252.262C541.812 254.73 541.336 256.949 540.383 258.918C539.445 260.871 538.094 262.395 536.328 263.488C534.578 264.582 532.562 265.129 530.281 265.129C526.844 265.129 524.055 263.934 521.914 261.543C519.789 259.152 518.727 255.988 518.727 252.051V251.746ZM523.086 252.262C523.086 255.074 523.734 257.332 525.031 259.035C526.344 260.738 528.094 261.59 530.281 261.59C532.484 261.59 534.234 260.73 535.531 259.012C536.828 257.277 537.477 254.855 537.477 251.746C537.477 248.965 536.812 246.715 535.484 244.996C534.172 243.262 532.422 242.395 530.234 242.395C528.094 242.395 526.367 243.246 525.055 244.949C523.742 246.652 523.086 249.09 523.086 252.262ZM562.906 262.152C561.219 264.137 558.742 265.129 555.477 265.129C552.773 265.129 550.711 264.348 549.289 262.785C547.883 261.207 547.172 258.879 547.156 255.801V239.301H551.492V255.684C551.492 259.527 553.055 261.449 556.18 261.449C559.492 261.449 561.695 260.215 562.789 257.746V239.301H567.125V264.66H563L562.906 262.152Z" fill="#202020"/>
</svg>
