<?xml version="1.0" encoding="UTF-8"?>
<svg width="84px" height="78px" viewBox="0 0 84 78" version="1.1" xmlns="http://www.w3.org/2000/svg" xmlns:xlink="http://www.w3.org/1999/xlink">
    <!-- Generator: Sketch 52 (66869) - http://www.bohemiancoding.com/sketch -->
    <title>7</title>
    <desc>Created with Sketch.</desc>
    <g id="Page-1" stroke="none" stroke-width="1" fill="none" fill-rule="evenodd">
        <path d="M48.0744493,37.4497545 L48.0744493,60.6214516 L49.3785076,68.6171398 L46.9338465,69.0252724 L45.5485087,60.8659122 L45.5485087,37.4497545 L48.0744493,37.4497545 Z M61.8450538,21.5397652 C62.062596,20.3976523 62.3067335,19.2414761 62.5786613,18.0721344 C62.8502903,16.9027927 63.1491121,15.719687 63.4748278,14.5231165 C62.9859554,14.0335967 62.3883118,13.6257634 61.6824947,13.2993172 L61.6006176,13.2993172 L49.3785076,8.72996778 L49.2969293,8.48550714 L49.2969293,8.32213442 C47.5042973,7.88707227 45.7116654,7.57439006 43.9190335,7.38378855 C42.1264016,7.19348627 40.4153481,7.09833512 38.7858728,7.09833512 L38.7858728,18.9287939 C42.3711367,18.8746356 46.1327053,19.0377091 50.0708777,19.4183136 C54.0093489,19.7992174 57.9340742,20.5062682 61.8450538,21.5397652 Z M31.2077523,60.7845251 L31.2077523,60.8659122 L29.8227133,69.0252724 L27.3783511,68.6171398 L28.6818117,60.6214516 L28.6818117,37.4497545 L31.2077523,37.4497545 L31.2077523,60.7845251 Z M35.6079031,6.36405555 C39.8448973,5.87453583 44.3263276,6.22821083 49.052493,7.42478134 L48.0744493,3.26356452 L48.0744493,3.10049102 C48.0744493,2.23006752 46.5806392,1.63193187 43.593019,1.30548565 C40.6053987,0.979039435 38.8127668,0.815965935 38.2151232,0.815965935 C37.7265496,0.815965935 36.7078661,0.883888292 35.1599693,1.01973301 C33.6114748,1.15587694 32.185796,1.4144008 30.8817377,1.79500537 C30.1756218,1.95837809 29.5917241,2.14868037 29.1300444,2.36621145 C28.6683647,2.58374252 28.4376743,2.82850238 28.4376743,3.10049102 L28.4376743,3.18187816 C28.4376743,3.39940924 28.3695429,3.76684824 28.2338779,4.28359675 C28.0979139,4.80034525 27.948503,5.33055854 27.7856452,5.87453583 C27.7312596,6.20098205 27.6634271,6.49990026 27.5818487,6.77188891 C27.5005692,7.04387755 27.4055439,7.3158662 27.2967727,7.58785484 C28.6005322,7.26140862 31.370909,6.85357526 35.6079031,6.36405555 Z M37.9709858,7.09833512 C35.0918379,7.1527927 32.6340287,7.37032377 30.5966617,7.75092834 C28.5598924,8.13183213 27.3511583,8.37659199 26.9707582,8.48550714 L26.9707582,8.56689428 L26.8894786,8.64858064 L26.8079003,8.72996778 L15.0740651,13.2993172 C14.3679492,13.6257634 13.7706045,14.0335967 13.2814332,14.5231165 C13.6074478,15.719687 13.9062696,16.9165567 14.1778986,18.1131272 C14.4498264,19.3096977 14.6939638,20.4518106 14.9112072,21.5397652 C16.3781234,21.213319 19.18914,20.7237993 23.3445558,20.0712061 C27.5005692,19.4183136 32.3758467,19.0377091 37.9709858,18.9287939 L37.9709858,7.09833512 Z M12.1408304,15.9506828 C11.9779726,16.1957419 11.8420087,16.4539665 11.7335363,16.7259552 C11.5162929,17.106859 11.1087,18.1672856 10.5113552,19.9081326 C9.91371165,21.6483812 9.18040298,23.7967623 8.31142922,26.353276 C7.27929876,29.3448519 6.13839718,32.7448596 4.88872446,36.5521022 C3.63964938,40.359644 2.3630827,44.1944146 1.05932324,48.056414 L11.3259434,51.8911846 L16.2149667,41.9371183 C16.2149667,41.4475986 16.1471342,39.4350621 16.0111702,35.899509 C15.8755052,32.3639558 15.2916074,27.9310496 14.2594769,22.6001918 L14.1778986,22.6001918 L13.9334623,21.7845251 C13.9878479,21.7845251 14.0419347,21.7845251 14.096619,21.7845251 C13.8790768,20.7510281 13.6483864,19.6903023 13.4039501,18.6026469 C13.1595139,17.5146923 12.9013319,16.399509 12.6300017,15.257396 C12.466845,15.4749271 12.3039871,15.7062222 12.1408304,15.9506828 Z M59.9302038,36.0628817 C60.0661677,32.4184134 60.6500655,27.849064 61.6824947,22.3554319 C56.576228,21.0502455 51.4971541,20.2615084 46.4449741,19.9895197 C41.3930929,19.7175311 36.7350589,19.7175311 32.470872,19.9895197 C28.2066851,20.2615084 24.5398429,20.6696409 21.4706443,21.213319 C18.4014457,21.7572963 16.2693523,22.1379009 15.0740651,22.3554319 C16.1064944,27.9038208 16.6903922,32.4863357 16.8263561,36.103276 C16.9620212,39.7205156 17.0298537,41.6923584 17.0298537,42.0188047 C17.0842393,42.2363357 17.2199044,43.1881464 17.4374466,44.8745358 C17.6543913,46.5606261 17.7497154,48.9268375 17.7225226,51.9725717 C17.6953298,55.0186052 17.4508936,58.7175311 16.989214,63.068751 C16.5275343,67.4202701 15.6448147,72.3974528 14.3407564,78 L13.4445899,78 C14.5854915,73.2675771 15.4000797,68.9842796 15.8889521,65.1498082 C16.3781234,61.3147384 16.6769452,57.9425579 16.7854175,55.0323692 C16.8938898,52.1221805 16.8938898,49.6883459 16.7854175,47.730267 C16.6769452,45.7718889 16.5409813,44.3302593 16.3781234,43.4059767 L11.7335363,52.9519104 L11.3259434,52.7885377 L0,48.5459337 L0.163156696,48.1381004 C1.41253059,44.276101 2.68879845,40.4006368 3.99255791,36.5114086 C5.2966162,32.6224797 6.46441175,29.1548489 7.49654221,26.1088154 C8.41990153,23.4978441 9.18040298,21.3222342 9.77804656,19.5816864 C10.3753913,17.8411386 10.7554926,16.7804128 10.9186493,16.399509 C11.6247652,14.9309498 12.4262052,13.9246816 13.3223718,13.3807043 C14.2185383,12.836727 14.7211566,12.5650376 14.8299277,12.5650376 L26.3190278,7.99598742 C26.3731146,7.8326147 26.4684387,7.53339727 26.6041038,7.09833512 C26.7400677,6.66327298 26.861987,6.17375326 26.9707582,5.62977597 C27.133616,5.14025625 27.2695799,4.65073654 27.3783511,4.16121682 C27.4868234,3.6716971 27.5681029,3.3180221 27.6227873,3.10049102 C27.6227873,2.61097131 27.9078633,2.18937395 28.4780153,1.83569894 C29.0487649,1.48232315 29.7683277,1.19657051 30.6376003,0.979039435 C31.9954465,0.598434863 33.4758097,0.339911002 35.0780921,0.204066288 C36.6809722,0.0679223569 37.7265496,0 38.2151232,0 C38.8671524,0 40.8091952,0.217531073 44.0412516,0.652593218 C47.2736069,1.08795458 48.8896352,1.9036213 48.8896352,3.10049102 L48.8896352,3.18187816 L49.9486596,7.6695412 C50.003344,7.72399877 50.0574307,7.75092834 50.1118163,7.75092834 L50.0302379,7.99598742 L50.0302379,8.15906092 L61.9266321,12.5650376 C62.0351044,12.5650376 62.5377227,12.836727 63.4341881,13.3807043 C64.3303546,13.9246816 65.1317946,14.9309498 65.8379105,16.399509 C66.0007684,16.7259552 66.3536769,17.6643011 66.8972338,19.2142474 C67.440193,20.7647921 68.1059679,22.6818782 68.8933633,24.9667025 C69.6810575,27.2509283 70.5500313,29.8346709 71.5008822,32.7176308 C72.4514343,35.6005908 73.442925,38.5649379 74.4747567,41.6109713 C75.4528004,44.5480896 76.4167995,47.4717431 77.3676504,50.3816327 C78.3179037,53.2918214 83.1854118,68.4860826 84,70.9881387 L83.2529455,71.2125518 C82.3839718,68.4926653 78.1553446,55.4267378 77.0416358,52.0542581 C75.927927,48.6817784 74.8007712,45.2823692 73.6598697,41.8557312 C72.6277392,38.8093985 71.6365473,35.8588154 70.6859952,33.0030842 C69.7354431,30.1473531 68.8664693,27.5636106 68.0784763,25.2521559 C67.2907821,22.9401028 66.6256048,21.0230167 66.0823467,19.5002992 C65.5390887,17.9769833 65.1858814,17.0524014 65.0230235,16.7259552 C64.9142524,16.4539665 64.7785873,16.1957419 64.6157294,15.9506828 C64.4525727,15.7062222 64.2897148,15.4749271 64.1265581,15.257396 C63.8549291,16.399509 63.5970459,17.5012276 63.3526097,18.5619534 C63.1081735,19.6223799 62.8774831,20.6968697 62.6599408,21.7845251 L62.8230975,21.7845251 L62.5786613,22.6001918 L62.4970829,22.6001918 C61.4649525,27.9310496 60.8810547,32.3774206 60.7450908,35.9402025 C60.6094257,39.5032837 60.5412943,41.5020562 60.5412943,41.9371183 L74.6379134,73.4309498 L83.7394274,70.1838423 L84,70.9881387 L74.2306193,74.4916756 L74.0674626,74.1652294 L60.3784365,43.4873638 C60.2155786,44.4122449 60.0796147,45.86704 59.9711424,47.8523477 C59.86267,49.8379546 59.86267,52.2717892 59.9711424,55.1547491 C60.0796147,58.0377091 60.3784365,61.3964247 60.8673089,65.2311953 C61.3564802,69.0656667 62.1710684,73.3220347 63.3119699,78 L62.4158034,78 C61.1117451,72.3974528 60.2290256,67.4202701 59.7673459,63.068751 C59.3056662,58.7175311 59.06123,55.0186052 59.0340372,51.9725717 C59.0068444,48.9268375 59.1018698,46.5606261 59.3191132,44.8745358 C59.5366555,43.1881464 59.6723206,42.2363357 59.7267061,42.0188047 C59.7267061,41.6923584 59.7945387,39.7070508 59.9302038,36.0628817 Z" id="7" fill="#000000"></path>
    </g>
</svg>